<svg xmlns="http://www.w3.org/2000/svg" viewBox="0 0 195.5 177.16"><defs><style>.cls-1{fill:#dae8f5;}.cls-1,.cls-13{opacity:0.82;}.cls-10,.cls-11,.cls-12,.cls-14,.cls-2,.cls-3,.cls-7,.cls-8,.cls-9{fill:#1373ff;}.cls-2{opacity:0.54;}.cls-3{opacity:0.3;}.cls-15,.cls-17,.cls-18,.cls-19,.cls-20,.cls-4,.cls-5{fill:#fff;}.cls-4{opacity:0.63;}.cls-16,.cls-22,.cls-6{fill:none;stroke-miterlimit:10;stroke-width:1.5px;}.cls-16,.cls-6{stroke:#1373ff;}.cls-7{opacity:0.4;}.cls-8{opacity:0.85;}.cls-9{opacity:0.73;}.cls-10{opacity:0.79;}.cls-11{opacity:0.86;}.cls-12{opacity:0.59;}.cls-13{fill:#cbdff7;}.cls-14,.cls-15{opacity:0.55;}.cls-16,.cls-22{stroke-linecap:round;}.cls-17{opacity:0.67;}.cls-18{opacity:0.45;}.cls-19{opacity:0.44;}.cls-20{opacity:0.83;}.cls-21{fill:#fccb00;}.cls-22{stroke:#fccb00;}</style></defs><title>basic-plan</title><g id="Layer_1" data-name="Layer 1"><path class="cls-1" d="M126.55,39.21A95.3,95.3,0,0,0,76.34,215.5h10.6a.24.24,0,0,1,.17.07c2.73-.06,5.45-.07,8.18-.09,0,0,0,0,.06,0a.24.24,0,0,1,.23-.22h.59a.23.23,0,0,1,.23.23c3.07,0,6.12.27,9.19.27h9.92s0,0,0,0c4.94-.76,9.94-.56,14.92-.55,0,0,0,0,0,0a14.91,14.91,0,0,1,5-.27c1.78.11,3.56.09,5.34.09a51,51,0,0,0,5.39-.23,7.73,7.73,0,0,1,2.4,0c.95.18,1.84.5,2.8.62a.33.33,0,0,1,.1-.06c5.35-.41,10.71,0,16.07-.32,2.57-.15,5,.29,7.57.37a5.16,5.16,0,0,1,1.4.21A95.3,95.3,0,0,0,126.55,39.21Z" transform="translate(-27.94 -39.21)"/><path class="cls-2" d="M205.47,114.11a5.86,5.86,0,0,0-5.86-5.85,5.72,5.72,0,0,0-2.93.8c0-.1,0-.21,0-.31a6.9,6.9,0,0,0-13.79,0,3.39,3.39,0,0,0,0,.45,4.91,4.91,0,0,0-4.57,4.91" transform="translate(-27.94 -39.21)"/><path class="cls-3" d="M202.2,215.57a6.69,6.69,0,0,0,.16-.75.2.2,0,0,0,0-.11,5.4,5.4,0,0,0,.09-.58s0-.1,0-.16a1.43,1.43,0,0,0,0-.29l0-.26c0-.11,0-.24,0-.36s0-.46,0-.69a13,13,0,0,0-1.75-6.54,10.15,10.15,0,0,1,2.65-.36c5.51,0,10.06,4.38,10.86,10.1" transform="translate(-27.94 -39.21)"/><path class="cls-4" d="M201.31,205.72a11.3,11.3,0,0,1,10.23,9.85h2.82c-.8-5.72-5.35-10.1-10.86-10.1A9.94,9.94,0,0,0,201.31,205.72Z" transform="translate(-27.94 -39.21)"/><path class="cls-5" d="M173.75,215.57a13,13,0,0,1-.4-3.2c0-7.62,6.55-13.8,14.63-13.8a14.75,14.75,0,0,1,12.87,7.26,13,13,0,0,1,1.75,6.54c0,.23,0,.46,0,.69s0,.25,0,.36l0,.26,0,.25a.06.06,0,0,1,0,0c0,.06,0,.11,0,.16a5.4,5.4,0,0,1-.09.58.2.2,0,0,1,0,.11,5.3,5.3,0,0,1-.16.75" transform="translate(-27.94 -39.21)"/><path class="cls-3" d="M173.75,215.57a13,13,0,0,1-.4-3.2c0-7.62,6.55-13.8,14.63-13.8a14.75,14.75,0,0,1,12.87,7.26,13,13,0,0,1,1.75,6.54c0,.23,0,.46,0,.69s0,.25,0,.36l0,.26,0,.25a.06.06,0,0,1,0,0c0,.06,0,.11,0,.16a5.4,5.4,0,0,1-.09.58.2.2,0,0,1,0,.11,5.3,5.3,0,0,1-.16.75" transform="translate(-27.94 -39.21)"/><path class="cls-4" d="M185.29,198.81a14.73,14.73,0,0,1,12.14,7.24,13,13,0,0,1,1.75,6.54c0,.23,0,.46,0,.69a1.38,1.38,0,0,1,0,.36c0,.09,0,.18,0,.26a2.28,2.28,0,0,0,0,.26,0,0,0,0,1,0,0,1,1,0,0,0,0,.17l-.09.57a.2.2,0,0,1,0,.11,3.58,3.58,0,0,1-.11.53h3.38a5.3,5.3,0,0,0,.16-.75.2.2,0,0,0,0-.11,5.4,5.4,0,0,0,.09-.58s0-.1,0-.16a.06.06,0,0,0,0,0l0-.25,0-.26c0-.11,0-.24,0-.36s0-.46,0-.69a13,13,0,0,0-1.75-6.54,15.06,15.06,0,0,0-15.56-7Z" transform="translate(-27.94 -39.21)"/><path class="cls-6" d="M177.64,202.62A15,15,0,0,1,188,198.57a14.75,14.75,0,0,1,12.87,7.26,13,13,0,0,1,1.75,6.54c0,.23,0,.46,0,.69s0,.25,0,.36l0,.26,0,.25a.06.06,0,0,1,0,0c0,.06,0,.11,0,.16a5.4,5.4,0,0,1-.09.58.2.2,0,0,1,0,.11,5.3,5.3,0,0,1-.16.75" transform="translate(-27.94 -39.21)"/><path class="cls-6" d="M202.2,215.57a6.69,6.69,0,0,0,.16-.75.2.2,0,0,0,0-.11,5.4,5.4,0,0,0,.09-.58s0-.1,0-.16a1.43,1.43,0,0,0,0-.29l0-.26c0-.11,0-.24,0-.36s0-.46,0-.69a13,13,0,0,0-1.75-6.54,10.15,10.15,0,0,1,2.65-.36c5.51,0,10.06,4.38,10.86,10.1" transform="translate(-27.94 -39.21)"/><circle class="cls-7" cx="158.7" cy="172.3" r="0.86"/><circle class="cls-8" cx="168.03" cy="173.16" r="0.86"/><circle class="cls-7" cx="163.3" cy="173.16" r="0.86"/><circle class="cls-7" cx="178.81" cy="174.89" r="0.64"/><circle class="cls-7" cx="177.91" cy="172.04" r="0.64"/><circle class="cls-9" cx="176.41" cy="169.94" r="0.64"/><circle class="cls-7" cx="179.03" cy="170.05" r="0.64"/><circle class="cls-10" cx="180.54" cy="173.32" r="0.64"/><circle class="cls-11" cx="154.04" cy="171.02" r="0.86"/><circle class="cls-12" cx="149.31" cy="171.89" r="0.86"/><circle class="cls-7" cx="155.57" cy="167" r="0.86"/><circle class="cls-7" cx="155.57" cy="163.46" r="0.86"/><circle class="cls-7" cx="160.9" cy="167.86" r="0.86"/><circle class="cls-7" cx="161.57" cy="163.46" r="0.86"/><circle class="cls-7" cx="166.27" cy="168.95" r="0.86"/><path class="cls-5" d="M110.41,142.74l35.51-28.14,35.51,27.85v7.44s-.63,1-1.54.91-34-26.33-34-26.33l-34.67,27.19-.76-.75Z" transform="translate(-27.94 -39.21)"/><polygon class="cls-13" points="86.21 176.41 86.52 109.87 117.9 85.26 149.45 109.87 149.45 176.41 86.21 176.41"/><rect class="cls-5" x="96.29" y="113.05" width="7.83" height="15.25"/><polygon class="cls-7" points="104.12 113.05 104.12 114.68 98.16 114.68 98.16 128.29 96.29 128.29 96.29 113.05 104.12 113.05"/><polygon class="cls-5" points="86.45 176.28 86.45 172.59 149.35 172.59 149.35 176.41 86.45 176.28"/><polygon class="cls-5" points="86.69 131.21 35.53 131.21 35.53 136.68 86.26 136.68 86.69 131.21"/><path class="cls-13" d="M67.57,175.89v28.88c1.23,2,2.72,3.81,3.1,6.09a10.19,10.19,0,0,1-.59,4.75l43.94-.16V175.89Z" transform="translate(-27.94 -39.21)"/><polygon class="cls-5" points="49.36 146 78.56 146 78.56 176.27 49.04 176.27 49.36 146"/><polygon class="cls-7" points="148.96 112.55 117.98 89.22 89.69 111.98 89.69 172.56 86.45 172.35 86.52 109.87 118.35 85.26 149.45 109.87 149.45 112.55 148.96 112.55"/><rect class="cls-5" x="86.69" y="132.97" width="62.76" height="4.65"/><path class="cls-7" d="M67.57,175.73v29.12a5.11,5.11,0,0,1,1.25,1.8,16.94,16.94,0,0,1,1.43,4.06,18.93,18.93,0,0,1,.33,4.5v.27h1.33V178.79h42.72v-3.06Z" transform="translate(-27.94 -39.21)"/><path class="cls-6" d="M179.21,150.51l-33.29-26.1-34.75,27.25a.47.47,0,0,1-.76-.37v-8.84l35.51-27.85,35.51,27.85v7A1.37,1.37,0,0,1,179.21,150.51Z" transform="translate(-27.94 -39.21)"/><path class="cls-6" d="M119.33,135.46V122a1.49,1.49,0,0,1,1.48-1.49h5a1.49,1.49,0,0,1,1.48,1.49v7.14" transform="translate(-27.94 -39.21)"/><line class="cls-6" x1="86.52" y1="109.87" x2="86.52" y2="176.41"/><line class="cls-6" x1="149.45" y1="109.87" x2="149.45" y2="176.41"/><rect class="cls-5" x="94.29" y="146.61" width="12.65" height="18.06"/><rect class="cls-5" x="92.65" y="164.72" width="15.93" height="2.72"/><rect class="cls-6" x="92.65" y="164.72" width="15.93" height="2.72"/><rect class="cls-6" x="94.29" y="146.66" width="12.65" height="18.06"/><line class="cls-6" x1="100.61" y1="146.59" x2="100.61" y2="164.72"/><line class="cls-6" x1="94.29" y1="155.65" x2="106.94" y2="155.65"/><rect class="cls-5" x="130.31" y="146.61" width="12.65" height="18.06"/><rect class="cls-5" x="128.67" y="164.72" width="15.93" height="2.72"/><rect class="cls-6" x="128.67" y="164.72" width="15.93" height="2.72"/><rect class="cls-6" x="130.31" y="146.66" width="12.65" height="18.06"/><line class="cls-6" x1="136.64" y1="146.59" x2="136.64" y2="164.72"/><line class="cls-6" x1="130.31" y1="155.65" x2="142.96" y2="155.65"/><line class="cls-6" x1="86.52" y1="132.97" x2="150.18" y2="132.97"/><line class="cls-6" x1="86.52" y1="137.45" x2="150.18" y2="137.45"/><rect class="cls-6" x="96.1" y="113.02" width="8.23" height="15.27"/><line class="cls-6" x1="86.52" y1="172.57" x2="149.45" y2="172.57"/><polyline class="cls-6" points="86.48 131.21 35.53 131.21 35.53 136.68 86.48 136.68"/><line class="cls-6" x1="39.63" y1="165.7" x2="39.63" y2="136.68"/><polyline class="cls-6" points="78.56 176.27 78.64 146 49.36 146 49.36 176.41"/><line class="cls-6" x1="49.89" y1="150.28" x2="78.64" y2="150.28"/><line class="cls-6" x1="49.89" y1="155.51" x2="78.64" y2="155.51"/><line class="cls-6" x1="49.89" y1="160.74" x2="78.64" y2="160.74"/><line class="cls-6" x1="49.89" y1="165.96" x2="78.64" y2="165.96"/><line class="cls-6" x1="49.89" y1="171.19" x2="78.64" y2="171.19"/><line class="cls-6" y1="176.41" x2="195.5" y2="176.41"/><path class="cls-5" d="M198,197.88s-5.66.62-6.87-5.07-.7-32.13,6.39-33.47c7.09,1.34,7.6,27.79,6.38,33.47s-5.49,5.05-5.49,5.05Z" transform="translate(-27.94 -39.21)"/><path class="cls-14" d="M198,197.88s-5.66.62-6.87-5.07-.7-32.13,6.39-33.47c7.09,1.34,7.6,27.79,6.38,33.47s-5.49,5.05-5.49,5.05Z" transform="translate(-27.94 -39.21)"/><path class="cls-15" d="M198.74,197.88a2.55,2.55,0,0,1-.35,0l-.41,0s-5.66.61-6.87-5.07-.71-32.12,6.38-33.47a3.14,3.14,0,0,1,.9.33c-6.23,3.3-6.65,27.71-5.49,33.14A6.08,6.08,0,0,0,198.74,197.88Z" transform="translate(-27.94 -39.21)"/><line class="cls-16" x1="173.39" y1="148.64" x2="170.04" y2="153.14"/><circle class="cls-17" cx="172.79" cy="139.11" r="0.94"/><circle class="cls-17" cx="173.72" cy="145.26" r="0.94"/><circle class="cls-17" cx="169.1" cy="142.41" r="0.94"/><circle class="cls-17" cx="166.37" cy="137.45" r="0.94"/><circle class="cls-18" cx="168.62" cy="123.95" r="0.94"/><circle class="cls-18" cx="165.7" cy="147.7" r="0.94"/><circle class="cls-18" cx="166.85" cy="153.14" r="0.94"/><circle class="cls-19" cx="169.1" cy="131.91" r="0.94"/><path class="cls-16" d="M198,197.88s-5.66.62-6.87-5.07-.7-32.13,6.39-33.47c7.09,1.34,7.6,27.79,6.38,33.47s-5.49,5.05-5.49,5.05" transform="translate(-27.94 -39.21)"/><path class="cls-20" d="M54.6,105.58a5.46,5.46,0,0,1,5.46-5.46,5.34,5.34,0,0,1,2.74.75,2.81,2.81,0,0,1,0-.29,6.43,6.43,0,0,1,12.86,0,3,3,0,0,1,0,.42,4.59,4.59,0,0,1,4.26,4.58" transform="translate(-27.94 -39.21)"/><path class="cls-2" d="M103,91.92a4.35,4.35,0,0,0-4.21-4.17,4.14,4.14,0,0,0,.14-1.12A4.75,4.75,0,1,0,89.6,88,3.81,3.81,0,0,0,84,91.38l18.94.56Z" transform="translate(-27.94 -39.21)"/><path class="cls-2" d="M82.79,144a5.85,5.85,0,0,0-5.86-5.85A5.75,5.75,0,0,0,74,139c0-.1,0-.2,0-.3a6.9,6.9,0,1,0-13.79,0,3.31,3.31,0,0,0,0,.44A4.92,4.92,0,0,0,55.68,144" transform="translate(-27.94 -39.21)"/><path class="cls-21" d="M145.46,78.37a7,7,0,0,1-3.06,5.74,28.9,28.9,0,0,1-5.28,0c-1.78-.28-1.18-2.06-1.18-2.06a1.51,1.51,0,0,1,.29-.45,2.19,2.19,0,0,0,.39-.29,1.35,1.35,0,0,1,.66-.17h.91a2.2,2.2,0,0,0,1.56-.65A2.16,2.16,0,0,0,140.4,79a2.22,2.22,0,0,0-2.21-2.23h-7.51a7.42,7.42,0,0,1,7.28-5.5A7.32,7.32,0,0,1,145.46,78.37Z" transform="translate(-27.94 -39.21)"/><path class="cls-20" d="M146.4,85.93a1.88,1.88,0,0,1-1.87,1.89H131.44a2.1,2.1,0,0,1-2.1-2.1,2.08,2.08,0,0,1,2.1-2.09h.18a1.35,1.35,0,0,0,.93-.36,1.4,1.4,0,0,0,.48-1v0a1.42,1.42,0,0,0-1.41-1.43h-5.69a2,2,0,0,1-1.43-3.45,2,2,0,0,1,1.43-.6h12.26A2.22,2.22,0,0,1,140.4,79a2.16,2.16,0,0,1-.65,1.56,2.2,2.2,0,0,1-1.56.65h-.91a1.35,1.35,0,0,0-.66.17,1.24,1.24,0,0,0-.39.29,1.51,1.51,0,0,0-.29.45s-.6,1.78,1.18,2.06a28.9,28.9,0,0,0,5.28,0l.51,0h1.62A1.87,1.87,0,0,1,146.4,85.93Z" transform="translate(-27.94 -39.21)"/><line class="cls-22" x1="100.25" y1="25.08" x2="103.01" y2="29.76"/><line class="cls-22" x1="109.31" y1="29.49" x2="109.6" y2="23.78"/><line class="cls-22" x1="114.89" y1="30.78" x2="118.46" y2="25.08"/><line class="cls-22" x1="118.46" y1="34.83" x2="125.43" y2="33.58"/><line class="cls-22" x1="119.64" y1="40.41" x2="127.27" y2="41.62"/><rect class="cls-5" x="112.88" y="150.89" width="11.5" height="21.79"/><rect class="cls-6" x="112.88" y="150.89" width="11.5" height="21.55"/><line class="cls-16" x1="115.24" y1="160.12" x2="115.24" y2="161.83"/><path class="cls-6" d="M124.23,159.88c-.2.08,8,0,8,0" transform="translate(-27.94 -39.21)"/><rect class="cls-5" x="132" y="113.04" width="7.83" height="15.25"/><rect class="cls-6" x="131.81" y="113" width="8.23" height="15.27"/><path class="cls-6" d="M159.94,159.87c-.2.08,8,0,8,0" transform="translate(-27.94 -39.21)"/><polygon class="cls-7" points="139.65 112.75 139.65 114.39 133.7 114.39 133.7 128 131.83 128 131.83 112.75 139.65 112.75"/><rect class="cls-5" x="113.97" y="112.89" width="7.83" height="15.25"/><rect class="cls-6" x="113.78" y="112.86" width="8.23" height="15.27"/><path class="cls-6" d="M141.91,159.73c-.19.07,8,0,8,0" transform="translate(-27.94 -39.21)"/><polygon class="cls-7" points="121.63 112.61 121.63 114.24 115.67 114.24 115.67 127.86 113.8 127.86 113.8 112.61 121.63 112.61"/><path class="cls-13" d="M71.93,215.5a8.88,8.88,0,1,0-16.64-6.19A10.6,10.6,0,0,0,50,207.9c-4.94,0-7.82,3-9.07,7.58Z" transform="translate(-27.94 -39.21)"/><path class="cls-6" d="M71.93,215.5a8.88,8.88,0,1,0-16.64-6.19A10.6,10.6,0,0,0,50,207.9c-4.94,0-7.82,3-9.07,7.58Z" transform="translate(-27.94 -39.21)"/><line class="cls-16" x1="170.04" y1="162.67" x2="170.04" y2="145.43"/></g></svg>