<svg id="Layer_1" data-name="Layer 1" xmlns="http://www.w3.org/2000/svg" viewBox="0 0 190.58 176.51"><defs><style>.cls-1,.cls-3{fill:#dae8f5;}.cls-1{opacity:0.82;}.cls-2{fill:#cbdff7;}.cls-4,.cls-5{fill:#fff;}.cls-5{opacity:0.83;}.cls-6,.cls-8{fill:#1373ff;}.cls-6{opacity:0.3;}.cls-7,.cls-9{fill:none;stroke:#1373ff;stroke-miterlimit:10;stroke-width:1.5px;}.cls-7{stroke-linecap:round;}.cls-8{opacity:0.54;}</style></defs><title>first-mover-plan</title><path class="cls-1" d="M128,45.13A95.3,95.3,0,0,0,76.61,220.68c1.66,0,3.31.24,5,.37h0a9.58,9.58,0,0,1,3.07-.19.21.21,0,0,1,.19-.1c1.72,0,3.36.21,5.09.12s3.24-.1,4.86-.13,3.3-.14,5-.11a36.52,36.52,0,0,0,4.56,0h0l0,0c2.51,0,5,.44,7.5.42,2.25,0,4.48-.57,6.73-.33,4.84.5,9.72,0,14.59.13a.21.21,0,0,1,.22-.19c4.54,0,9.07.09,13.62,0s9,.09,13.58.1a.23.23,0,0,1,.2-.18,45,45,0,0,1,8.12.22c2.6.16,5.21.18,7.82.18h2.17A95.3,95.3,0,0,0,128,45.13Z" transform="translate(-32.71 -45.13)"/><rect class="cls-2" x="77.77" y="41.25" width="33.21" height="134.69"/><rect class="cls-2" x="46.84" y="50.3" width="30.93" height="125.47"/><polygon class="cls-3" points="110.98 50.3 141.86 50.56 141.86 175.94 110.98 175.94 110.98 50.3"/><path class="cls-2" d="M100.89,77.73V54.32h52.38V77.73Zm48.29-3v-17h-44.5v16.7Z" transform="translate(-32.71 -45.13)"/><polygon class="cls-4" points="71.97 12.59 116.47 12.59 116.47 29.57 71.97 29.29 71.97 12.59"/><polygon class="cls-2" points="61.22 49.93 61.22 32.2 127.57 32.2 127.57 50.3 110.98 50.3 110.98 41.25 77.77 41.25 77.77 50.3 61.22 49.93"/><polyline class="cls-4" points="64.5 50.3 64.5 42.16 68.19 42.16 68.19 49.91 64.5 49.91"/><polygon class="cls-4" points="70.68 49.69 70.68 42.16 74.62 42.16 74.62 50.22 73.27 50.22 70.68 49.69"/><polygon class="cls-4" points="114.3 42.44 114.3 49.99 117.61 49.99 117.61 42.16 114.3 42.44"/><polygon class="cls-4" points="120.56 49.99 120.56 42.16 123.91 42.16 123.91 50.3 120.56 49.99"/><polygon class="cls-3" points="77.77 50.3 46.65 50.22 46.65 175.76 77.77 175.39 77.77 50.3"/><polygon class="cls-4" points="133.17 50.33 121.5 175.57 129.28 175.57 140.72 50.96 133.17 50.33"/><polygon class="cls-4" points="121.5 50.3 110.98 132.4 118.15 132.4 127.57 50.3 121.5 50.3"/><polygon class="cls-4" points="54.7 51.19 66.6 175.57 58.82 175.57 47.38 50.96 54.7 51.19"/><polygon class="cls-4" points="66.6 50.3 77.12 132.4 69.95 132.4 60.53 50.3 66.6 50.3"/><polygon class="cls-4" points="142.09 50.6 145.07 52.62 145.07 175.76 142.34 175.76 142.09 137.08 142.09 50.6"/><polygon class="cls-5" points="46.65 50.51 43.68 52.25 43.68 176.03 46.92 176.03 46.65 169.16 46.65 50.51"/><polygon class="cls-4" points="83.08 175.38 83.08 51.08 88.18 51.08 88.18 175.94 83.08 175.38"/><path class="cls-4" d="M124.81,221V96h4.63v125S124.69,220.89,124.81,221Z" transform="translate(-32.71 -45.13)"/><polygon class="cls-4" points="100.57 176.03 100.57 50.91 106 50.91 106 175.94 100.57 176.03"/><rect class="cls-4" x="78.21" y="41.25" width="32.94" height="3.86"/><ellipse class="cls-4" cx="154.22" cy="159.42" rx="6.41" ry="10.98"/><ellipse class="cls-4" cx="154.22" cy="159.42" rx="6.41" ry="10.98"/><ellipse class="cls-6" cx="154.22" cy="159.42" rx="6.41" ry="10.98"/><ellipse class="cls-7" cx="154.22" cy="159.42" rx="6.41" ry="10.98"/><line class="cls-7" x1="154.22" y1="154.69" x2="154.22" y2="175.17"/><line class="cls-7" x1="154.45" y1="161.02" x2="156.85" y2="157.8"/><line class="cls-7" x1="154.45" y1="165.83" x2="156.85" y2="162.6"/><line class="cls-7" x1="154.14" y1="161.02" x2="151.74" y2="157.8"/><line class="cls-7" x1="154.14" y1="165.83" x2="151.74" y2="162.6"/><path class="cls-8" d="M220.31,121.86a5.86,5.86,0,0,0-5.86-5.85,5.72,5.72,0,0,0-2.93.8c0-.1,0-.2,0-.31a6.9,6.9,0,0,0-13.8,0,2.27,2.27,0,0,0,0,.45,4.91,4.91,0,0,0-4.57,4.91" transform="translate(-32.71 -45.13)"/><path class="cls-8" d="M167.65,78.62a5.46,5.46,0,0,1,5.46-5.46,5.34,5.34,0,0,1,2.74.75,2.81,2.81,0,0,1,0-.29,6.43,6.43,0,1,1,12.86,0,3,3,0,0,1,0,.42,4.59,4.59,0,0,1,4.26,4.58" transform="translate(-32.71 -45.13)"/><path class="cls-5" d="M60.1,78.62a5.46,5.46,0,0,1,5.46-5.46,5.31,5.31,0,0,1,2.74.75,2.81,2.81,0,0,1,0-.29,6.43,6.43,0,0,1,12.86,0,3,3,0,0,1,0,.42,4.58,4.58,0,0,1,4.26,4.58" transform="translate(-32.71 -45.13)"/><path class="cls-8" d="M59.82,152.53A5.84,5.84,0,0,0,54,146.69a5.66,5.66,0,0,0-2.94.8c0-.11,0-.21,0-.31a6.9,6.9,0,1,0-13.79,0,2.17,2.17,0,0,0,0,.44,4.92,4.92,0,0,0-4.57,4.91" transform="translate(-32.71 -45.13)"/><line class="cls-7" x1="15.39" y1="175.76" x2="163.9" y2="175.76"/><polyline class="cls-7" points="94.37 9.19 120.82 9.19 120.82 32.6 94.37 32.6"/><polyline class="cls-7" points="94.37 12.59 116.7 12.59 116.7 29.29 94.37 29.29"/><line class="cls-7" x1="116.7" y1="18.95" x2="94.37" y2="18.95"/><line class="cls-7" x1="116.7" y1="22.65" x2="94.37" y2="22.65"/><polyline class="cls-7" points="120.82 32.6 127.53 32.6 127.53 50.3 110.98 50.3"/><path class="cls-7" d="M160.24,95.42h14a.54.54,0,0,1,.53.54V220.89" transform="translate(-32.71 -45.13)"/><line class="cls-7" x1="124.48" y1="35.92" x2="94.37" y2="35.92"/><polyline class="cls-7" points="94.37 41.45 110.98 41.45 110.98 175.39"/><line class="cls-7" x1="110.98" y1="45.11" x2="94.37" y2="45.11"/><polyline class="cls-7" points="105.66 175.38 105.66 51.08 100.34 51.08 100.34 175.38"/><polyline class="cls-7" points="94.37 50.94 96.64 50.94 96.64 175.39"/><polyline class="cls-7" points="114.13 50.3 114.13 42.16 117.81 42.16 117.81 50.3"/><polyline class="cls-7" points="120.56 50.3 120.56 42.16 124.25 42.16 124.25 50.3"/><path class="cls-7" d="M174.8,95.42l2.11,1.08a1.6,1.6,0,0,1,.87,1.42v123" transform="translate(-32.71 -45.13)"/><line class="cls-7" x1="110.98" y1="54.91" x2="142.09" y2="54.91"/><line class="cls-7" x1="110.98" y1="59.52" x2="142.09" y2="59.52"/><line class="cls-7" x1="110.98" y1="64.14" x2="142.09" y2="64.14"/><line class="cls-7" x1="110.98" y1="68.75" x2="142.09" y2="68.75"/><line class="cls-7" x1="110.98" y1="73.36" x2="142.09" y2="73.36"/><line class="cls-7" x1="110.98" y1="77.98" x2="142.09" y2="77.98"/><line class="cls-7" x1="110.98" y1="82.59" x2="142.09" y2="82.59"/><line class="cls-7" x1="110.98" y1="87.2" x2="142.09" y2="87.2"/><line class="cls-7" x1="110.98" y1="91.82" x2="142.09" y2="91.82"/><line class="cls-7" x1="110.98" y1="96.43" x2="142.09" y2="96.43"/><line class="cls-7" x1="110.98" y1="101.05" x2="142.09" y2="101.05"/><line class="cls-7" x1="110.98" y1="105.66" x2="142.09" y2="105.66"/><line class="cls-7" x1="110.98" y1="110.27" x2="142.09" y2="110.27"/><line class="cls-7" x1="110.98" y1="114.89" x2="142.09" y2="114.89"/><line class="cls-7" x1="110.98" y1="119.5" x2="142.09" y2="119.5"/><line class="cls-7" x1="110.98" y1="124.11" x2="142.09" y2="124.11"/><line class="cls-7" x1="110.98" y1="128.73" x2="142.09" y2="128.73"/><line class="cls-7" x1="110.98" y1="133.34" x2="142.09" y2="133.34"/><line class="cls-7" x1="110.98" y1="137.96" x2="142.09" y2="137.96"/><line class="cls-7" x1="110.98" y1="142.57" x2="142.09" y2="142.57"/><line class="cls-7" x1="110.98" y1="147.18" x2="142.09" y2="147.18"/><line class="cls-7" x1="110.98" y1="151.8" x2="142.09" y2="151.8"/><line class="cls-7" x1="110.98" y1="156.41" x2="142.09" y2="156.41"/><line class="cls-7" x1="110.98" y1="161.02" x2="142.09" y2="161.02"/><line class="cls-7" x1="110.98" y1="165.64" x2="142.09" y2="165.64"/><line class="cls-7" x1="110.98" y1="170.25" x2="142.09" y2="170.25"/><line class="cls-7" x1="111.78" y1="12.59" x2="111.78" y2="18.95"/><line class="cls-7" x1="106.8" y1="12.59" x2="106.8" y2="18.95"/><line class="cls-7" x1="101.83" y1="12.59" x2="101.83" y2="18.95"/><line class="cls-7" x1="96.85" y1="12.59" x2="96.85" y2="18.95"/><line class="cls-7" x1="111.72" y1="22.92" x2="111.72" y2="29.29"/><line class="cls-7" x1="106.75" y1="22.92" x2="106.75" y2="29.29"/><line class="cls-7" x1="101.77" y1="22.92" x2="101.77" y2="29.29"/><line class="cls-7" x1="96.8" y1="22.92" x2="96.8" y2="29.29"/><polyline class="cls-7" points="94.37 9.19 67.93 9.19 67.93 32.6 94.37 32.6"/><polyline class="cls-7" points="94.37 12.59 72.05 12.59 72.05 29.29 94.37 29.29"/><line class="cls-7" x1="72.05" y1="18.95" x2="94.37" y2="18.95"/><line class="cls-7" x1="72.05" y1="22.65" x2="94.37" y2="22.65"/><polyline class="cls-7" points="67.93 32.6 61.22 32.6 61.22 50.3 77.77 50.3"/><path class="cls-7" d="M93.93,95.42h-14a.54.54,0,0,0-.53.54V220.89" transform="translate(-32.71 -45.13)"/><line class="cls-7" x1="64.27" y1="35.92" x2="94.37" y2="35.92"/><polyline class="cls-7" points="94.37 41.45 77.77 41.45 77.77 175.39"/><line class="cls-7" x1="77.77" y1="45.11" x2="94.37" y2="45.11"/><polyline class="cls-7" points="83.08 175.38 83.08 51.08 88.4 51.08 88.4 175.38"/><polyline class="cls-7" points="94.37 50.94 92.1 50.94 92.1 175.39"/><polyline class="cls-7" points="74.62 50.3 74.62 42.16 70.93 42.16 70.93 50.3"/><polyline class="cls-7" points="68.19 50.3 68.19 42.16 64.5 42.16 64.5 50.3"/><path class="cls-7" d="M79.36,95.42,77.25,96.5a1.59,1.59,0,0,0-.86,1.42v123" transform="translate(-32.71 -45.13)"/><line class="cls-7" x1="77.77" y1="54.91" x2="46.65" y2="54.91"/><line class="cls-7" x1="77.77" y1="59.52" x2="46.65" y2="59.52"/><line class="cls-7" x1="77.77" y1="64.14" x2="46.65" y2="64.14"/><line class="cls-7" x1="77.77" y1="68.75" x2="46.65" y2="68.75"/><line class="cls-7" x1="77.77" y1="73.36" x2="46.65" y2="73.36"/><line class="cls-7" x1="77.77" y1="77.98" x2="46.65" y2="77.98"/><line class="cls-7" x1="77.77" y1="82.59" x2="46.65" y2="82.59"/><line class="cls-7" x1="77.77" y1="87.2" x2="46.65" y2="87.2"/><line class="cls-7" x1="77.77" y1="91.82" x2="46.65" y2="91.82"/><line class="cls-7" x1="77.77" y1="96.43" x2="46.65" y2="96.43"/><line class="cls-7" x1="77.77" y1="101.05" x2="46.65" y2="101.05"/><line class="cls-7" x1="77.77" y1="105.66" x2="46.65" y2="105.66"/><line class="cls-7" x1="77.77" y1="110.27" x2="46.65" y2="110.27"/><line class="cls-7" x1="77.77" y1="114.89" x2="46.65" y2="114.89"/><line class="cls-7" x1="77.77" y1="119.5" x2="46.65" y2="119.5"/><line class="cls-7" x1="77.77" y1="124.11" x2="46.65" y2="124.11"/><line class="cls-7" x1="77.77" y1="128.73" x2="46.65" y2="128.73"/><line class="cls-7" x1="77.77" y1="133.34" x2="46.65" y2="133.34"/><line class="cls-7" x1="77.77" y1="137.96" x2="46.65" y2="137.96"/><line class="cls-7" x1="77.77" y1="142.57" x2="46.65" y2="142.57"/><line class="cls-7" x1="77.77" y1="147.18" x2="46.65" y2="147.18"/><line class="cls-7" x1="77.77" y1="151.8" x2="46.65" y2="151.8"/><line class="cls-7" x1="77.77" y1="156.41" x2="46.65" y2="156.41"/><line class="cls-7" x1="77.77" y1="161.02" x2="46.65" y2="161.02"/><line class="cls-7" x1="77.77" y1="165.64" x2="46.65" y2="165.64"/><line class="cls-7" x1="77.77" y1="170.25" x2="46.65" y2="170.25"/><line class="cls-7" x1="76.96" y1="12.59" x2="76.96" y2="18.95"/><line class="cls-7" x1="81.94" y1="12.59" x2="81.94" y2="18.95"/><line class="cls-7" x1="86.92" y1="12.59" x2="86.92" y2="18.95"/><line class="cls-7" x1="91.89" y1="12.59" x2="91.89" y2="18.95"/><line class="cls-7" x1="77.02" y1="22.92" x2="77.02" y2="29.29"/><line class="cls-7" x1="82" y1="22.92" x2="82" y2="29.29"/><line class="cls-7" x1="86.97" y1="22.92" x2="86.97" y2="29.29"/><line class="cls-7" x1="91.95" y1="22.92" x2="91.95" y2="29.29"/><line class="cls-7" x1="83.08" y1="59.22" x2="88.4" y2="59.22"/><line class="cls-7" x1="92.74" y1="59.52" x2="96.31" y2="59.52"/><line class="cls-7" x1="101.21" y1="59.52" x2="104.79" y2="59.52"/><line class="cls-7" x1="83.08" y1="67.3" x2="88.4" y2="67.3"/><line class="cls-7" x1="92.74" y1="67.61" x2="96.31" y2="67.61"/><line class="cls-7" x1="101.21" y1="67.61" x2="104.79" y2="67.61"/><line class="cls-7" x1="83.08" y1="75.38" x2="88.4" y2="75.38"/><line class="cls-7" x1="92.74" y1="75.69" x2="96.31" y2="75.69"/><line class="cls-7" x1="101.21" y1="75.69" x2="104.79" y2="75.69"/><line class="cls-7" x1="83.08" y1="83.47" x2="88.4" y2="83.47"/><line class="cls-7" x1="92.74" y1="83.77" x2="96.31" y2="83.77"/><line class="cls-7" x1="101.21" y1="83.77" x2="104.79" y2="83.77"/><line class="cls-7" x1="83.08" y1="91.55" x2="88.4" y2="91.55"/><line class="cls-7" x1="92.74" y1="91.86" x2="96.31" y2="91.86"/><line class="cls-7" x1="101.21" y1="91.86" x2="104.79" y2="91.86"/><line class="cls-7" x1="83.08" y1="99.64" x2="88.4" y2="99.64"/><line class="cls-7" x1="92.74" y1="99.94" x2="96.31" y2="99.94"/><line class="cls-7" x1="101.21" y1="99.94" x2="104.79" y2="99.94"/><line class="cls-7" x1="83.08" y1="107.72" x2="88.4" y2="107.72"/><line class="cls-7" x1="92.74" y1="108.02" x2="96.31" y2="108.02"/><line class="cls-7" x1="101.21" y1="108.02" x2="104.79" y2="108.02"/><line class="cls-7" x1="83.08" y1="115.8" x2="88.4" y2="115.8"/><line class="cls-7" x1="92.74" y1="116.11" x2="96.31" y2="116.11"/><line class="cls-7" x1="101.21" y1="116.11" x2="104.79" y2="116.11"/><line class="cls-7" x1="83.08" y1="123.89" x2="88.4" y2="123.89"/><line class="cls-7" x1="92.74" y1="124.19" x2="96.31" y2="124.19"/><line class="cls-7" x1="101.21" y1="124.19" x2="104.79" y2="124.19"/><line class="cls-7" x1="83.08" y1="131.97" x2="88.4" y2="131.97"/><line class="cls-7" x1="92.74" y1="132.27" x2="96.31" y2="132.27"/><line class="cls-7" x1="101.21" y1="132.27" x2="104.79" y2="132.27"/><line class="cls-7" x1="83.08" y1="140.05" x2="88.4" y2="140.05"/><line class="cls-7" x1="92.74" y1="140.36" x2="96.31" y2="140.36"/><line class="cls-7" x1="101.21" y1="140.36" x2="104.79" y2="140.36"/><line class="cls-7" x1="83.08" y1="148.14" x2="88.4" y2="148.14"/><line class="cls-7" x1="92.74" y1="148.44" x2="96.31" y2="148.44"/><line class="cls-7" x1="101.21" y1="148.44" x2="104.79" y2="148.44"/><line class="cls-7" x1="83.08" y1="156.22" x2="88.4" y2="156.22"/><line class="cls-7" x1="92.74" y1="156.52" x2="96.31" y2="156.52"/><line class="cls-7" x1="101.21" y1="156.52" x2="104.79" y2="156.52"/><line class="cls-7" x1="83.08" y1="164.3" x2="88.4" y2="164.3"/><line class="cls-7" x1="92.74" y1="164.61" x2="96.31" y2="164.61"/><line class="cls-7" x1="101.21" y1="164.61" x2="104.79" y2="164.61"/><line class="cls-7" x1="83.08" y1="172.39" x2="88.4" y2="172.39"/><line class="cls-7" x1="92.74" y1="172.69" x2="96.31" y2="172.69"/><line class="cls-7" x1="101.21" y1="172.69" x2="104.79" y2="172.69"/><polyline class="cls-7" points="106.75 9.19 106.75 5.72 117.33 5.72 117.33 9.19"/><line class="cls-7" x1="86.97" y1="5.72" x2="86.97" y2="8.92"/><line class="cls-7" x1="81.94" y1="5.72" x2="81.94" y2="8.92"/><path class="cls-4" d="M81.36,220.7a6.19,6.19,0,0,0,.48-2.4,6.3,6.3,0,0,0-12.27-2,7.49,7.49,0,0,0-3.76-1c-3.5,0-5.54,2.15-6.43,5.37Z" transform="translate(-32.71 -45.13)"/><path class="cls-6" d="M81.36,220.7a6.19,6.19,0,0,0,.48-2.4,6.3,6.3,0,0,0-12.27-2,7.49,7.49,0,0,0-3.76-1c-3.5,0-5.54,2.15-6.43,5.37Z" transform="translate(-32.71 -45.13)"/><path class="cls-9" d="M81.36,220.7a6.19,6.19,0,0,0,.48-2.4,6.3,6.3,0,0,0-12.27-2,7.49,7.49,0,0,0-3.76-1c-3.5,0-5.54,2.15-6.43,5.37Z" transform="translate(-32.71 -45.13)"/><path class="cls-4" d="M60.25,217.91v-13.6c3.08-.19,6.09-2.07,7-7.69,1.82-11.58-7-20.69-7-20.69s-8.77,9.11-7,20.69c.88,5.62,3.89,7.5,7,7.69" transform="translate(-32.71 -45.13)"/><path class="cls-8" d="M60.25,217.91v-13.6c3.08-.19,6.09-2.07,7-7.69,1.82-11.58-7-20.69-7-20.69s-8.77,9.11-7,20.69c.88,5.62,3.89,7.5,7,7.69" transform="translate(-32.71 -45.13)"/><path class="cls-7" d="M60.25,217.91v-13.6c3.08-.19,6.09-2.07,7-7.69,1.82-11.58-7-20.69-7-20.69s-8.77,9.11-7,20.69c.88,5.62,3.89,7.5,7,7.69" transform="translate(-32.71 -45.13)"/><line class="cls-7" x1="27.55" y1="143.38" x2="27.55" y2="159.18"/><line class="cls-7" x1="30.68" y1="145.76" x2="27.55" y2="149.02"/><line class="cls-7" x1="27.55" y1="154.92" x2="23.94" y2="151.28"/></svg>