<?xml version="1.0" encoding="UTF-8" standalone="no"?>
<!-- Created with Inkscape (http://www.inkscape.org/) -->

<svg
   xmlns:dc="http://purl.org/dc/elements/1.1/"
   xmlns:cc="http://creativecommons.org/ns#"
   xmlns:rdf="http://www.w3.org/1999/02/22-rdf-syntax-ns#"
   xmlns:svg="http://www.w3.org/2000/svg"
   xmlns="http://www.w3.org/2000/svg"
   xmlns:sodipodi="http://sodipodi.sourceforge.net/DTD/sodipodi-0.dtd"
   xmlns:inkscape="http://www.inkscape.org/namespaces/inkscape"
   width="376.10001"
   height="103.2"
   viewBox="0 0 99.50979 27.304999"
   version="1.1"
   id="svg8"
   inkscape:version="0.92.3 (2405546, 2018-03-11)"
   sodipodi:docname="logo.svg">
  <defs
     id="defs2">
    <path
       d="m 303.57,63.72 a 2.06,2.06 0 0 0 0.85,-0.15 c 0.23,-0.1 0.34,-0.33 0.34,-0.7 a 0.62,0.62 0 0 0 -0.12,-0.4 0.69,0.69 0 0 0 -0.3,-0.23 1.56,1.56 0 0 0 -0.4,-0.11 h -1.43 v 1.62 z m 0,-2.58 a 3.18,3.18 0 0 1 1.76,0.41 1.59,1.59 0 0 1 0.62,1.42 2,2 0 0 1 -0.12,0.73 1.28,1.28 0 0 1 -0.35,0.49 1.48,1.48 0 0 1 -0.5,0.3 2.44,2.44 0 0 1 -0.62,0.13 l 1.62,2.7 h -1.26 l -1.47,-2.65 h -0.76 v 2.64 h -1.2 v -6.18 z m -3.9,4.84 a 4.26,4.26 0 0 0 0.87,1.38 3.85,3.85 0 0 0 1.29,0.9 4,4 0 0 0 3.19,0 3.66,3.66 0 0 0 1.29,-0.9 4.51,4.51 0 0 0 1.21,-3.12 4.46,4.46 0 0 0 -1.21,-3.1 3.94,3.94 0 0 0 -1.29,-0.9 4.14,4.14 0 0 0 -3.19,0 4.16,4.16 0 0 0 -1.29,0.9 4.22,4.22 0 0 0 -0.87,1.37 4.59,4.59 0 0 0 -0.32,1.73 4.68,4.68 0 0 0 0.32,1.74 m -1.34,-4 a 5.16,5.16 0 0 1 1.22,-1.73 5.56,5.56 0 0 1 1.78,-1.11 5.88,5.88 0 0 1 4.21,0 5.41,5.41 0 0 1 1.77,1.11 5.33,5.33 0 0 1 1.23,1.73 6,6 0 0 1 0,4.55 5.48,5.48 0 0 1 -1.23,1.74 5.25,5.25 0 0 1 -1.77,1.11 6,6 0 0 1 -4.21,0 5.39,5.39 0 0 1 -1.78,-1.11 5.3,5.3 0 0 1 -1.22,-1.74 5.86,5.86 0 0 1 0,-4.55"
       id="B-3"
       inkscape:connector-curvature="0" />
    <path
       d="m 54.9,55.98 a 3.35,3.35 0 0 1 3.48,-2.84 c 1.66,0 2.66,0.9 2.24,2.84 l -3.2,15.05 a 3.33,3.33 0 0 1 -3.47,2.83 c -1.67,0 -2.67,-0.9 -2.25,-2.83 z"
       id="C"
       inkscape:connector-curvature="0" />
  </defs>
  <sodipodi:namedview
     id="base"
     pagecolor="#ffffff"
     bordercolor="#666666"
     borderopacity="1.0"
     inkscape:pageopacity="0.0"
     inkscape:pageshadow="2"
     inkscape:zoom="0.9899495"
     inkscape:cx="190.7185"
     inkscape:cy="44.765182"
     inkscape:document-units="mm"
     inkscape:current-layer="g3726"
     showgrid="false"
     inkscape:window-width="1920"
     inkscape:window-height="1052"
     inkscape:window-x="0"
     inkscape:window-y="0"
     inkscape:window-maximized="1"
     borderlayer="false"
     units="px"
     fit-margin-top="0"
     fit-margin-left="0"
     fit-margin-right="0"
     fit-margin-bottom="0" />
  <metadata
     id="metadata5">
    <rdf:RDF>
      <cc:Work
         rdf:about="">
        <dc:format>image/svg+xml</dc:format>
        <dc:type
           rdf:resource="http://purl.org/dc/dcmitype/StillImage" />
        <dc:title />
      </cc:Work>
    </rdf:RDF>
  </metadata>
  <g
     inkscape:label="Layer 1"
     inkscape:groupmode="layer"
     id="layer1"
     transform="translate(-0.80613508,-269.25167)">
    <g
       id="g3773"
       transform="matrix(0.26458333,0,0,0.26458333,-0.59615738,267.55834)">
      <path
         id="path3715"
         d="m 143.1,38.9 c -0.4,1.8 -0.7,3.6 -1,5.4 l -0.5,4.5 -0.2,2.3 c 0,0.3 0,0.7 0.1,1 0.1,0.2 0.1,0.4 0.1,0.6 -0.1,0.3 -0.2,0.5 -0.5,0.6 -0.3,0.2 -0.7,0.3 -1.1,0.3 -0.3,0 -0.6,-0.1 -0.8,-0.3 -0.2,-0.2 -0.4,-0.5 -0.4,-0.8 -0.1,-0.9 -0.1,-1.8 0,-2.7 l 0.6,-5.2 0.9,-5.5 h -0.4 l -0.9,0.1 c -0.5,0.1 -1,0.1 -1.5,0.1 -0.2,0 -0.4,0 -0.6,-0.1 -0.2,-0.1 -0.3,-0.2 -0.4,-0.4 -0.2,-0.4 -0.3,-0.8 -0.3,-1.2 0,-0.3 0.1,-0.6 0.3,-0.9 0.2,-0.2 0.4,-0.3 0.7,-0.3 h 1.1 c 0.3,0 0.9,0 1.9,-0.1 l 1.1,-0.1 0.7,-0.1 4,-0.2 c 0.6,0 1.1,0.1 1.6,0.3 0.3,0.3 0.5,0.7 0.4,1.1 0,0.4 -0.1,0.7 -0.4,1 -0.2,0.2 -0.4,0.4 -0.7,0.4 h -0.3 l -0.7,-0.1 h -1.7 l -1.1,0.3 m 7.7,5.9 0.3,-0.4 c 0.5,-0.9 1.1,-1.8 1.8,-2.6 0.3,-0.4 0.8,-0.7 1.4,-0.8 0.7,0 1.1,0.7 1.3,2.2 0.1,0.4 0.1,0.8 0.1,1.3 0,0.7 0,1.2 0,1.5 v 1.4 c 0,0.5 -0.1,1 -0.1,1.5 l -0.2,1.9 c -0.1,0.5 -0.2,1.1 -0.3,1.6 -0.1,0.3 -0.2,0.7 -0.5,0.9 -0.2,0.2 -0.6,0.3 -0.9,0.3 -0.4,0 -0.7,-0.1 -1,-0.3 -0.2,-0.1 -0.4,-0.4 -0.4,-0.7 0,-0.2 0.1,-0.4 0.2,-0.6 0.3,-0.8 0.5,-1.7 0.5,-2.5 0.1,-1.2 0.2,-2.4 0.1,-3.6 0,-0.5 -0.1,-0.7 -0.3,-0.7 -0.2,0 -0.6,0.6 -1.3,1.9 -0.5,0.8 -0.9,1.7 -1.3,2.6 -0.3,0.7 -0.5,1.4 -0.6,2.1 v 1 c 0,0.3 -0.2,0.5 -0.4,0.7 -0.3,0.2 -0.6,0.3 -0.9,0.3 -0.9,0 -1.3,-0.6 -1.2,-1.8 0,-0.4 0.1,-0.9 0.2,-1.5 l 0.4,-2 0.4,-2.4 0.4,-2.5 0.5,-2.6 c 0.2,-1.1 0.3,-2 0.4,-2.6 0,-0.3 0,-0.7 0,-1 V 37 c 0,-0.3 0.2,-0.5 0.4,-0.7 0.3,-0.2 0.6,-0.3 0.9,-0.3 0.4,0 0.8,0.1 1.1,0.5 0.2,0.5 0.3,1 0.2,1.5 -0.1,1 -0.3,2 -0.5,2.9 l -0.4,1.8 -0.3,1.2 v 0.9 m 9.4,2.5 c 0.9,-0.5 1.7,-1.1 2.3,-1.8 0.5,-0.5 0.9,-1.1 1.1,-1.8 0,-0.1 0,-0.2 0,-0.3 -0.1,-0.1 -0.1,-0.1 -0.2,-0.1 -0.4,0 -0.9,0.4 -1.6,1.2 -0.6,0.9 -1.1,1.8 -1.6,2.8 m -0.6,2.5 c 0,0.4 0.2,0.7 0.4,1 0.3,0.2 0.6,0.4 1,0.3 0.5,0 1,-0.1 1.4,-0.3 0.5,-0.3 1,-0.6 1.4,-1 0.4,-0.4 0.7,-0.8 0.8,-1.3 0,-0.4 0.4,-0.7 0.8,-0.6 0.4,0 0.7,0.1 1,0.4 0.2,0.3 0.4,0.6 0.3,1 -0.2,1.1 -0.9,2.1 -1.8,2.7 -1,1 -2.4,1.5 -3.8,1.5 -0.7,0 -1.5,-0.2 -2.1,-0.5 -0.6,-0.3 -1.1,-0.8 -1.4,-1.5 -0.3,-0.6 -0.4,-1.4 -0.4,-2.1 0.1,-1 0.4,-1.9 0.8,-2.8 0.4,-1 1,-2 1.7,-2.8 0.6,-0.7 1.2,-1.4 2,-1.9 0.6,-0.4 1.3,-0.7 2,-0.7 0.7,0 1.3,0.3 1.7,0.8 0.4,0.6 0.6,1.3 0.5,2 -0.1,0.7 -0.3,1.3 -0.6,1.9 -0.4,0.6 -0.8,1.2 -1.4,1.7 -1.1,1 -2.6,1.8 -4.3,2.2 m 16.5,-3.1 -0.4,2.9 -0.1,1.3 c -0.1,0.5 0,1 0.1,1.4 0.1,0.1 0.1,0.3 0.1,0.5 0,0.2 -0.2,0.5 -0.4,0.5 -0.3,0.2 -0.6,0.2 -0.9,0.2 -0.4,0 -0.7,-0.1 -1,-0.3 -0.3,-0.2 -0.4,-0.5 -0.5,-0.8 -0.1,-0.8 -0.1,-1.5 0,-2.3 l 0.4,-3.1 v -0.4 c -0.3,-0.4 -0.4,-0.9 -0.4,-1.3 0,-0.4 0.3,-0.8 0.8,-0.9 l 0.4,-2.2 c 0,-0.3 0.1,-0.8 0.3,-1.5 l 0.2,-0.8 0.2,-0.8 0.1,-0.3 c -0.1,-0.3 -0.2,-0.7 -0.2,-1.1 0,-0.3 0.2,-0.6 0.4,-0.8 0.4,-0.3 0.8,-0.4 1.2,-0.5 1.4,-0.3 2.8,-0.4 4.1,-0.4 0.9,-0.1 1.8,0.1 2.6,0.4 0.5,0.2 0.7,0.7 0.6,1.2 0,0.3 -0.2,0.6 -0.4,0.9 -0.1,0.2 -0.4,0.4 -0.6,0.4 -0.1,0 -0.2,0 -0.3,0 L 182,39 c -0.3,-0.1 -0.7,-0.1 -1,-0.1 -1,0 -2,0 -2.9,0.2 -0.2,0 -0.4,0.1 -0.6,0.2 -0.1,0.2 -0.2,0.4 -0.3,0.7 l -0.2,1 -0.1,0.5 c 0,0.1 -0.1,0.3 -0.1,0.5 l -0.1,0.8 -0.1,1 -0.1,0.3 c 0.4,-0.1 0.8,-0.1 1.2,-0.1 h 1.4 c 0.8,-0.1 1.6,0.1 2.4,0.3 0.4,0.3 0.7,0.8 0.6,1.3 0,0.3 -0.1,0.6 -0.3,0.8 -0.1,0.2 -0.4,0.4 -0.6,0.4 -0.1,0 -0.2,0 -0.2,-0.1 -0.5,-0.1 -0.9,-0.2 -1.4,-0.2 -1.1,0 -2.2,0.1 -3.3,0.2 m 11.6,1.5 v -0.4 c -0.6,0 -1.1,0.2 -1.7,0.4 -0.5,0.2 -1,0.5 -1.4,0.9 -0.3,0.3 -0.5,0.7 -0.6,1.1 0,0.2 0.1,0.3 0.2,0.5 0.1,0.1 0.3,0.2 0.5,0.2 0.4,0 0.8,-0.1 1.2,-0.3 0.4,-0.2 0.8,-0.4 1.1,-0.8 0.2,-0.2 0.3,-0.3 0.4,-0.5 0.2,-0.4 0.3,-0.7 0.3,-1.1 m -0.4,4 c -0.8,0.6 -1.8,1 -2.8,1 -0.8,0 -1.5,-0.2 -2.1,-0.8 -0.5,-0.5 -0.8,-1.2 -0.7,-1.9 0.1,-0.7 0.3,-1.3 0.7,-1.8 0.4,-0.6 0.9,-1.2 1.5,-1.7 1.2,-0.9 2.6,-1.4 4.1,-1.7 0,-0.3 0.1,-0.5 0.1,-0.6 0.1,-0.4 0,-0.8 -0.1,-1.1 -0.1,-0.2 -0.3,-0.4 -0.5,-0.3 -0.4,0 -0.7,0.2 -1,0.4 -0.4,0.3 -0.7,0.6 -0.9,1 -0.2,0.4 -0.6,0.7 -1,0.7 -0.3,0 -0.5,-0.1 -0.7,-0.3 -0.2,-0.2 -0.3,-0.5 -0.3,-0.7 0.1,-0.4 0.2,-0.7 0.5,-1 0.3,-0.4 0.6,-0.8 1,-1.2 0.8,-0.7 1.8,-1.2 2.8,-1.2 0.8,0 1.6,0.3 2.1,1 0.5,0.8 0.7,1.7 0.6,2.7 0,0.3 -0.1,0.6 -0.1,1 l -0.1,1.3 -0.1,1.1 c 0,0.1 0,0.5 -0.1,1.2 V 50 c -0.1,0.6 -0.1,1.2 0.1,1.7 l 0.2,0.2 c 0,0.1 0,0.1 0,0.2 -0.1,0.4 -0.3,0.7 -0.6,0.9 -0.3,0.3 -0.7,0.4 -1.1,0.5 -0.9,0 -1.3,-0.4 -1.5,-1.3 m 4.4,-0.7 c 0.1,-0.3 0.2,-0.6 0.4,-0.8 0.2,-0.2 0.4,-0.4 0.7,-0.4 0.2,0 0.3,0.1 0.5,0.2 l 0.3,0.3 c 0.6,0.5 1.4,0.8 2.3,0.7 1.1,0 1.6,-0.2 1.7,-0.5 0,-0.1 -0.1,-0.2 -0.3,-0.4 l -0.2,-0.1 -0.4,-0.2 c -0.2,-0.1 -0.6,-0.3 -1.3,-0.7 -0.7,-0.3 -1.4,-0.7 -2,-1.1 -0.4,-0.2 -0.7,-0.6 -0.9,-1 -0.2,-0.4 -0.2,-0.8 -0.2,-1.2 0.1,-0.6 0.3,-1.1 0.6,-1.6 0.4,-0.6 0.9,-1.1 1.5,-1.5 0.8,-0.6 1.7,-1.1 2.6,-1.4 0.8,-0.3 1.6,-0.5 2.4,-0.5 0.5,0 1,0.2 1.4,0.6 0.3,0.5 0.5,1.2 0.4,1.8 -0.1,0.7 -0.3,1.3 -0.6,1.9 -0.4,0.6 -0.7,0.8 -1.1,0.8 -0.3,0 -0.6,-0.1 -0.7,-0.3 -0.2,-0.2 -0.3,-0.4 -0.3,-0.7 0.1,-0.3 0.2,-0.5 0.3,-0.7 0.1,-0.2 0.2,-0.4 0.3,-0.7 0,-0.3 -0.1,-0.4 -0.4,-0.4 -0.4,0 -0.8,0.1 -1.1,0.3 -0.5,0.2 -0.9,0.5 -1.3,0.8 -0.7,0.5 -1.1,1 -1.1,1.4 0,0.2 0.1,0.5 0.3,0.6 0.5,0.3 1,0.6 1.6,0.8 0.9,0.4 1.8,0.9 2.6,1.5 0.4,0.4 0.7,1 0.6,1.6 -0.1,0.9 -0.6,1.7 -1.4,2.1 -1.9,1 -4.1,1.1 -6,0.2 -0.9,-0.4 -1.2,-0.9 -1.2,-1.4 m 12.4,-7.4 c -0.6,0 -0.9,0 -1.1,-0.1 -0.2,0 -0.3,-0.1 -0.5,-0.2 -0.4,-0.3 -0.6,-0.8 -0.5,-1.2 0,-0.3 0.1,-0.6 0.2,-0.8 0.1,-0.2 0.3,-0.3 0.4,-0.3 0,0 0.1,0 0.1,0 0.4,0.1 0.9,0.2 1.4,0.1 h 0.5 c 0,-0.2 0,-0.5 0.1,-0.9 0.1,-0.6 0.1,-1.2 0,-1.8 0,-0.1 0,-0.3 0,-0.4 0,-0.2 0.2,-0.5 0.4,-0.6 0.3,-0.2 0.6,-0.2 0.9,-0.2 0.4,0 0.7,0.1 1,0.3 0.2,0.2 0.4,0.6 0.3,0.9 0,0.2 -0.1,0.7 -0.2,1.4 l -0.1,1 c 0.6,-0.1 1.1,-0.2 1.7,-0.2 0.5,0 0.8,0.3 0.8,0.8 -0.1,0.4 -0.2,0.9 -0.4,1.3 0,0.1 -0.1,0.3 -0.2,0.4 -0.1,0.1 -0.2,0.1 -0.3,0.1 H 208 c -0.2,0 -0.5,0 -1,0.1 h -0.2 l -0.3,2.1 v 0.4 c 0,0.1 0,0.1 0,0.2 v 0.2 c 0,0.2 0,0.3 0,0.5 l -0.2,1.6 c -0.2,1.1 -0.2,2.3 0,3.4 0,0.1 0.1,0.2 0.1,0.3 0,0.2 -0.2,0.5 -0.4,0.6 -0.2,0.2 -0.5,0.3 -0.8,0.3 -0.6,0 -1.2,-0.4 -1.3,-1 -0.3,-1 -0.3,-2.1 -0.1,-3.2 l 0.4,-3.6 c 0,-0.3 0.1,-0.8 0.2,-1.6 m 7.9,3.3 c 0.9,-0.5 1.7,-1.1 2.3,-1.8 0.5,-0.5 0.9,-1.1 1.1,-1.8 0,-0.1 0,-0.2 -0.1,-0.3 -0.1,-0.1 -0.1,-0.1 -0.2,-0.1 -0.4,0 -0.9,0.4 -1.6,1.2 -0.5,0.9 -1.1,1.8 -1.5,2.8 m -0.6,2.5 c 0,0.4 0.2,0.7 0.4,1 0.3,0.2 0.6,0.4 1,0.3 0.5,0 1,-0.1 1.4,-0.3 0.5,-0.3 1,-0.6 1.4,-1 0.4,-0.4 0.7,-0.8 0.8,-1.3 0,-0.4 0.4,-0.7 0.8,-0.6 0.4,0 0.7,0.1 1,0.4 0.2,0.3 0.4,0.6 0.3,1 -0.2,1.1 -0.9,2.1 -1.8,2.7 -1,1 -2.4,1.5 -3.8,1.5 -0.7,0 -1.5,-0.2 -2.1,-0.5 -0.6,-0.3 -1.1,-0.8 -1.4,-1.5 -0.3,-0.6 -0.4,-1.4 -0.4,-2.1 0.1,-1 0.4,-1.9 0.8,-2.8 0.4,-1 1,-2 1.7,-2.8 0.6,-0.7 1.2,-1.4 2,-1.9 0.6,-0.4 1.3,-0.7 2,-0.7 0.7,0 1.3,0.3 1.7,0.8 0.4,0.6 0.6,1.3 0.5,2 -0.1,0.7 -0.3,1.3 -0.6,1.9 -0.4,0.6 -0.8,1.2 -1.4,1.7 -1.1,1 -2.6,1.8 -4.3,2.2 m 8,1.7 c 0.1,-0.3 0.2,-0.6 0.4,-0.8 0.2,-0.2 0.4,-0.4 0.7,-0.4 0.2,0 0.3,0.1 0.4,0.2 l 0.3,0.3 c 0.6,0.5 1.4,0.8 2.2,0.7 1.1,0 1.7,-0.2 1.7,-0.5 0,-0.1 -0.1,-0.2 -0.3,-0.4 l -0.2,-0.1 -0.4,-0.2 -1.3,-0.7 c -0.7,-0.3 -1.4,-0.7 -2,-1.1 -0.4,-0.3 -0.7,-0.6 -0.9,-1 -0.2,-0.4 -0.2,-0.8 -0.2,-1.2 0.1,-0.6 0.3,-1.1 0.6,-1.6 0.4,-0.6 0.9,-1.1 1.5,-1.5 0.8,-0.6 1.7,-1.1 2.6,-1.4 0.8,-0.3 1.6,-0.5 2.4,-0.5 0.5,0 1.1,0.2 1.4,0.6 0.3,0.5 0.5,1.2 0.4,1.8 -0.1,0.7 -0.3,1.3 -0.6,1.9 -0.3,0.6 -0.7,0.8 -1.1,0.8 -0.3,0 -0.6,-0.1 -0.8,-0.3 -0.2,-0.2 -0.3,-0.4 -0.3,-0.7 0.1,-0.2 0.2,-0.5 0.3,-0.7 0.1,-0.2 0.2,-0.4 0.3,-0.7 0,-0.3 -0.1,-0.4 -0.4,-0.4 -0.4,0 -0.8,0.1 -1.1,0.3 -0.5,0.2 -0.9,0.5 -1.3,0.8 -0.7,0.5 -1.1,1 -1.1,1.4 0,0.3 0.1,0.5 0.3,0.6 0.5,0.3 1,0.6 1.5,0.8 0.9,0.4 1.8,0.9 2.6,1.5 0.5,0.4 0.7,1 0.6,1.6 -0.1,0.9 -0.6,1.7 -1.4,2.1 -1.9,1 -4.1,1.1 -6,0.2 -0.6,-0.4 -0.9,-0.9 -0.8,-1.4 M 232,44.1 c -0.6,0 -1,0 -1.1,-0.1 -0.2,0 -0.3,-0.1 -0.5,-0.2 -0.4,-0.3 -0.6,-0.8 -0.5,-1.2 0,-0.3 0.1,-0.6 0.2,-0.8 0.1,-0.2 0.3,-0.3 0.4,-0.3 0,0 0.1,0 0.1,0 0.4,0.1 0.9,0.2 1.4,0.1 h 0.5 c 0,-0.2 0,-0.5 0.1,-0.9 0.1,-0.6 0.1,-1.2 0.1,-1.8 0,-0.1 0,-0.3 0,-0.4 0,-0.2 0.2,-0.5 0.4,-0.6 0.3,-0.2 0.6,-0.2 0.9,-0.2 0.4,0 0.7,0.1 1,0.3 0.2,0.2 0.4,0.6 0.3,0.9 0,0.2 -0.1,0.7 -0.2,1.4 l -0.1,1 c 0.6,-0.1 1.1,-0.2 1.7,-0.2 0.5,0 0.8,0.3 0.8,0.8 -0.1,0.4 -0.2,0.9 -0.3,1.3 0,0.1 -0.1,0.3 -0.2,0.4 -0.1,0.1 -0.2,0.1 -0.3,0.1 h -0.8 c -0.2,0 -0.5,0 -1,0.1 h -0.2 l -0.3,2.1 v 0.6 c 0,0.1 0,0.1 0,0.2 v 0.5 l -0.2,1.6 c -0.2,1.1 -0.2,2.3 0,3.4 0,0.1 0.1,0.2 0.1,0.3 0,0.2 -0.2,0.5 -0.4,0.6 -0.2,0.2 -0.5,0.3 -0.8,0.3 -0.6,0 -1.2,-0.4 -1.3,-1 -0.2,-1 -0.3,-2.1 -0.1,-3.2 0,-0.6 0.2,-1.8 0.4,-3.6 0,-0.3 0.1,-0.8 0.2,-1.6 m 18.5,-1.5 -0.2,0.5 -1.2,2.7 -0.7,1.5 c -0.7,1.5 -1.3,3.1 -1.7,4.8 0,0.1 0,0.2 0,0.3 v 0.4 c 0,0 0,0.1 0,0.2 0,0.2 -0.1,0.4 -0.3,0.5 -0.2,0.1 -0.5,0.2 -0.8,0.2 -0.4,0 -0.8,-0.1 -1.1,-0.3 -0.3,-0.4 -0.5,-0.8 -0.6,-1.3 -0.2,-0.9 -0.4,-1.9 -0.5,-2.8 l -0.4,-3.9 -0.2,-4 c -0.1,-1 -0.1,-2 0,-3 0,-0.4 0.1,-0.9 0.4,-1.3 0.2,-0.2 0.5,-0.4 0.8,-0.4 0.3,0 0.7,0.1 0.9,0.2 0.3,0.2 0.5,0.4 0.6,0.6 0.1,0.3 0.2,0.6 0.2,0.8 0,-0.1 0,0.2 -0.1,0.9 0,0.3 -0.1,0.5 -0.1,0.9 -0.1,1.1 -0.1,2.3 -0.1,3.5 0,1 0.1,2.1 0.2,3.1 l 0.2,-0.4 0.8,-1.8 1.4,-3.3 1.3,-2.6 c 0.1,-0.2 0.2,-0.4 0.3,-0.6 0.1,-0.3 0.3,-0.6 0.4,-0.9 0.2,-0.3 0.6,-0.4 0.9,-0.4 0.3,0 0.6,0.1 0.9,0.2 0.3,0.1 0.5,0.3 0.7,0.5 0.2,0.2 0.3,0.4 0.3,0.6 0,0.4 0,0.7 0,1.1 0,1.1 0,2.2 0.1,3.3 l 0.4,3.7 0.3,1.2 0.1,-0.4 0.3,-0.9 c 0.9,-2.6 1.8,-4.8 2.7,-6.9 l 0.3,-0.7 0.2,-0.6 c 0.3,-0.7 0.6,-1 1.2,-1 0.4,0 0.9,0.1 1.2,0.4 0.3,0.3 0.5,0.7 0.4,1.1 -0.1,0.4 -0.2,0.8 -0.5,1.2 -0.5,0.9 -1.2,2.5 -2.1,4.7 l -0.9,2.2 c -0.3,0.7 -0.5,1.3 -0.7,1.8 l -0.8,2.3 c -0.2,0.7 -0.4,1.3 -0.5,2 v 0.4 c 0,0.2 -0.2,0.4 -0.4,0.5 -0.3,0.1 -0.6,0.2 -0.9,0.2 -0.3,0 -0.7,-0.1 -1,-0.2 -0.3,-0.2 -0.5,-0.5 -0.6,-0.8 -0.2,-0.6 -0.4,-1.1 -0.5,-1.7 l -0.6,-3.3 -0.4,-2.7 -0.1,-0.5 c 0,-0.2 0,-0.4 -0.1,-0.7 -0.1,-0.3 -0.1,-0.6 -0.1,-1 m 14.6,5.6 v -0.4 c -0.6,0 -1.1,0.2 -1.7,0.4 -0.5,0.2 -1,0.5 -1.4,0.9 -0.3,0.3 -0.5,0.7 -0.6,1.1 0,0.2 0,0.3 0.2,0.5 0.1,0.1 0.3,0.2 0.5,0.2 0.4,0 0.8,-0.1 1.2,-0.3 0.4,-0.2 0.8,-0.4 1.1,-0.8 0.2,-0.2 0.3,-0.3 0.4,-0.5 0.2,-0.4 0.2,-0.7 0.3,-1.1 m -0.4,4 c -0.8,0.6 -1.8,1 -2.8,1 -0.8,0 -1.5,-0.2 -2.1,-0.8 -0.5,-0.5 -0.8,-1.2 -0.7,-1.9 0.1,-0.7 0.3,-1.3 0.7,-1.8 0.4,-0.6 0.9,-1.2 1.5,-1.7 1.2,-0.9 2.6,-1.4 4.1,-1.7 0,-0.3 0.1,-0.5 0.1,-0.6 0.1,-0.4 0,-0.8 -0.1,-1.1 -0.1,-0.2 -0.3,-0.4 -0.5,-0.3 -0.4,0 -0.7,0.2 -1,0.4 -0.4,0.3 -0.7,0.6 -0.9,1 -0.2,0.4 -0.6,0.7 -1,0.7 -0.3,0 -0.5,-0.1 -0.7,-0.3 -0.2,-0.2 -0.3,-0.5 -0.3,-0.7 0.1,-0.4 0.2,-0.7 0.5,-1 0.3,-0.4 0.6,-0.8 1,-1.2 0.8,-0.7 1.8,-1.2 2.8,-1.2 0.8,0 1.6,0.3 2.1,1 0.5,0.8 0.7,1.7 0.6,2.7 0,0.3 -0.1,0.6 -0.1,1 l -0.1,1.3 -0.1,1.1 c 0,0.1 0,0.5 -0.1,1.2 V 50 c -0.1,0.6 -0.1,1.2 0.1,1.7 l 0.2,0.2 c 0,0.1 0,0.1 0,0.2 -0.1,0.4 -0.3,0.7 -0.6,0.9 -0.3,0.3 -0.7,0.4 -1.1,0.5 -0.9,0 -1.3,-0.4 -1.5,-1.3 m 6.6,-0.9 0.2,-0.4 -0.9,-2.3 -0.9,-3 c -0.3,-1.1 -0.5,-2.3 -0.6,-3.5 0,-0.3 0.2,-0.6 0.4,-0.8 0.3,-0.2 0.6,-0.3 1,-0.3 0.5,-0.1 1,0.2 1.3,0.7 0.1,0.3 0.1,0.5 0.1,0.8 0,0.8 0.1,1.7 0.4,2.5 0.2,0.8 0.4,1.7 0.7,2.5 l 0.2,-0.4 0.6,-1.3 c 0.6,-1.3 1.2,-2.5 2,-3.7 0.3,-0.4 0.7,-0.7 1.2,-0.7 0.4,0 0.7,0.1 1,0.4 0.3,0.2 0.5,0.4 0.5,0.8 0,0.2 -0.1,0.3 -0.2,0.5 l -0.4,0.5 c -0.6,1 -1.2,2 -1.7,3.1 l -0.3,0.6 c -0.1,0.2 -0.2,0.4 -0.3,0.6 l -0.7,1.5 -0.6,1.4 -0.5,1.2 c -0.5,1.2 -0.9,2.4 -1.2,3.7 v 0.7 c 0,0.2 -0.1,0.3 -0.3,0.4 -0.2,0.1 -0.4,0.2 -0.6,0.2 -0.5,0 -0.9,-0.2 -1.2,-0.5 -0.3,-0.3 -0.5,-0.8 -0.5,-1.2 0.4,-1.5 0.8,-2.7 1.3,-4 M 135.5,66.5 c -0.4,0 -0.7,0 -1.1,-0.1 -0.2,0 -0.3,-0.1 -0.5,-0.2 -0.4,-0.3 -0.6,-0.8 -0.5,-1.2 0,-0.3 0.1,-0.6 0.2,-0.8 0.1,-0.2 0.3,-0.3 0.4,-0.3 0,0 0.1,0 0.1,0 0.4,0.1 0.9,0.2 1.4,0.1 h 0.5 c 0,-0.2 0.1,-0.5 0.1,-0.9 0.1,-0.6 0.1,-1.2 0.1,-1.8 0,-0.1 0,-0.3 0,-0.4 0,-0.2 0.2,-0.5 0.4,-0.6 0.3,-0.2 0.6,-0.2 0.9,-0.2 0.4,0 0.7,0.1 1,0.3 0.2,0.2 0.4,0.6 0.3,0.9 0,0.2 -0.1,0.7 -0.2,1.4 l -0.1,1 c 0.6,-0.1 1.1,-0.1 1.7,-0.2 0.6,0 0.8,0.3 0.8,0.8 -0.1,0.4 -0.2,0.9 -0.4,1.3 0,0.1 -0.1,0.3 -0.2,0.4 -0.1,0.1 -0.2,0.1 -0.3,0.1 h -0.8 c -0.2,0 -0.5,0 -1,0.1 H 138 l -0.3,2.1 v 0.4 c 0,0.1 0,0.1 0,0.2 v 0.2 c 0,0.2 0,0.3 -0.1,0.5 l -0.2,1.6 c -0.2,1.1 -0.2,2.3 0,3.4 0,0.1 0.1,0.2 0.1,0.3 0,0.2 -0.2,0.5 -0.4,0.6 -0.2,0.2 -0.5,0.3 -0.8,0.3 -0.6,0 -1.2,-0.4 -1.3,-1 -0.3,-1 -0.3,-2.1 -0.1,-3.2 l 0.4,-3.6 c 0,-0.3 0.1,-0.8 0.2,-1.6 m 8.7,0.8 c -0.3,0.8 -0.6,1.5 -0.9,2.3 -0.2,0.7 -0.3,1.4 -0.4,2.1 -0.1,0.5 0,1 0.2,1.5 0.1,0.3 0.5,0.6 0.8,0.5 0.4,0 0.7,-0.2 1,-0.5 0.4,-0.4 0.7,-0.8 1,-1.3 0.3,-0.6 0.5,-1.2 0.7,-1.9 0.2,-0.7 0.3,-1.4 0.4,-2.1 0.1,-0.5 0,-1.1 -0.1,-1.6 -0.1,-0.3 -0.4,-0.6 -0.8,-0.5 -0.2,0 -0.5,0.1 -0.7,0.2 -0.2,0.2 -0.4,0.4 -0.5,0.6 l -0.2,0.4 c -0.1,0.2 -0.2,0.3 -0.4,0.3 0.1,0 0,0 -0.1,0 m 1.3,-3.4 c 0.4,-0.3 0.8,-0.4 1.3,-0.4 0.5,0 0.9,0.1 1.3,0.3 0.4,0.2 0.7,0.6 0.9,0.9 0.3,0.5 0.4,1 0.5,1.5 0.1,0.7 0.1,1.3 0,2 -0.1,1.1 -0.3,2.1 -0.7,3.2 -0.3,1 -0.8,1.8 -1.4,2.7 -0.4,0.6 -1,1.1 -1.6,1.4 -0.6,0.3 -1.2,0.5 -1.9,0.5 -0.7,0 -1.4,-0.2 -1.9,-0.6 -0.5,-0.4 -0.9,-0.9 -1.1,-1.6 -0.2,-0.8 -0.3,-1.6 -0.2,-2.5 0.1,-0.6 0.2,-1.2 0.3,-1.9 0.3,-1.3 0.8,-2.6 1.4,-3.8 0.8,-1.5 1.6,-2.2 2.3,-2.2 0.3,0.2 0.6,0.3 0.8,0.5 m 9.6,9.5 c 0,-0.4 0.2,-0.9 0.5,-1.2 0.2,-0.3 0.5,-0.5 0.9,-0.5 0.3,0 0.5,0.2 0.6,0.4 0.6,1 1.8,1.6 3,1.5 0.7,0 1.4,-0.1 2,-0.3 0.5,-0.2 0.8,-0.5 0.8,-0.9 0,-0.2 -0.1,-0.4 -0.3,-0.6 -0.3,-0.2 -0.6,-0.4 -1,-0.6 l -0.1,-0.1 -0.3,-0.2 c -0.1,-0.1 -0.2,-0.1 -0.3,-0.2 l -0.5,-0.2 -1.4,-0.7 c -0.3,-0.1 -0.5,-0.3 -0.7,-0.4 -0.2,-0.1 -0.4,-0.3 -0.6,-0.5 -0.9,-0.8 -1.4,-2 -1.3,-3.2 0.1,-0.7 0.3,-1.3 0.7,-1.8 0.5,-0.7 1.2,-1.3 1.9,-1.9 1.1,-0.8 2.3,-1.6 3.5,-2.3 0.9,-0.6 1.9,-0.9 3,-1 0.6,0 1.2,0.3 1.5,0.8 0.3,0.8 0.5,1.7 0.3,2.5 0,0.9 -0.3,1.8 -0.7,2.7 -0.3,0.6 -0.9,1 -1.5,1 -0.3,0 -0.5,-0.1 -0.7,-0.3 -0.2,-0.1 -0.3,-0.4 -0.3,-0.6 0,-0.2 0.1,-0.3 0.2,-0.4 0.3,-0.4 0.5,-0.9 0.5,-1.5 0.1,-0.8 -0.1,-1.2 -0.5,-1.2 -1,0.2 -2,0.6 -2.8,1.3 -1.6,1.1 -2.4,2.1 -2.5,2.8 0,0.4 0.2,0.8 0.6,1.1 0.8,0.6 1.7,1.1 2.6,1.5 0.7,0.3 1.3,0.7 1.9,1.1 1,0.5 1.6,1.6 1.6,2.7 -0.1,0.8 -0.5,1.5 -1.1,2 -0.6,0.5 -1.3,0.8 -2.1,1.1 -0.8,0.3 -1.7,0.4 -2.5,0.4 h -0.7 c -0.8,0 -1.6,-0.1 -2.3,-0.4 -0.6,-0.2 -1.1,-0.5 -1.5,-0.9 -0.3,-0.1 -0.5,-0.6 -0.4,-1 m 15.4,-3.6 c 0.9,-0.5 1.7,-1.1 2.3,-1.8 0.5,-0.5 0.9,-1.1 1.1,-1.8 0,-0.1 0,-0.2 -0.1,-0.3 -0.1,-0.1 -0.1,-0.1 -0.2,-0.1 -0.4,0 -0.9,0.4 -1.6,1.2 -0.6,0.9 -1.1,1.8 -1.5,2.8 m -0.6,2.5 c 0,0.4 0.2,0.7 0.4,1 0.3,0.2 0.6,0.4 1,0.3 0.5,0 1,-0.1 1.4,-0.3 0.5,-0.3 1,-0.6 1.4,-1 0.4,-0.4 0.7,-0.8 0.8,-1.4 0,-0.4 0.4,-0.7 0.8,-0.6 0.4,0 0.7,0.1 1,0.4 0.2,0.3 0.4,0.6 0.3,1 -0.2,1.1 -0.9,2.1 -1.8,2.7 -1,1 -2.4,1.5 -3.8,1.6 -0.7,0 -1.5,-0.2 -2.1,-0.5 -0.6,-0.3 -1.1,-0.8 -1.4,-1.5 -0.3,-0.6 -0.4,-1.4 -0.4,-2.1 0.1,-1 0.4,-1.9 0.8,-2.8 0.4,-1 1,-2 1.7,-2.8 0.6,-0.7 1.2,-1.4 2,-1.9 0.6,-0.4 1.2,-0.7 1.9,-0.7 0.7,0 1.3,0.3 1.7,0.8 0.4,0.6 0.6,1.3 0.5,2 -0.1,0.7 -0.3,1.3 -0.6,1.9 -0.4,0.6 -0.8,1.2 -1.4,1.7 -0.6,0.5 -1.3,1 -2,1.4 -0.6,0.3 -1.4,0.6 -2.2,0.8 m 11.1,2.6 c 0,0.3 -0.2,0.5 -0.4,0.7 -0.3,0.2 -0.6,0.3 -0.9,0.3 -0.5,0 -0.9,-0.2 -1.1,-0.6 -0.3,-0.6 -0.4,-1.2 -0.3,-1.9 0,-0.1 0,-0.3 0.1,-0.8 0,-0.1 0,-0.2 0,-0.3 v -0.3 l 0.2,-1.7 0.7,-4.8 0.4,-2.5 0.2,-1.8 c 0,-0.2 0,-0.5 0,-0.7 0,-0.1 -0.1,-0.3 -0.1,-0.4 0,-0.2 0.2,-0.5 0.6,-0.7 0.3,-0.2 0.7,-0.3 1.1,-0.3 0.3,0 0.6,0.1 0.9,0.3 0.2,0.2 0.3,0.5 0.3,0.8 0,0.1 -0.1,0.3 -0.1,0.7 l -0.5,2.4 -0.7,4.8 -0.2,1.8 -0.1,1.1 -0.1,1.1 -0.1,1.5 c 0,0.3 0,0.5 0.1,0.8 l 0.1,0.3 c -0.1,0 -0.1,0.1 -0.1,0.2 m 4.9,0 c 0,0.3 -0.2,0.5 -0.4,0.7 -0.3,0.2 -0.6,0.3 -0.9,0.3 -0.5,0 -0.9,-0.2 -1.1,-0.6 -0.3,-0.6 -0.4,-1.2 -0.3,-1.9 0,-0.1 0,-0.3 0.1,-0.8 0,-0.1 0,-0.2 0,-0.3 v -0.3 l 0.2,-1.7 0.7,-4.8 0.4,-2.5 0.3,-1.8 c 0,-0.2 0,-0.5 0,-0.7 0,-0.1 0,-0.3 -0.1,-0.4 0,-0.2 0.2,-0.5 0.6,-0.7 0.3,-0.2 0.7,-0.3 1.1,-0.3 0.3,0 0.6,0.1 0.9,0.3 0.2,0.2 0.3,0.5 0.3,0.8 0,0.1 0,0.3 -0.1,0.7 l -0.5,2.4 -0.7,4.8 -0.2,1.8 -0.1,1.1 c 0,0.3 -0.1,0.5 -0.1,1.1 l -0.1,1.5 c 0,0.3 0,0.5 0,0.8 l 0.1,0.3 c 0,0.1 0,0.2 0,0.3 m 10.4,-9.3 -0.1,0.5 c 1.3,-0.2 2.5,-0.7 3.6,-1.3 1,-0.6 1.5,-1.1 1.5,-1.7 0,-0.6 -0.4,-0.8 -1.2,-1.2 -1,-0.3 -2,-0.5 -3,-0.5 l -0.1,0.3 -0.7,3.9 m -1.9,-4.1 c -0.3,-0.1 -0.5,-0.3 -0.7,-0.5 -0.1,-0.2 -0.2,-0.4 -0.2,-0.7 0,-0.4 0.2,-0.7 0.5,-1 0.3,-0.2 0.7,-0.4 1.1,-0.4 0.2,-0.2 0.3,-0.3 0.5,-0.4 0.2,-0.1 0.3,-0.1 0.5,-0.1 0.4,0 0.8,0.2 1.1,0.5 1.2,0.1 2.4,0.3 3.5,0.8 0.8,0.3 1.5,0.8 2.1,1.5 0.5,0.6 0.7,1.4 0.6,2.1 -0.1,1.1 -0.7,2 -1.5,2.7 -1.1,0.9 -2.4,1.6 -3.9,2.1 l 0.2,0.3 0.8,1.3 c 0.7,1.3 1.6,2.5 2.5,3.6 0.1,0.1 0.3,0.2 0.4,0.3 0.1,0.1 0.3,0.1 0.4,0.2 0.2,0 0.3,0.1 0.4,0.2 0.1,0.1 0.1,0.3 0.1,0.4 0,0.3 -0.1,0.5 -0.3,0.7 -0.2,0.2 -0.4,0.4 -0.7,0.6 -0.2,0.1 -0.5,0.2 -0.8,0.2 -0.7,0 -1.5,-0.5 -2.4,-1.6 -0.6,-0.7 -1.1,-1.4 -1.6,-2.2 -0.5,-0.7 -1,-1.7 -1.7,-2.9 l -0.1,0.5 -0.2,1.6 c -0.1,0.8 -0.1,1.7 -0.1,2.5 0,0.3 0,0.5 0.1,0.8 0.1,0.2 0.1,0.3 0.1,0.5 -0.1,0.2 -0.2,0.5 -0.5,0.6 -0.3,0.2 -0.6,0.3 -0.9,0.3 -0.4,0 -0.7,-0.1 -1,-0.4 -0.3,-0.3 -0.5,-0.7 -0.5,-1.1 v -1.2 c 0,-0.6 0.1,-1.1 0.1,-2 l 0.4,-3.2 0.6,-3.5 1.1,-3.1 m 13,8.2 c 0.9,-0.5 1.7,-1.1 2.3,-1.8 0.5,-0.5 0.9,-1.1 1.1,-1.8 0,-0.1 0,-0.2 0,-0.3 -0.1,-0.1 -0.1,-0.1 -0.2,-0.1 -0.4,0 -1,0.4 -1.6,1.2 -0.6,0.8 -1.2,1.8 -1.6,2.8 m -0.6,2.5 c 0,0.4 0.2,0.7 0.4,1 0.3,0.2 0.6,0.4 1,0.3 0.5,0 1,-0.1 1.4,-0.3 0.5,-0.3 1,-0.6 1.4,-1 0.4,-0.4 0.7,-0.8 0.8,-1.4 0,-0.4 0.4,-0.7 0.8,-0.6 0.4,0 0.7,0.1 0.9,0.4 0.2,0.3 0.4,0.6 0.3,1 -0.2,1.1 -0.9,2.1 -1.8,2.7 -1,1 -2.4,1.5 -3.8,1.6 -0.7,0 -1.5,-0.2 -2.1,-0.5 -0.6,-0.3 -1.1,-0.8 -1.4,-1.5 -0.3,-0.6 -0.5,-1.4 -0.4,-2.1 0.1,-1 0.4,-1.9 0.8,-2.8 0.4,-1 1,-2 1.7,-2.8 0.6,-0.7 1.2,-1.4 2,-1.9 0.6,-0.4 1.3,-0.7 2,-0.7 0.7,0 1.3,0.3 1.7,0.8 0.4,0.6 0.6,1.3 0.5,2 -0.1,0.7 -0.3,1.3 -0.6,1.9 -0.4,0.6 -0.8,1.2 -1.4,1.7 -0.6,0.5 -1.3,1 -2,1.4 -0.6,0.3 -1.4,0.6 -2.2,0.8 m 13.6,-1.6 v -0.4 c -0.6,0 -1.1,0.2 -1.7,0.4 -0.5,0.2 -1,0.5 -1.4,0.9 -0.3,0.3 -0.5,0.7 -0.6,1.1 0,0.2 0,0.3 0.2,0.5 0.1,0.1 0.3,0.2 0.5,0.2 0.4,0 0.8,-0.1 1.2,-0.3 0.4,-0.2 0.8,-0.4 1.1,-0.7 0.2,-0.2 0.3,-0.3 0.4,-0.6 0.2,-0.4 0.2,-0.7 0.3,-1.1 m -0.4,4 c -0.8,0.6 -1.8,1 -2.8,1 -0.8,0 -1.5,-0.2 -2.1,-0.8 -0.5,-0.5 -0.8,-1.2 -0.7,-1.9 0.1,-0.7 0.3,-1.3 0.7,-1.8 0.4,-0.6 0.9,-1.2 1.5,-1.7 1.2,-0.9 2.6,-1.4 4.1,-1.7 0,-0.3 0.1,-0.5 0.1,-0.6 0.1,-0.4 0,-0.8 -0.1,-1.1 -0.1,-0.2 -0.3,-0.4 -0.5,-0.3 -0.4,0 -0.7,0.2 -1,0.4 -0.4,0.3 -0.7,0.6 -0.9,1.1 -0.2,0.4 -0.6,0.7 -1,0.7 -0.3,0 -0.5,-0.1 -0.7,-0.3 -0.2,-0.2 -0.3,-0.4 -0.3,-0.7 0.1,-0.4 0.2,-0.7 0.5,-1 0.3,-0.4 0.7,-0.9 1.1,-1.2 0.8,-0.7 1.8,-1.2 2.8,-1.2 0.8,0 1.6,0.3 2.1,1 0.5,0.8 0.7,1.7 0.6,2.7 0,0.3 -0.1,0.6 -0.1,1 l -0.1,1.3 -0.1,1.1 c 0,0.1 0,0.4 -0.1,1.2 v 0.4 c 0,0.1 0,0.2 0,0.3 -0.1,0.6 -0.1,1.2 0.1,1.7 l 0.1,0.2 v 0.2 c -0.1,0.4 -0.3,0.7 -0.6,0.9 -0.3,0.3 -0.7,0.4 -1.1,0.5 -0.9,-0.1 -1.3,-0.5 -1.5,-1.4 m 7.6,0.2 c 0,0.3 -0.2,0.5 -0.4,0.7 -0.3,0.2 -0.6,0.3 -0.9,0.3 -0.5,0 -0.9,-0.2 -1.1,-0.6 -0.3,-0.6 -0.4,-1.2 -0.3,-1.9 0,-0.1 0,-0.3 0.1,-0.8 0,-0.1 0,-0.2 0,-0.3 v -0.3 l 0.2,-1.7 0.7,-4.8 0.4,-2.5 0.3,-1.8 c 0,-0.2 0,-0.5 0,-0.7 0,-0.1 0,-0.3 -0.1,-0.4 0,-0.2 0.2,-0.5 0.6,-0.7 0.3,-0.2 0.7,-0.3 1.1,-0.3 0.3,0 0.6,0.1 0.9,0.3 0.2,0.2 0.3,0.5 0.3,0.8 0,0.1 0,0.3 -0.1,0.7 l -0.5,2.4 -0.9,4.8 -0.2,1.8 -0.1,1.1 c 0,0.3 -0.1,0.5 -0.1,1.1 l -0.1,1.5 c 0,0.3 0,0.5 0.1,0.8 l 0.1,0.3 c 0,0 0,0.1 0,0.2 m 10.5,-5.1 h -0.3 l -0.1,0.4 -0.2,1.6 c -0.1,0.3 -0.1,0.7 0,1 0.1,0.2 0.3,0.3 0.6,0.3 0.2,0 0.4,0 0.7,0 h 2.7 c 0.7,-0.1 1.5,0.1 2.1,0.3 0.2,0.1 0.4,0.3 0.5,0.5 0.1,0.2 0.2,0.5 0.1,0.7 0,0.2 -0.1,0.4 -0.2,0.6 -0.1,0.2 -0.2,0.4 -0.4,0.5 -0.1,0.1 -0.3,0.2 -0.4,0.2 h -0.2 l -0.3,-0.1 c -0.7,-0.2 -1.4,-0.2 -2.1,-0.2 l -1.8,0.1 c -1,0 -1.7,0.1 -2,0.1 -0.4,0.1 -0.8,0.1 -1.3,0.1 -0.4,0 -0.8,-0.3 -0.9,-0.7 -0.1,-0.7 -0.1,-1.5 0,-2.2 0,-0.4 0.1,-0.9 0.1,-1.4 0,-0.2 0,-0.3 0.1,-0.4 0.1,-0.1 0,-0.1 0,-0.2 0,-0.1 0,-0.1 0,-0.2 0,0 0,-0.2 0.1,-0.6 v -0.3 c -0.3,-0.4 -0.5,-0.9 -0.5,-1.4 0,-0.2 0.1,-0.4 0.2,-0.5 0.2,-0.2 0.4,-0.3 0.6,-0.4 0.1,-0.5 0.2,-1.1 0.3,-1.7 l 0.6,-3 0.3,-1.3 0.1,-0.3 c -0.2,-0.3 -0.2,-0.7 -0.3,-1 0,-0.6 0.5,-1 1.4,-1.3 1.4,-0.3 2.8,-0.4 4.2,-0.4 0.9,-0.1 1.7,0 2.6,0.3 0.6,0.2 0.9,0.7 0.9,1.3 0,0.3 -0.2,0.7 -0.4,0.9 -0.1,0.2 -0.4,0.4 -0.7,0.4 h -0.1 l -0.3,-0.1 c -0.5,-0.1 -1,-0.2 -1.5,-0.1 h -2 c -0.3,0 -0.6,0.1 -0.9,0.1 -0.2,0 -0.3,0.1 -0.4,0.3 -0.1,0.2 -0.2,0.5 -0.2,0.7 0,0.2 -0.1,0.4 -0.1,0.6 -0.1,0.5 -0.3,1.4 -0.5,2.7 -0.1,0.3 -0.1,0.8 -0.2,1.5 l 2.4,-0.1 c 0.9,-0.1 1.7,0.1 2.5,0.3 0.5,0.2 0.7,0.7 0.6,1.2 0,0.3 -0.1,0.6 -0.4,0.9 -0.1,0.2 -0.4,0.4 -0.6,0.4 -0.1,0 -0.1,0 -0.2,-0.1 -0.2,-0.1 -0.4,-0.1 -0.6,-0.1 -0.4,0 -0.7,-0.1 -1.1,-0.1 l -2.5,0.2 m 7.4,4.2 c 0.1,-0.3 0.2,-0.6 0.4,-0.8 0.2,-0.2 0.4,-0.4 0.7,-0.4 0.2,0 0.3,0.1 0.4,0.2 l 0.3,0.3 c 0.6,0.5 1.4,0.8 2.2,0.7 1.1,0 1.7,-0.2 1.7,-0.5 0,-0.1 -0.1,-0.3 -0.3,-0.4 l -0.2,-0.1 -0.4,-0.2 c -0.1,-0.1 -0.6,-0.3 -1.3,-0.7 -0.7,-0.3 -1.4,-0.7 -2,-1.1 -0.4,-0.3 -0.7,-0.6 -0.9,-1 -0.2,-0.4 -0.2,-0.8 -0.2,-1.2 0.1,-0.6 0.3,-1.1 0.6,-1.6 0.4,-0.6 0.9,-1.1 1.5,-1.5 0.8,-0.6 1.7,-1.1 2.6,-1.4 0.8,-0.3 1.6,-0.5 2.4,-0.5 0.5,0 1,0.2 1.4,0.6 0.3,0.5 0.5,1.2 0.4,1.8 -0.1,0.7 -0.3,1.3 -0.6,1.9 -0.3,0.6 -0.7,0.8 -1.1,0.8 -0.3,0 -0.6,-0.1 -0.7,-0.4 -0.2,-0.2 -0.3,-0.4 -0.3,-0.7 0.1,-0.3 0.2,-0.5 0.3,-0.7 0.1,-0.2 0.2,-0.4 0.3,-0.7 0,-0.3 -0.1,-0.4 -0.4,-0.4 -0.4,0 -0.8,0.2 -1.1,0.3 -0.5,0.2 -0.9,0.5 -1.3,0.8 -0.7,0.6 -1.1,1 -1.1,1.4 0,0.2 0.1,0.5 0.3,0.6 0.5,0.3 1,0.6 1.5,0.8 0.9,0.4 1.8,0.9 2.6,1.5 0.5,0.4 0.7,1 0.6,1.6 -0.1,0.9 -0.6,1.7 -1.4,2.1 -1,0.6 -2.1,0.8 -3.2,0.8 -1,0 -1.9,-0.2 -2.8,-0.6 -0.6,-0.3 -1,-0.8 -0.9,-1.3 m 12.3,-7.4 c -0.4,0 -0.7,0 -1.1,-0.1 -0.2,0 -0.3,-0.1 -0.5,-0.2 -0.4,-0.3 -0.6,-0.8 -0.5,-1.2 0,-0.3 0.1,-0.6 0.2,-0.8 0.1,-0.2 0.3,-0.3 0.4,-0.3 0,0 0.1,0 0.1,0 0.4,0.1 0.9,0.2 1.4,0.1 h 0.5 c 0,-0.2 0,-0.5 0.1,-0.9 0,-0.6 0,-1.2 0,-1.8 0,-0.1 0,-0.3 0,-0.4 0,-0.2 0.2,-0.5 0.4,-0.6 0.3,-0.2 0.6,-0.2 0.9,-0.2 0.4,0 0.7,0.1 1,0.3 0.2,0.2 0.4,0.6 0.3,0.9 0,0.2 -0.1,0.7 -0.2,1.4 l -0.1,1 c 0.6,-0.1 1.2,-0.1 1.8,-0.2 0.5,0 0.8,0.3 0.7,0.8 -0.1,0.4 -0.2,0.9 -0.3,1.3 0,0.1 -0.1,0.3 -0.2,0.4 -0.1,0.1 -0.2,0.1 -0.3,0.1 h -0.8 c -0.2,0 -0.5,0 -1,0.1 h -0.2 l -0.3,2.1 v 0.8 c 0,0.1 0,0.3 -0.1,0.5 l -0.2,1.6 c -0.2,1.1 -0.2,2.3 0,3.4 0,0.1 0.1,0.2 0.1,0.3 0,0.2 -0.2,0.5 -0.4,0.6 -0.2,0.2 -0.5,0.3 -0.8,0.3 -0.6,0 -1.2,-0.4 -1.3,-1 -0.2,-1 -0.3,-2.1 -0.1,-3.2 0,-0.6 0.2,-1.8 0.4,-3.6 0,-0.2 0.1,-0.7 0.1,-1.5 m 10.6,4.1 v -0.4 c -0.6,0 -1.1,0.2 -1.7,0.4 -0.5,0.2 -1,0.5 -1.4,0.9 -0.3,0.3 -0.5,0.7 -0.6,1.1 0,0.2 0,0.3 0.2,0.5 0.2,0.1 0.3,0.2 0.5,0.2 0.4,0 0.8,-0.1 1.2,-0.3 0.4,-0.2 0.8,-0.4 1.1,-0.7 0.2,-0.2 0.3,-0.3 0.3,-0.6 0.3,-0.4 0.4,-0.7 0.4,-1.1 m -0.4,4 c -0.8,0.6 -1.8,1 -2.8,1 -0.8,0 -1.5,-0.2 -2.1,-0.8 -0.5,-0.5 -0.8,-1.2 -0.7,-1.9 0.1,-0.7 0.3,-1.3 0.7,-1.8 0.4,-0.6 0.9,-1.2 1.5,-1.7 1.2,-0.9 2.6,-1.4 4.1,-1.7 0,-0.3 0.1,-0.5 0.1,-0.6 0.1,-0.4 0,-0.8 -0.1,-1.1 -0.1,-0.2 -0.3,-0.4 -0.5,-0.3 -0.4,0 -0.7,0.2 -1,0.4 -0.4,0.3 -0.7,0.6 -0.9,1.1 -0.2,0.4 -0.6,0.7 -1,0.7 -0.3,0 -0.5,-0.1 -0.7,-0.3 -0.2,-0.2 -0.3,-0.5 -0.3,-0.7 0.1,-0.4 0.2,-0.7 0.5,-1 0.3,-0.4 0.7,-0.8 1.1,-1.2 0.8,-0.7 1.8,-1.2 2.8,-1.2 0.8,0 1.6,0.3 2.1,1 0.5,0.8 0.7,1.7 0.6,2.7 0,0.3 -0.1,0.6 -0.1,1 l -0.1,1.3 -0.1,1.1 c 0,0.1 0,0.4 -0.1,1.2 v 0.4 c 0,0.1 0,0.2 0,0.3 -0.1,0.6 -0.1,1.2 0.1,1.7 l 0.1,0.2 v 0.2 c -0.1,0.4 -0.3,0.7 -0.6,0.9 -0.3,0.3 -0.7,0.4 -1.1,0.5 -0.9,-0.1 -1.3,-0.5 -1.5,-1.4 m 7,-8.1 c -0.4,0 -0.7,0 -1.1,-0.1 -0.2,0 -0.3,-0.1 -0.5,-0.2 -0.4,-0.3 -0.6,-0.8 -0.5,-1.2 0,-0.3 0.1,-0.6 0.2,-0.8 0.1,-0.2 0.3,-0.3 0.4,-0.3 0,0 0.1,0 0.1,0 0.4,0.1 0.9,0.2 1.4,0.1 h 0.5 c 0,-0.2 0,-0.5 0.1,-0.9 0.1,-0.6 0.1,-1.2 0,-1.8 0,-0.1 0,-0.3 0,-0.4 0,-0.2 0.2,-0.5 0.4,-0.6 0.3,-0.2 0.6,-0.2 0.9,-0.2 0.4,0 0.7,0.1 1,0.3 0.2,0.2 0.4,0.6 0.3,0.9 0,0.2 -0.1,0.7 -0.2,1.4 l -0.1,1 c 0.6,-0.1 1.1,-0.1 1.7,-0.2 0.5,0 0.8,0.3 0.8,0.8 -0.1,0.4 -0.2,0.9 -0.4,1.3 0,0.1 -0.1,0.3 -0.2,0.4 -0.1,0.1 -0.2,0.1 -0.3,0.1 h -0.8 c -0.2,0 -0.5,0 -1,0.1 h -0.2 l -0.3,2.1 v 0.4 c 0,0.1 0,0.1 0,0.2 v 0.2 c 0,0.2 0,0.3 0,0.5 l -0.2,1.6 c -0.2,1.1 -0.2,2.3 0,3.4 0,0.1 0.1,0.2 0.1,0.3 0,0.2 -0.2,0.5 -0.4,0.6 -0.2,0.2 -0.5,0.3 -0.8,0.3 -0.6,0 -1.2,-0.4 -1.3,-1 -0.3,-1 -0.4,-2.1 -0.2,-3.2 0,-0.6 0.2,-1.8 0.5,-3.6 -0.1,-0.2 0,-0.7 0.1,-1.5 m 8.1,3.2 c 0.9,-0.5 1.7,-1.1 2.3,-1.8 0.5,-0.5 0.9,-1.1 1.1,-1.8 0,-0.1 0,-0.2 0,-0.3 -0.1,-0.1 -0.1,-0.1 -0.2,-0.1 -0.4,0 -1,0.4 -1.6,1.2 -0.6,0.9 -1.2,1.8 -1.6,2.8 m -0.6,2.5 c 0,0.4 0.2,0.7 0.5,1 0.3,0.2 0.6,0.4 1,0.3 0.5,0 1,-0.1 1.4,-0.3 0.5,-0.3 1,-0.6 1.4,-1 0.4,-0.4 0.7,-0.8 0.8,-1.4 0,-0.4 0.4,-0.7 0.8,-0.6 0.4,0 0.7,0.1 1,0.4 0.2,0.3 0.4,0.6 0.3,1 -0.2,1.1 -0.9,2.1 -1.8,2.7 -1,1 -2.4,1.5 -3.8,1.6 -0.7,0 -1.5,-0.2 -2.1,-0.5 -0.6,-0.3 -1.1,-0.8 -1.4,-1.5 -0.3,-0.6 -0.5,-1.4 -0.4,-2.1 0.1,-1 0.4,-1.9 0.8,-2.8 0.4,-1 1,-2 1.7,-2.8 0.6,-0.7 1.2,-1.4 2,-1.9 0.6,-0.4 1.3,-0.7 2,-0.7 0.7,0 1.3,0.3 1.7,0.8 0.4,0.6 0.6,1.3 0.5,2 -0.1,0.7 -0.3,1.3 -0.6,1.9 -0.4,0.6 -0.8,1.2 -1.4,1.7 -0.6,0.5 -1.3,1 -2,1.4 -0.7,0.3 -1.5,0.6 -2.4,0.8 m 8.3,2.2 c 0.1,-0.5 0.3,-1 0.8,-1.2 0.5,-0.3 1.1,-0.5 1.6,-0.5 0.3,0 0.6,0.1 0.8,0.2 0.2,0.1 0.4,0.3 0.6,0.5 0.1,0.2 0.2,0.5 0.1,0.7 -0.1,0.5 -0.3,1 -0.8,1.3 -0.5,0.4 -1,0.5 -1.6,0.5 -0.4,0 -0.8,-0.1 -1.2,-0.4 -0.2,-0.3 -0.3,-0.7 -0.3,-1.1"
         class="st0"
         inkscape:connector-curvature="0"
         style="fill:#131016" />
      <g
         id="g3718">
        <path
           d="m 303.6,63.7 c 0.3,0 0.6,0 0.9,-0.2 0.2,-0.1 0.3,-0.3 0.3,-0.7 0,-0.1 0,-0.3 -0.1,-0.4 -0.1,-0.1 -0.2,-0.2 -0.3,-0.2 -0.1,-0.1 -0.3,-0.1 -0.4,-0.1 h -1.4 v 1.6 z m 0,-2.6 c 0.6,0 1.2,0.1 1.8,0.4 0.4,0.3 0.7,0.9 0.6,1.4 0,0.2 0,0.5 -0.1,0.7 -0.1,0.2 -0.2,0.4 -0.4,0.5 -0.1,0.1 -0.3,0.2 -0.5,0.3 -0.2,0.1 -0.4,0.1 -0.6,0.1 l 1.6,2.7 h -1.3 l -1.5,-2.7 h -0.8 v 2.6 h -1.2 v -6.2 z m -3.9,4.9 c 0.2,0.5 0.5,1 0.9,1.4 0.4,0.4 0.8,0.7 1.3,0.9 1,0.4 2.2,0.4 3.2,0 0.5,-0.2 0.9,-0.5 1.3,-0.9 0.8,-0.8 1.2,-2 1.2,-3.1 0,-1.2 -0.4,-2.3 -1.2,-3.1 -0.4,-0.4 -0.8,-0.7 -1.3,-0.9 -1,-0.4 -2.2,-0.4 -3.2,0 -0.5,0.2 -0.9,0.5 -1.3,0.9 -0.4,0.4 -0.7,0.9 -0.9,1.4 -0.2,0.6 -0.3,1.1 -0.3,1.7 -0.1,0.5 0.1,1.1 0.3,1.7 m -1.4,-4 c 0.3,-0.7 0.7,-1.2 1.2,-1.7 0.5,-0.5 1.1,-0.9 1.8,-1.1 1.4,-0.5 2.9,-0.5 4.2,0 0.7,0.3 1.3,0.6 1.8,1.1 0.5,0.5 0.9,1.1 1.2,1.7 0.6,1.5 0.6,3.1 0,4.6 -0.3,0.7 -0.7,1.2 -1.2,1.7 -0.5,0.5 -1.1,0.9 -1.8,1.1 -1.4,0.5 -2.9,0.5 -4.2,0 -0.7,-0.2 -1.3,-0.6 -1.8,-1.1 -0.5,-0.5 -0.9,-1.1 -1.2,-1.7 -0.6,-1.5 -0.6,-3.2 0,-4.6"
           class="st0"
           id="B"
           inkscape:connector-curvature="0"
           style="fill:#131016" />
      </g>
      <path
         id="path3720"
         d="m 296.9,44.7 c -0.4,0.4 -1,0.7 -1.6,0.8 -0.5,0.1 -1,0 -1.4,-0.2 -0.4,-0.2 -0.6,-0.6 -0.7,-1 -0.1,-0.4 0,-0.8 0.1,-1.1 0.1,-0.4 0.4,-0.8 0.7,-1.1 0.6,-0.6 1.4,-1.1 2.2,-1.4 v -0.4 c 0,-0.2 -0.1,-0.5 -0.2,-0.7 -0.1,-0.1 -0.2,-0.2 -0.4,-0.1 -0.2,0 -0.4,0.2 -0.5,0.3 -0.2,0.2 -0.3,0.4 -0.4,0.7 -0.1,0.3 -0.3,0.5 -0.5,0.5 -0.2,0 -0.3,0 -0.5,-0.1 -0.1,-0.1 -0.2,-0.2 -0.3,-0.4 0,-0.2 0,-0.4 0.1,-0.6 0.1,-0.3 0.3,-0.5 0.5,-0.8 0.4,-0.5 0.9,-0.9 1.5,-1 0.5,-0.1 1,0 1.4,0.4 0.4,0.4 0.7,0.9 0.8,1.5 0,0.2 0,0.3 0.1,0.6 L 298,42 c 0,0 0,0.3 0.1,0.7 v 0.4 c 0,0.4 0.1,0.7 0.3,1 l 0.1,0.1 c 0,0 0,0.1 0,0.1 0,0.2 -0.1,0.4 -0.3,0.6 -0.2,0.2 -0.4,0.3 -0.6,0.4 -0.1,0.1 -0.4,-0.1 -0.7,-0.6 z m -0.3,-2.4 V 42 c -0.4,0.1 -0.7,0.2 -1,0.4 -0.3,0.2 -0.5,0.4 -0.7,0.7 -0.2,0.2 -0.2,0.5 -0.2,0.7 0,0.1 0.1,0.2 0.2,0.3 0.1,0.1 0.2,0.1 0.4,0.1 0.2,-0.1 0.5,-0.2 0.7,-0.3 0.2,-0.1 0.4,-0.3 0.6,-0.5 0.1,-0.1 0.1,-0.2 0.1,-0.3 0,-0.3 -0.1,-0.5 -0.1,-0.8 z m 5,-2.6 v 0.2 c 0,-0.1 0.1,-0.1 0,-0.2 0.3,-0.7 0.5,-1.4 0.9,-2 0.2,-0.4 0.5,-0.6 0.9,-0.7 0.3,0 0.5,0.1 0.7,0.3 0.3,0.3 0.5,0.7 0.6,1 0.2,0.6 0.3,1.2 0.4,1.8 0.1,0.8 0.2,1.4 0.2,2 0,0.5 0,0.9 0,1.4 0,0.4 -0.2,0.7 -0.6,0.8 -0.2,0 -0.4,0 -0.6,-0.1 -0.2,-0.1 -0.3,-0.2 -0.3,-0.4 0,-0.1 0,-0.2 0,-0.3 0,-0.3 0,-0.7 0,-1 0,-0.4 -0.1,-0.8 -0.1,-1.2 -0.2,-1.1 -0.3,-1.6 -0.5,-1.6 -0.1,0 -0.3,0.2 -0.4,0.6 -0.3,0.6 -0.5,1.2 -0.6,1.9 -0.1,0.5 -0.2,1.1 -0.1,1.6 l 0.1,0.4 c 0,0.2 -0.1,0.3 -0.2,0.4 -0.1,0.1 -0.3,0.2 -0.5,0.3 -0.5,0.1 -0.8,-0.3 -0.9,-1 0,-0.3 -0.1,-0.6 -0.1,-1.1 l -0.1,-1 c 0,-0.2 0,-0.6 -0.1,-1 L 300,39 c 0,-0.3 -0.1,-0.6 -0.3,-0.8 0,-0.1 -0.1,-0.1 -0.1,-0.2 0,-0.2 0.1,-0.3 0.2,-0.4 0.2,-0.2 0.4,-0.2 0.6,-0.3 0.2,-0.1 0.5,0 0.6,0.2 0.2,0.2 0.3,0.5 0.3,0.8 0,0.2 0.1,0.4 0.1,0.6 l 0.1,0.6 c 0,0 0.1,0.1 0.1,0.2 z m 8.8,-3.4 c 0,-0.7 0,-1.3 -0.1,-2 0,0 0,-0.1 0,-0.1 V 34 c 0,-0.2 0,-0.3 0.1,-0.4 0.1,-0.1 0.3,-0.2 0.5,-0.2 0.2,0 0.5,0 0.7,0.1 0.2,0.1 0.3,0.3 0.3,0.5 0,0.2 0,0.5 0,0.7 0,0.1 0,0.3 0,0.4 v 1.1 c 0,0.8 0.1,1.4 0.1,1.9 l 0.2,1.4 c 0.1,0.8 0.3,1.6 0.7,2.4 0,0.1 0.1,0.2 0.1,0.3 0,0.2 -0.1,0.3 -0.2,0.4 -0.1,0.1 -0.3,0.2 -0.5,0.3 -0.1,0 -0.3,0 -0.4,-0.1 -0.1,-0.1 -0.3,-0.2 -0.4,-0.3 -0.1,-0.3 -0.3,-0.6 -0.3,-0.9 -0.1,0.3 -0.2,0.5 -0.3,0.8 -0.1,0.2 -0.3,0.4 -0.4,0.6 -0.1,0.2 -0.3,0.3 -0.5,0.4 -0.2,0.1 -0.4,0.2 -0.6,0.2 -0.4,0.1 -0.7,0 -1,-0.2 -0.3,-0.2 -0.6,-0.5 -0.8,-0.8 -0.2,-0.4 -0.4,-0.8 -0.5,-1.3 -0.1,-0.6 -0.1,-1.1 0,-1.7 0.1,-0.6 0.2,-1.2 0.4,-1.7 0.2,-0.5 0.4,-0.9 0.7,-1.3 0.3,-0.3 0.6,-0.5 1,-0.6 0.4,-0.1 0.9,0 1.2,0.3 z m -0.1,2.2 c 0,-0.3 -0.1,-0.6 -0.3,-0.9 -0.1,-0.2 -0.3,-0.3 -0.5,-0.3 -0.4,0 -0.6,0.6 -0.8,1.6 -0.2,0.8 -0.2,1.5 -0.1,2.3 0.1,0.6 0.3,0.9 0.6,0.9 0.2,-0.1 0.4,-0.2 0.5,-0.4 0.2,-0.3 0.3,-0.5 0.4,-0.8 0.1,-0.4 0.2,-0.8 0.3,-1.3 0,-0.3 0,-0.7 -0.1,-1.1 z m 10.7,-15.2 0.2,0.3 0.1,-0.3 1.5,-3.3 0.9,-1.6 c 0.1,-0.2 0.3,-0.4 0.5,-0.6 0.1,-0.1 0.3,-0.2 0.5,-0.2 0.2,0 0.4,0 0.6,0 0.2,0 0.4,0.1 0.5,0.3 0.1,0.1 0.2,0.2 0.2,0.4 0,0.1 0,0.2 0,0.3 0,0.6 0,1.1 0,1.7 0,0.4 0.1,1.1 0.2,2.2 0.1,0.7 0.1,1.4 0.2,2.3 l 0.3,2.1 0.2,1 0.1,0.5 c 0,0.1 0.1,0.2 0.1,0.3 l 0.1,0.2 c 0,0.1 0.1,0.2 0.1,0.2 0,0.2 -0.1,0.4 -0.2,0.5 -0.2,0.2 -0.4,0.3 -0.6,0.3 -0.2,0.1 -0.4,0.1 -0.6,0 -0.2,-0.1 -0.3,-0.2 -0.5,-0.4 -0.3,-0.7 -0.5,-1.4 -0.5,-2.1 l -0.4,-2.6 -0.3,-2.7 v -0.4 c -0.3,0.6 -0.8,1.6 -1.3,2.9 -0.1,0.3 -0.3,0.7 -0.4,1 -0.1,0.2 -0.1,0.5 -0.1,0.8 0,0.2 0,0.4 -0.1,0.5 -0.1,0.1 -0.3,0.2 -0.4,0.2 -0.2,0.1 -0.4,0.1 -0.7,0 -0.2,-0.1 -0.4,-0.2 -0.5,-0.4 -0.2,-0.3 -0.4,-0.7 -0.6,-1 l -0.3,-0.6 -0.4,-0.7 -0.5,-0.9 -0.3,-0.5 v 0 l -0.1,-0.1 0.2,2.4 0.3,2.1 0.3,1.7 c 0.1,0.3 0.1,0.6 0.3,0.9 l 0.1,0.3 c 0,0.1 0.1,0.1 0.1,0.2 0,0.2 -0.1,0.4 -0.2,0.5 -0.2,0.2 -0.4,0.3 -0.7,0.3 -0.6,0.1 -1,-0.2 -1.2,-1 -0.1,-0.4 -0.2,-0.8 -0.3,-1.2 l -0.4,-2.2 -0.3,-2 -0.1,-1.4 -0.1,-1 c -0.1,-0.9 -0.1,-1.9 -0.1,-2.8 0,-0.2 0.2,-0.4 0.4,-0.6 0.2,-0.2 0.4,-0.3 0.6,-0.3 0.4,-0.1 0.9,0.1 1.3,0.3 0.1,0.1 0.2,0.1 0.2,0.2 0.1,0.2 0.2,0.3 0.2,0.5 l 0.7,1.5 0.5,1 c 0.2,0.1 0.4,0.6 0.7,1 z m 10.4,-2.9 c 0.2,-0.2 0.5,-0.4 0.8,-0.4 0.3,-0.1 0.6,0 1,0.1 0.3,0.1 0.6,0.3 0.8,0.6 0.3,0.3 0.5,0.6 0.6,1 0.2,0.4 0.3,0.9 0.4,1.4 0.1,0.8 0.1,1.5 0.1,2.3 -0.1,0.7 -0.2,1.4 -0.5,2 -0.2,0.5 -0.5,0.9 -0.9,1.2 -0.7,0.6 -1.8,0.8 -2.7,0.4 -0.4,-0.2 -0.8,-0.6 -1.1,-1 -0.3,-0.5 -0.5,-1.1 -0.6,-1.7 -0.1,-0.4 -0.1,-0.9 -0.1,-1.3 0,-0.5 0,-0.9 0.1,-1.4 0,-0.5 0.1,-0.9 0.3,-1.4 0.3,-1.1 0.7,-1.7 1.2,-1.8 0.2,-0.3 0.4,-0.2 0.6,0 z m -0.3,2.5 c -0.1,0.6 -0.2,1.2 -0.2,1.7 0,0.5 0,1 0.1,1.5 0,0.4 0.2,0.7 0.4,1 0.1,0.2 0.4,0.3 0.7,0.3 0.3,-0.1 0.5,-0.2 0.6,-0.4 0.2,-0.3 0.4,-0.6 0.5,-1 0.1,-0.5 0.2,-0.9 0.2,-1.4 0,-0.5 0,-1 -0.1,-1.5 0,-0.4 -0.2,-0.8 -0.4,-1.1 -0.1,-0.2 -0.4,-0.3 -0.6,-0.3 -0.2,0 -0.3,0.1 -0.4,0.2 -0.1,0.1 -0.2,0.3 -0.3,0.5 l -0.1,0.3 c 0,0.1 -0.1,0.2 -0.2,0.3 -0.2,-0.1 -0.2,-0.1 -0.2,-0.1 z m 7.5,-2.4 v 0.1 c 0.5,-0.9 1.4,-1.5 2.4,-1.7 0.3,-0.1 0.6,0 0.8,0.1 0.2,0.1 0.4,0.4 0.4,0.6 0,0.3 0,0.6 -0.2,0.9 -0.1,0.3 -0.3,0.4 -0.6,0.5 h -0.6 c -0.3,0.1 -0.6,0.2 -0.8,0.5 -0.3,0.3 -0.5,0.6 -0.6,1 -0.2,0.4 -0.2,0.8 -0.3,1.3 0,0.5 0,1.1 0.1,1.6 0,0.3 0.1,0.6 0.2,0.9 0.1,0.2 0.2,0.4 0.3,0.6 0.1,0.1 0.1,0.2 0.1,0.3 0,0.2 -0.1,0.4 -0.2,0.5 -0.2,0.2 -0.4,0.3 -0.6,0.3 -0.2,0.1 -0.5,0 -0.7,-0.1 -0.2,-0.2 -0.4,-0.5 -0.5,-0.8 -0.2,-0.6 -0.3,-1.1 -0.4,-1.7 l -0.2,-1.3 -0.1,-1.4 -0.3,-2 c 0,-0.2 -0.1,-0.5 -0.2,-0.7 0,-0.1 -0.1,-0.2 -0.1,-0.3 0,-0.2 0.1,-0.4 0.2,-0.5 0.2,-0.2 0.4,-0.3 0.7,-0.3 0.5,-0.1 0.9,0.1 0.9,0.6 v 0.1 c 0,0 0,0.1 0,0.1 v 0.5 c 0,0.1 0,0.2 0,0.3 0.3,-0.1 0.3,0 0.3,0 z m 6.6,-0.4 c -0.4,0 -0.7,0.1 -0.8,0.1 -0.1,0 -0.3,0 -0.4,0 -0.3,-0.1 -0.6,-0.5 -0.6,-0.8 0,-0.2 0,-0.4 0,-0.6 0,-0.2 0.1,-0.3 0.2,-0.3 h 0.1 c 0.3,0 0.7,0 1,0 l 0.4,-0.1 c 0,-0.1 0,-0.3 -0.1,-0.6 -0.1,-0.4 -0.1,-0.8 -0.3,-1.2 0,-0.1 -0.1,-0.2 -0.1,-0.3 0,-0.2 0,-0.3 0.2,-0.4 0.2,-0.1 0.4,-0.2 0.6,-0.3 0.3,-0.1 0.5,0 0.8,0.1 0.2,0.1 0.3,0.4 0.4,0.6 0,0.1 0.1,0.5 0.1,1 0,0.3 0,0.5 0.1,0.7 0.4,-0.1 0.8,-0.2 1.1,-0.3 0.3,-0.1 0.6,0.1 0.6,0.4 0,0 0,0.1 0,0.1 0,0.3 0,0.6 0,1 0,0.1 0,0.2 -0.1,0.3 0,0.1 -0.1,0.1 -0.2,0.1 h -0.5 l -0.7,0.1 h -0.1 c 0,0.5 0.1,1 0.2,1.5 v 0.3 c 0,0 0,0.1 0,0.1 0,0 0,0.1 0,0.1 V 22 l 0.2,1.1 c 0.1,0.8 0.3,1.6 0.6,2.4 0,0.1 0.1,0.1 0.1,0.2 0,0.2 -0.1,0.3 -0.2,0.5 -0.1,0.2 -0.3,0.2 -0.5,0.3 -0.4,0 -0.8,-0.2 -1,-0.5 -0.4,-0.7 -0.6,-1.5 -0.6,-2.2 l -0.3,-2.6 c -0.2,-0.1 -0.2,-0.6 -0.2,-1.1 z m 9.1,-3.3 c 0.1,-0.1 0.2,-0.3 0.3,-0.4 0.1,-0.1 0.2,-0.1 0.3,-0.2 0.3,0 0.5,0 0.7,0.2 0.2,0.1 0.4,0.3 0.4,0.5 0,0.1 0,0.1 0,0.2 v 0.3 c 0,0.7 0,1.3 0.1,2 l 0.4,3.1 c 0,0.2 0.1,0.4 0.1,0.6 l 0.1,0.8 c 0.1,0.6 0.2,1.2 0.1,1.8 0,0.5 -0.2,0.9 -0.4,1.3 -0.2,0.3 -0.4,0.6 -0.6,0.8 -0.3,0.3 -0.6,0.5 -1,0.6 -0.3,0.2 -0.7,0.3 -1.1,0.3 -0.6,0.1 -1.3,0.1 -1.9,-0.2 -0.5,-0.1 -0.9,-0.5 -1,-1 0,-0.3 0,-0.5 0.1,-0.7 0.1,-0.2 0.2,-0.4 0.5,-0.4 0.1,0 0.2,0 0.3,0.1 0.3,0.2 0.6,0.4 1,0.5 0.3,0.1 0.6,0.1 0.8,0 0.5,-0.1 1,-0.4 1.2,-0.9 0.3,-0.5 0.4,-1.2 0.2,-1.8 0,-0.3 -0.1,-0.5 -0.2,-0.8 -0.1,0.5 -0.4,0.9 -0.7,1.3 -0.2,0.3 -0.6,0.5 -0.9,0.5 -0.6,0.1 -1.3,-0.2 -1.7,-0.6 -0.5,-0.6 -0.9,-1.3 -0.9,-2.1 -0.1,-0.7 -0.1,-1.5 0,-2.2 0.1,-0.7 0.2,-1.4 0.5,-2.1 0.5,-1.1 1.1,-1.8 1.9,-1.9 0.6,0 1,0.1 1.4,0.4 z m 0,2.7 c -0.2,-1 -0.4,-1.4 -0.9,-1.4 -0.2,0 -0.3,0.1 -0.4,0.3 -0.1,0.2 -0.3,0.4 -0.3,0.6 -0.3,1.1 -0.4,2.3 -0.3,3.5 0.1,0.8 0.4,1.1 0.8,1 0.3,-0.1 0.5,-0.3 0.6,-0.5 0.2,-0.4 0.3,-0.8 0.4,-1.2 0,-0.4 0.1,-0.8 0.1,-1.3 0.1,-0.3 0.1,-0.7 0,-1 z m 8.6,3.8 c -0.5,0.5 -1.1,0.9 -1.8,1 -0.6,0.1 -1.1,0 -1.6,-0.3 -0.4,-0.3 -0.8,-0.7 -0.8,-1.2 -0.1,-0.5 0,-0.9 0.1,-1.4 0.2,-0.5 0.4,-0.9 0.8,-1.3 0.7,-0.7 1.6,-1.3 2.5,-1.6 0,-0.2 0,-0.3 -0.1,-0.5 0,-0.3 -0.1,-0.5 -0.2,-0.8 -0.1,-0.1 -0.3,-0.2 -0.4,-0.2 -0.2,0.1 -0.4,0.2 -0.6,0.4 -0.2,0.2 -0.3,0.5 -0.4,0.8 0,0.3 -0.3,0.6 -0.6,0.6 -0.2,0 -0.4,0 -0.6,-0.1 -0.2,-0.1 -0.3,-0.3 -0.3,-0.5 0,-0.3 0,-0.5 0.1,-0.8 0.1,-0.3 0.3,-0.7 0.5,-0.9 0.4,-0.6 1,-1 1.7,-1.2 0.6,-0.1 1.2,0.1 1.6,0.5 0.5,0.5 0.8,1.1 0.9,1.8 0,0.2 0.1,0.4 0.1,0.7 l 0.1,0.9 0.1,0.8 c 0,0 0,0.3 0.1,0.8 v 0.3 0.2 c 0,0.4 0.1,0.8 0.4,1.2 l 0.1,0.1 c 0,0 0,0.1 0,0.1 0,0.3 -0.1,0.5 -0.3,0.7 -0.2,0.2 -0.4,0.4 -0.7,0.4 -0.1,0.3 -0.4,0 -0.7,-0.5 z m -0.4,-2.9 v -0.3 c -0.4,0.1 -0.8,0.3 -1.1,0.5 -0.3,0.2 -0.6,0.5 -0.8,0.8 -0.2,0.3 -0.2,0.6 -0.2,0.9 0,0.1 0.1,0.2 0.2,0.3 0.1,0.1 0.3,0.1 0.4,0.1 0.3,-0.1 0.6,-0.2 0.8,-0.4 0.3,-0.2 0.5,-0.4 0.7,-0.6 0.1,-0.1 0.1,-0.3 0.1,-0.4 0,-0.4 0,-0.6 -0.1,-0.9 z m 7.8,-6.2 c 0.1,-0.1 0.1,-0.3 0.3,-0.4 0.1,-0.1 0.2,-0.1 0.3,-0.2 0.3,0 0.5,0 0.7,0.2 0.2,0.1 0.4,0.3 0.4,0.5 0,0.1 0,0.1 0,0.2 v 0.3 c 0,0.7 0,1.3 0.1,2 l 0.4,3.1 c 0,0.2 0.1,0.4 0.1,0.6 l 0.1,0.8 c 0.1,0.6 0.2,1.2 0.1,1.8 0,0.5 -0.2,0.9 -0.4,1.3 -0.2,0.3 -0.4,0.6 -0.6,0.8 -0.3,0.3 -0.6,0.5 -1,0.6 -0.3,0.2 -0.7,0.3 -1.1,0.3 -0.6,0.1 -1.3,0.1 -1.9,-0.2 -0.5,-0.1 -0.9,-0.5 -1,-1 0,-0.3 0,-0.5 0.1,-0.7 0.1,-0.2 0.3,-0.4 0.5,-0.4 0.1,0 0.2,0 0.3,0.1 0.3,0.2 0.6,0.4 1,0.5 0.3,0.1 0.6,0.1 0.8,0 0.5,-0.1 1,-0.4 1.2,-0.9 0.3,-0.5 0.4,-1.2 0.2,-1.8 l -0.2,-0.8 c -0.2,0.5 -0.4,0.9 -0.7,1.3 -0.2,0.3 -0.6,0.5 -0.9,0.5 -0.6,0.1 -1.3,-0.2 -1.7,-0.6 -0.5,-0.6 -0.9,-1.3 -0.9,-2.1 -0.1,-0.7 -0.1,-1.5 0,-2.2 0.1,-0.7 0.2,-1.4 0.5,-2.1 0.5,-1.1 1.1,-1.8 1.9,-1.9 0.6,0.1 1,0.2 1.4,0.4 z m 0,2.7 c -0.2,-1 -0.4,-1.4 -0.9,-1.4 -0.2,0 -0.3,0.1 -0.4,0.3 -0.1,0.2 -0.3,0.4 -0.3,0.6 -0.3,1.1 -0.4,2.3 -0.3,3.5 0.1,0.8 0.4,1.1 0.8,1 0.3,-0.1 0.5,-0.3 0.6,-0.5 0.2,-0.4 0.3,-0.8 0.4,-1.2 0.1,-0.4 0.1,-0.9 0.1,-1.3 0.1,-0.3 0,-0.6 0,-1 z m 6.2,2.4 c 0.1,0.3 0.3,0.5 0.5,0.7 0.2,0.1 0.5,0.2 0.8,0.1 0.3,-0.1 0.6,-0.2 0.9,-0.4 0.3,-0.2 0.6,-0.5 0.8,-0.8 0.2,-0.3 0.3,-0.6 0.3,-1 0,-0.2 0.1,-0.5 0.4,-0.5 0,0 0,0 0.1,0 0.3,-0.1 0.5,0 0.7,0.2 0.2,0.2 0.3,0.4 0.4,0.6 0,0.8 -0.2,1.5 -0.8,2.1 -0.6,0.8 -1.4,1.3 -2.4,1.5 -0.5,0.1 -1,0 -1.5,-0.1 -0.5,-0.2 -0.9,-0.5 -1.2,-0.9 -0.3,-0.4 -0.5,-0.9 -0.6,-1.4 -0.1,-0.7 -0.1,-1.4 0.1,-2.1 0.1,-0.8 0.4,-1.5 0.7,-2.2 0.3,-0.6 0.6,-1.1 1,-1.6 0.3,-0.4 0.8,-0.6 1.2,-0.7 0.5,-0.1 0.9,0.1 1.3,0.4 0.4,0.3 0.6,0.8 0.7,1.3 0.1,0.5 0,0.9 -0.1,1.4 -0.1,0.5 -0.4,0.9 -0.6,1.4 -0.3,0.4 -0.7,0.9 -1.1,1.2 -0.6,0.3 -1.1,0.6 -1.6,0.8 z m 0,-1.8 c 0.5,-0.4 1,-0.9 1.3,-1.5 0.3,-0.4 0.5,-0.9 0.5,-1.4 0,-0.1 0,-0.1 -0.1,-0.2 -0.1,0 -0.1,-0.1 -0.2,-0.1 -0.3,0.1 -0.6,0.4 -0.9,1 -0.3,0.7 -0.5,1.5 -0.6,2.2 z M 325,41.9 v -0.3 l -0.1,-0.7 -0.1,-0.9 -0.1,-1.2 -0.1,-1.2 c -0.1,-0.6 -0.1,-1.1 -0.1,-1.7 0,-0.3 0,-0.6 0.1,-0.9 0,-0.2 0.2,-0.4 0.3,-0.6 0.1,-0.2 0.3,-0.3 0.5,-0.3 0.2,0 0.4,0 0.6,0.1 0.2,0.1 0.3,0.3 0.3,0.5 0,0.1 0,0.2 0,0.3 l 0.1,1.6 0.2,2 0.4,2.5 0.5,3.1 c 0.1,0.4 0.2,0.8 0.3,1.2 0.1,0.1 0.1,0.3 0.2,0.4 0,0.2 -0.1,0.3 -0.2,0.4 -0.2,0.1 -0.4,0.2 -0.6,0.2 -0.3,0.1 -0.6,0 -0.8,-0.1 -0.3,-0.2 -0.7,-0.5 -0.9,-0.8 l -1.4,-1.8 -1.5,-2 -0.8,-1.2 -0.8,-1.1 c 0.1,0.9 0.1,1.7 0.3,2.6 l 0.2,1.2 c 0,0.3 0.1,0.7 0.3,1.3 l 0.3,1 c 0.1,0.3 0.2,0.6 0.3,0.9 0,0.1 0.1,0.1 0.1,0.2 0,0.2 -0.1,0.3 -0.2,0.4 -0.2,0.1 -0.4,0.2 -0.6,0.3 -0.3,0.1 -0.6,0 -0.8,-0.1 -0.2,-0.2 -0.4,-0.4 -0.5,-0.7 l -0.2,-0.7 -0.2,-0.8 -0.4,-2.2 -0.3,-2.4 -0.2,-2.5 v -1.4 c 0,-0.3 0,-0.6 0.1,-0.8 0.1,-0.2 0.2,-0.3 0.3,-0.5 0.2,-0.1 0.4,-0.2 0.6,-0.2 0.2,0 0.4,0 0.6,0 0.1,0 0.3,0.2 0.3,0.3 l 0.1,0.3 c 0.1,0.2 0.2,0.4 0.3,0.6 l 0.6,0.9 0.6,0.9 c 0,0.1 0.1,0.1 0.1,0.2 l 0.1,0.2 0.2,0.3 0.3,0.4 0.7,1 0.9,1.3 z m 6.8,-5 c 0.2,-0.2 0.5,-0.4 0.8,-0.4 0.3,-0.1 0.7,0 1,0.1 0.3,0.1 0.6,0.3 0.8,0.5 0.3,0.3 0.5,0.6 0.6,1 0.2,0.4 0.3,0.9 0.4,1.4 0.1,0.8 0.1,1.5 0.1,2.3 -0.1,0.7 -0.2,1.4 -0.5,2 -0.2,0.5 -0.5,0.9 -0.9,1.2 -0.3,0.3 -0.8,0.5 -1.2,0.6 -0.5,0.1 -1,0 -1.4,-0.2 -0.4,-0.2 -0.8,-0.6 -1.1,-1 -0.3,-0.5 -0.5,-1.1 -0.6,-1.7 -0.1,-0.4 -0.1,-0.9 -0.1,-1.3 0,-0.9 0.1,-1.9 0.3,-2.8 0.3,-1.1 0.7,-1.7 1.2,-1.8 0.3,-0.1 0.5,0 0.6,0.1 z m -0.3,2.5 c -0.1,0.6 -0.2,1.2 -0.2,1.7 0,0.5 0,1 0.1,1.5 0,0.4 0.2,0.7 0.4,1 0.1,0.2 0.4,0.3 0.7,0.3 0.3,-0.1 0.5,-0.2 0.6,-0.4 0.2,-0.3 0.4,-0.6 0.5,-1 0.1,-0.5 0.2,-0.9 0.2,-1.4 0,-0.5 0,-1 -0.1,-1.5 0,-0.4 -0.2,-0.8 -0.4,-1.1 -0.1,-0.2 -0.4,-0.3 -0.6,-0.3 -0.2,0 -0.3,0.1 -0.4,0.2 -0.1,0.1 -0.2,0.3 -0.3,0.5 l -0.1,0.3 c 0,0.2 -0.1,0.2 -0.2,0.3 0,-0.1 -0.1,-0.1 -0.2,-0.1 z m 7.1,-1.6 -0.8,0.1 c -0.1,0 -0.3,0 -0.4,0 -0.3,-0.1 -0.6,-0.4 -0.6,-0.8 0,-0.2 0,-0.4 0,-0.6 0,-0.1 0.1,-0.3 0.2,-0.3 0,0 0.1,0 0.1,0 0.3,0 0.7,0 1,-0.1 l 0.4,-0.1 c 0,-0.1 0,-0.3 -0.1,-0.6 -0.1,-0.4 -0.2,-0.8 -0.3,-1.2 0,-0.1 -0.1,-0.2 -0.1,-0.3 0,-0.2 0.1,-0.3 0.2,-0.4 0.2,-0.1 0.4,-0.2 0.6,-0.3 0.3,-0.1 0.5,0 0.8,0.1 0.2,0.1 0.3,0.4 0.4,0.6 0,0.2 0,0.5 0.1,1 0,0.3 0,0.5 0.1,0.7 0.4,-0.1 0.8,-0.2 1.1,-0.3 0.4,-0.1 0.6,0.1 0.7,0.5 0,0.3 0,0.6 0,0.9 0,0.1 0,0.2 -0.1,0.3 -0.1,0 -0.1,0.1 -0.2,0.1 h -0.5 l -0.7,0.2 h -0.1 c 0,0.5 0.1,0.9 0.1,1.5 v 0.3 c 0,0 0,0.1 0,0.2 v 0.2 c 0,0.1 0,0.2 0,0.3 l 0.2,1.1 c 0.1,0.8 0.3,1.6 0.6,2.4 0.1,0.1 0.1,0.1 0.1,0.2 0,0.2 -0.1,0.3 -0.2,0.5 -0.1,0.1 -0.3,0.2 -0.5,0.3 -0.4,0.1 -0.9,-0.1 -1.1,-0.5 -0.3,-0.7 -0.6,-1.5 -0.6,-2.2 L 338.7,39 c 0,-0.3 -0.1,-0.6 -0.1,-1.2 z m 7.2,3 c 0.1,0.3 0.3,0.5 0.5,0.7 0.2,0.1 0.5,0.2 0.8,0.1 0.3,-0.1 0.6,-0.2 0.9,-0.4 0.3,-0.2 0.6,-0.5 0.8,-0.8 0.2,-0.3 0.3,-0.6 0.3,-1 0,-0.2 0.1,-0.5 0.4,-0.5 0,0 0,0 0.1,0 0.3,0 0.5,0 0.7,0.2 0.2,0.2 0.3,0.4 0.4,0.7 0,0.8 -0.2,1.5 -0.8,2.1 -0.6,0.8 -1.4,1.3 -2.4,1.5 -0.5,0.1 -1,0 -1.5,-0.1 -0.5,-0.2 -0.9,-0.5 -1.2,-0.9 -0.3,-0.4 -0.5,-0.9 -0.6,-1.4 -0.1,-0.7 -0.1,-1.4 0.1,-2.1 0.1,-0.8 0.4,-1.5 0.7,-2.2 0.2,-0.6 0.6,-1.1 1,-1.6 0.3,-0.4 0.8,-0.6 1.2,-0.7 0.5,-0.1 0.9,0 1.3,0.4 0.4,0.3 0.6,0.8 0.7,1.3 0.1,0.5 0,0.9 -0.1,1.4 -0.1,0.5 -0.4,1 -0.6,1.4 -0.3,0.4 -0.7,0.9 -1.1,1.2 -0.6,0.2 -1.1,0.5 -1.6,0.7 z m 0,-1.8 c 0.5,-0.4 1,-0.9 1.3,-1.5 0.3,-0.4 0.5,-0.9 0.5,-1.4 0,-0.1 0,-0.1 -0.1,-0.2 -0.1,0 -0.1,-0.1 -0.2,0 -0.3,0.1 -0.6,0.4 -0.9,1 -0.3,0.6 -0.5,1.4 -0.6,2.1 z m 6.9,1.9 c 0,-0.2 0,-0.4 0.1,-0.6 0.1,-0.2 0.2,-0.3 0.4,-0.3 0.1,0 0.3,0 0.4,0.1 l 0.3,0.2 c 0.5,0.3 1.1,0.4 1.7,0.2 0.8,-0.1 1.1,-0.3 1.1,-0.6 0,-0.1 -0.1,-0.2 -0.3,-0.2 l -0.1,-0.1 -0.3,-0.1 c -0.1,0 -0.5,-0.2 -1,-0.3 -0.5,-0.2 -1.1,-0.4 -1.6,-0.6 -0.3,-0.1 -0.6,-0.3 -0.8,-0.6 -0.2,-0.2 -0.3,-0.5 -0.3,-0.8 -0.1,-0.4 0,-0.8 0.2,-1.2 0.2,-0.5 0.4,-0.9 0.8,-1.2 0.5,-0.5 1,-0.9 1.6,-1.3 0.5,-0.3 1,-0.5 1.6,-0.7 0.4,-0.1 0.8,0 1,0.3 0.3,0.3 0.5,0.8 0.5,1.2 0.1,0.5 0.1,1 -0.1,1.4 -0.1,0.4 -0.3,0.7 -0.6,0.7 -0.2,0 -0.4,0 -0.6,-0.2 -0.2,-0.1 -0.3,-0.3 -0.3,-0.5 0,-0.2 0,-0.4 0.1,-0.5 0.1,-0.2 0.1,-0.3 0.1,-0.5 0,-0.2 -0.2,-0.3 -0.4,-0.3 -0.3,0.1 -0.5,0.2 -0.7,0.4 -0.3,0.2 -0.6,0.4 -0.8,0.7 -0.4,0.5 -0.6,0.8 -0.6,1.1 0,0.2 0.2,0.3 0.3,0.4 0.4,0.2 0.8,0.3 1.2,0.4 0.7,0.2 1.4,0.4 2,0.8 0.4,0.2 0.6,0.6 0.7,1.1 0.1,0.6 -0.1,1.2 -0.6,1.6 -0.6,0.5 -1.3,0.8 -2.1,0.9 -0.7,0.1 -1.4,0.1 -2,-0.1 -0.5,-0.1 -0.8,-0.4 -0.9,-0.8 z m -67.4,17.6 c -0.3,-0.7 -0.4,-1.3 -0.2,-1.5 0.2,-0.2 0.4,-0.4 0.6,-0.7 0.5,-0.8 0.9,-1.7 1.2,-2.6 l 0.8,-2.1 c 0.4,-0.9 0.9,-1.7 1.5,-2.3 0.2,-0.2 0.4,-0.4 0.6,-0.5 l 0.2,-0.1 -0.2,0.2 -0.5,0.5 c -0.2,0.3 -0.4,0.7 -0.5,1.1 0,0.4 0,0.8 0.2,1.1 0,0 -0.2,-0.1 -0.3,-0.3 -0.1,-0.3 -0.1,-0.7 0,-1 0.3,-0.7 0.8,-1.2 1.5,-1.6 l 1.3,-1 0.2,1.6 c 0.5,3.6 0.8,7.2 0.9,10.8 0,3 -0.2,5 -0.4,5 -0.2,0 -0.3,-2 -0.6,-5 -0.3,-3 -1,-6.8 -1.7,-10.6 l 1.5,0.6 c -0.1,0.1 -0.2,0.2 -0.2,0.3 -0.1,0.1 0.1,0.2 0.2,0.1 0.1,-0.1 0.3,-0.6 -0.3,0.1 -0.8,1.1 -1.3,2.3 -1.6,3.6 -0.3,1.1 -0.7,2.2 -1.3,3.3 -0.3,0.5 -0.7,0.9 -1.1,1.3 -0.4,0.4 -1.1,0.3 -1.4,-0.1 -0.3,0 -0.3,-0.1 -0.4,-0.2 z"
         class="st1"
         inkscape:connector-curvature="0"
         style="fill:#238ee0" />
      <path
         id="path3722"
         d="M 199.1,14.9"
         class="st2"
         inkscape:connector-curvature="0"
         style="fill:none;stroke:#8ac3ee;stroke-width:0.17;stroke-miterlimit:10" />
      <g
         id="g3726">
        <path
           id="path3724"
           d="m 111.06644,99.673269 c 0.40897,10e-7 0.81795,0 1.22692,-0.272646 0.27265,-0.136325 0.29978,-0.24894 0.29978,-0.726857 0,-0.119479 0,-0.358437 -0.12722,-0.477918 -0.12722,-0.119479 -0.25445,-0.238957 -0.38167,-0.238957 -0.12723,-0.11948 -0.38169,-0.11948 -0.50891,-0.11948 l -1.97091,0.03348 0.0207,1.802376 z m 0.006,-2.876525 c 0.70767,0 1.41533,0.110763 2.12302,0.443052 0.47178,0.33229 0.82561,0.996868 0.70767,1.550685 0,0.221526 0,0.553815 -0.11795,0.775344 -0.11794,0.221519 -0.23589,0.443065 -0.47177,0.553815 -0.11795,0.11076 -0.35384,0.22153 -0.58974,0.33229 -0.2359,0.11076 -0.47178,0.11076 -0.70767,0.11076 l 1.88713,2.99062 h -1.5333 l -1.76917,-2.99062 h -0.94356 v 2.87986 h -1.41535 v -6.606423 z m -4.92882,5.716316 c 0.25276,0.6319 0.6319,1.26381 1.13742,1.76933 0.50551,0.50552 1.01103,0.88466 1.64294,1.13742 1.2638,0.50551 2.78036,0.50551 4.04416,0 0.6319,-0.25276 1.13742,-0.6319 1.64294,-1.13742 1.01104,-1.01105 1.51656,-2.52761 1.51656,-3.9178 0,-1.516561 -0.50552,-2.906742 -1.51656,-3.917782 -0.50552,-0.50552 -1.01104,-0.88466 -1.64294,-1.137421 -1.2638,-0.50552 -2.78036,-0.50552 -4.04416,0 -0.63191,0.252761 -1.13743,0.631901 -1.64294,1.137421 -0.50552,0.50552 -0.88466,1.13742 -1.13742,1.769321 -0.25276,0.758279 -0.37914,1.390176 -0.37914,2.148461 -0.12638,0.63191 0.12638,1.39019 0.37914,2.14847 m -1.76932,-5.055212 c 0.37914,-0.88466 0.88466,-1.51656 1.51656,-2.148461 0.6319,-0.6319 1.39018,-1.13742 2.27483,-1.39018 1.76933,-0.6319 3.66503,-0.6319 5.30797,0 0.88466,0.37914 1.64294,0.75828 2.27484,1.39018 0.6319,0.631901 1.13742,1.390181 1.51656,2.148461 0.75829,1.895701 0.75829,3.917792 0,5.813492 -0.37914,0.88467 -0.88466,1.51657 -1.51656,2.14847 -0.6319,0.63189 -1.39018,1.13741 -2.27484,1.39017 -1.76932,0.6319 -3.66502,0.6319 -5.30797,0 -0.88465,-0.25276 -1.64293,-0.75828 -2.27483,-1.39017 -0.6319,-0.6319 -1.13742,-1.39018 -1.51656,-2.14847 -0.75829,-1.8957 -0.75829,-4.044171 0,-5.813492"
           class="st0"
           inkscape:connector-curvature="0"
           style="fill:#131016;stroke:#000000;stroke-width:0.37795275;stroke-miterlimit:4;stroke-dasharray:none;stroke-opacity:1"
           sodipodi:nodetypes="scsccsccsccccccccccccccccscccssccsccccsccsccsccscc" />
      </g>
      <circle
         id="circle3728"
         r="51.599998"
         cy="58"
         cx="56.900002"
         class="st3"
         style="fill:#0166ff" />
      <g
         id="g3746">
        <g
           id="g3742">
          <path
             id="path3730"
             d="m 19.4,68.7 c -4.6,0 -6.7,-2 -6.3,-5.9 h 4.7 c -0.1,0.6 0.1,1.1 0.5,1.6 0.4,0.4 1,0.6 1.9,0.6 0.9,0 1.5,-0.1 2,-0.4 0.5,-0.3 0.8,-0.7 0.9,-1.1 0.1,-0.5 -0.2,-0.9 -0.8,-1.1 -0.6,-0.2 -1.4,-0.4 -2.2,-0.6 -0.9,-0.2 -1.8,-0.4 -2.7,-0.6 -0.9,-0.3 -1.6,-0.8 -2.1,-1.5 -0.5,-0.8 -0.7,-1.8 -0.4,-3 0.3,-1.6 1.1,-2.9 2.6,-4 1.4,-1.1 3.2,-1.6 5.2,-1.6 2.3,0 3.9,0.6 4.8,1.7 0.9,1.2 1.3,2.5 1.1,4 h -4.4 c 0.1,-0.6 -0.1,-1.1 -0.5,-1.5 -0.4,-0.4 -0.9,-0.6 -1.7,-0.6 -0.7,0 -1.3,0.2 -1.8,0.5 -0.5,0.3 -0.7,0.7 -0.8,1.2 -0.1,0.5 0.2,0.9 0.8,1.1 0.6,0.2 1.4,0.4 2.2,0.6 0.9,0.1 1.8,0.3 2.6,0.6 0.9,0.3 1.6,0.8 2.1,1.6 0.5,0.8 0.7,1.8 0.4,3.1 -0.3,1.6 -1.1,2.9 -2.6,3.9 -1.4,0.9 -3.2,1.4 -5.5,1.4 z"
             class="st4"
             inkscape:connector-curvature="0"
             style="fill:#ffffff" />
          <path
             id="path3732"
             d="M 45.9,61.1 H 33.6 c -0.1,1.2 0.2,2.1 0.8,2.7 0.6,0.6 1.5,0.9 2.7,0.9 0.7,0 1.4,-0.2 2.1,-0.5 0.6,-0.3 1.2,-0.8 1.5,-1.4 h 4.6 c -0.8,1.7 -2,3.1 -3.7,4.2 -1.6,1.1 -3.4,1.6 -5.4,1.6 -2.5,0 -4.4,-0.8 -5.7,-2.5 -1.3,-1.7 -1.7,-3.8 -1.3,-6.4 0.4,-2.5 1.6,-4.6 3.5,-6.3 1.9,-1.7 4.1,-2.5 6.6,-2.5 2.5,0 4.4,0.8 5.6,2.5 1.3,1.7 1.7,3.8 1.2,6.3 z m -7.2,-6.5 c -1,0 -1.9,0.3 -2.7,0.9 -0.8,0.6 -1.3,1.4 -1.7,2.3 H 42 c 0,-1 -0.3,-1.7 -0.9,-2.3 -0.5,-0.6 -1.3,-0.9 -2.4,-0.9 z"
             class="st4"
             inkscape:connector-curvature="0"
             style="fill:#ffffff" />
          <path
             id="path3734"
             d="M 51.6,68.3 H 47 L 51.3,44 h 4.6 z"
             class="st4"
             inkscape:connector-curvature="0"
             style="fill:#ffffff" />
          <path
             id="path3736"
             d="M 59.6,68.3 H 55 L 59.3,44 h 4.6 z"
             class="st4"
             inkscape:connector-curvature="0"
             style="fill:#ffffff" />
          <path
             id="path3738"
             d="m 75,61 1.7,-9.6 h 4.6 l -3,17 H 74 l 0.4,-2.1 c -1.2,1.6 -3,2.5 -5.4,2.5 -2,0 -3.4,-0.6 -4.3,-1.8 -0.9,-1.2 -1.1,-2.9 -0.7,-4.9 l 1.9,-10.6 h 4.6 l -1.8,10.1 c -0.4,2.2 0.4,3.3 2.2,3.3 1.1,0 2,-0.3 2.7,-1 0.7,-0.8 1.1,-1.7 1.4,-2.9 z"
             class="st4"
             inkscape:connector-curvature="0"
             style="fill:#ffffff" />
          <path
             id="path3740"
             d="M 86.6,66.5 85.1,75 h -4.6 l 4.2,-23.7 h 4.2 l -0.4,2.1 c 1.4,-1.6 3.3,-2.5 5.8,-2.5 2.4,0 4.1,0.8 5.2,2.5 1.1,1.7 1.4,3.8 1,6.3 -0.4,2.5 -1.5,4.7 -3.2,6.3 -1.7,1.7 -3.7,2.5 -6.1,2.5 -1.1,0 -2.1,-0.2 -2.9,-0.6 -0.8,-0.3 -1.4,-0.8 -1.7,-1.4 z m 2.8,-10.2 c -0.9,0.9 -1.5,2.1 -1.8,3.5 -0.2,1.4 -0.1,2.6 0.5,3.5 0.6,0.9 1.5,1.4 2.8,1.4 1.3,0 2.3,-0.5 3.3,-1.4 0.9,-0.9 1.5,-2.1 1.8,-3.5 0.2,-1.4 0.1,-2.6 -0.5,-3.5 -0.6,-0.9 -1.5,-1.4 -2.8,-1.4 -1.3,0.1 -2.4,0.5 -3.3,1.4 z"
             class="st4"
             inkscape:connector-curvature="0"
             style="fill:#ffffff" />
        </g>
        <polygon
           id="polygon3744"
           points="30.2,51.1 30.2,46.7 22.7,42.4 15.2,46.7 15.2,51.1 22.7,46.8 "
           class="st4"
           style="fill:#ffffff" />
      </g>
    </g>
    <g
       id="g3838"
       transform="matrix(0.26458333,0,0,0.26458333,85.923588,319.90955)">
      <g
         id="g3779"
         style="fill:#131016" />
      <path
         id="path3797"
         stroke-miterlimit="10"
         d="M 199.05,14.85"
         inkscape:connector-curvature="0"
         style="fill:none;stroke:#8ac3ee;stroke-width:0.17;stroke-miterlimit:10" />
      <path
         id="path3801"
         d="m -188.58572,-111.37286 -0.34,3.56 -0.1,2.92 v 1.5 a 2.25,2.25 0 0 0 0.11,0.64 1.33,1.33 0 0 1 0.11,0.4 q 0,0.23 -0.3,0.4 a 1.46,1.46 0 0 1 -0.71,0.17 0.87,0.87 0 0 1 -0.57,-0.19 1,1 0 0 1 -0.35,-0.51 7.24,7.24 0 0 1 -0.15,-1.77 l 0.1,-3.4 c 0,-0.75 0.1,-1.84 0.23,-3.27 v -0.3 h -0.28 l -0.6,0.06 a 7.31,7.31 0 0 1 -1,0.06 1,1 0 0 1 -0.42,-0.07 0.87,0.87 0 0 1 -0.27,-0.25 1.34,1.34 0 0 1 -0.23,-0.77 0.9,0.9 0 0 1 0.16,-0.57 0.55,0.55 0 0 1 0.46,-0.21 h 0.77 c 0.2,0 0.62,0 1.24,-0.08 l 0.7,-0.06 h 0.48 l 1.06,-0.06 1.6,-0.07 a 2.07,2.07 0 0 1 1.12,0.22 0.85,0.85 0 0 1 0.33,0.74 1,1 0 0 1 -0.18,0.64 0.56,0.56 0 0 1 -0.46,0.26 h -0.23 l -0.5,-0.07 h -1.16 c 0,-0.01 -0.23,-0.01 -0.63,0.1 z m 5.36,1.67 a 1.27,1.27 0 0 1 0.84,-0.28 1.77,1.77 0 0 1 0.88,0.22 2.07,2.07 0 0 1 0.65,0.61 3.29,3.29 0 0 1 0.43,1 5.19,5.19 0 0 1 0.15,1.29 8.25,8.25 0 0 1 -0.26,2.06 6.24,6.24 0 0 1 -0.78,1.75 3.09,3.09 0 0 1 -1,0.93 2.55,2.55 0 0 1 -2.58,0 2.3,2.3 0 0 1 -0.85,-1 4.09,4.09 0 0 1 -0.29,-1.63 7.43,7.43 0 0 1 0.1,-1.22 10.27,10.27 0 0 1 0.74,-2.45 c 0.44,-1 0.9,-1.46 1.38,-1.46 a 0.73,0.73 0 0 1 0.59,0.18 z m -0.65,2.2 a 11,11 0 0 0 -0.43,1.54 6.75,6.75 0 0 0 -0.14,1.36 2,2 0 0 0 0.2,1 0.65,0.65 0 0 0 0.59,0.35 0.92,0.92 0 0 0 0.65,-0.31 2.69,2.69 0 0 0 0.57,-0.84 6,6 0 0 0 0.39,-1.22 7.47,7.47 0 0 0 0.14,-1.4 2.4,2.4 0 0 0 -0.19,-1.05 0.6,0.6 0 0 0 -0.56,-0.36 0.71,0.71 0 0 0 -0.45,0.16 1,1 0 0 0 -0.32,0.4 l -0.1,0.23 c -0.06,0.13 -0.13,0.2 -0.22,0.2 a 0.19,0.19 0 0 1 -0.12,-0.02 z m 6.66,5.03 a 0.58,0.58 0 0 1 -0.25,0.45 0.93,0.93 0 0 1 -0.61,0.2 1,1 0 0 1 -0.78,-0.41 2.07,2.07 0 0 1 -0.28,-1.22 v -0.93 l 0.05,-1.08 q 0,-0.94 0.18,-3.18 l 0.1,-1.62 c 0,-0.55 0.06,-0.95 0.06,-1.2 a 1.47,1.47 0 0 0 -0.05,-0.45 2,2 0 0 1 -0.06,-0.29 c 0,-0.16 0.1,-0.3 0.34,-0.45 a 1.34,1.34 0 0 1 0.72,-0.21 0.84,0.84 0 0 1 0.6,0.21 0.7,0.7 0 0 1 0.24,0.56 v 0.44 l -0.18,1.58 q -0.14,1.26 -0.2,3.12 l -0.05,1.2 c -0.05,0.3 0,0.54 0,0.72 v 1.7 a 1.8,1.8 0 0 0 0.08,0.51 l 0.07,0.2 a 0.34,0.34 0 0 1 0.02,0.16 z m 3.23,0 a 0.58,0.58 0 0 1 -0.25,0.45 0.93,0.93 0 0 1 -0.61,0.2 1,1 0 0 1 -0.78,-0.41 2.07,2.07 0 0 1 -0.28,-1.22 v -2 c 0,-0.63 0.08,-1.7 0.2,-3.18 l 0.1,-1.62 c 0,-0.55 0.06,-0.95 0.06,-1.2 a 1.87,1.87 0 0 0 0,-0.45 2,2 0 0 1 -0.06,-0.29 c 0,-0.16 0.1,-0.3 0.34,-0.45 a 1.34,1.34 0 0 1 0.72,-0.21 0.84,0.84 0 0 1 0.6,0.21 0.7,0.7 0 0 1 0.24,0.56 c 0,0.06 0,0.2 -0.05,0.44 0,0.45 -0.1,1 -0.17,1.58 q -0.14,1.26 -0.2,3.12 v 3.6 a 2.15,2.15 0 0 0 0.09,0.51 l 0.07,0.2 a 0.48,0.48 0 0 1 -0.01,0.16 z m 6.5,-3.82 q -0.07,1 -0.1,1.92 v 0.82 a 2.52,2.52 0 0 0 0.14,0.93 1.06,1.06 0 0 1 0.1,0.3 0.43,0.43 0 0 1 -0.27,0.36 1.21,1.21 0 0 1 -0.62,0.16 1.06,1.06 0 0 1 -0.65,-0.19 1,1 0 0 1 -0.4,-0.51 5.46,5.46 0 0 1 -0.14,-1.5 l 0.07,-2.05 v -0.23 a 1.5,1.5 0 0 1 -0.36,-0.88 0.6,0.6 0 0 1 0.46,-0.6 c 0,-0.3 0.06,-0.77 0.13,-1.42 0,-0.17 0.05,-0.5 0.1,-1 0,-0.15 0.05,-0.3 0.07,-0.5 0,-0.36 0.07,-0.52 0.07,-0.5 v -0.18 a 2.21,2.21 0 0 1 -0.21,-0.7 0.63,0.63 0 0 1 0.24,-0.51 2,2 0 0 1 0.78,-0.34 11.73,11.73 0 0 1 2.74,-0.23 4.78,4.78 0 0 1 1.78,0.23 0.82,0.82 0 0 1 0.51,0.81 1,1 0 0 1 -0.19,0.58 0.56,0.56 0 0 1 -0.41,0.26 h -0.17 l -0.2,-0.06 a 2.48,2.48 0 0 0 -0.69,-0.06 13,13 0 0 0 -1.94,0.1 0.92,0.92 0 0 0 -0.41,0.13 1.08,1.08 0 0 0 -0.13,0.44 c 0,0.24 -0.06,0.47 -0.08,0.7 -0.02,0.23 0,0.23 0,0.3 v 1.7 a 8,8 0 0 1 0.82,-0.05 h 0.93 a 4,4 0 0 1 1.61,0.23 0.85,0.85 0 0 1 0.45,0.83 0.92,0.92 0 0 1 -0.18,0.54 0.52,0.52 0 0 1 -0.4,0.27 h -0.15 a 3.07,3.07 0 0 0 -1,-0.11 16.75,16.75 0 0 0 -2.33,0.01 z m 6.56,-2.25 v 0.06 a 3.68,3.68 0 0 1 2.51,-1.17 1.13,1.13 0 0 1 0.74,0.23 0.73,0.73 0 0 1 0.29,0.6 1.12,1.12 0 0 1 -0.29,0.74 0.85,0.85 0 0 1 -0.66,0.35 0.39,0.39 0 0 1 -0.14,0 l -0.2,-0.05 h -0.18 a 1.48,1.48 0 0 0 -0.8,0.3 3,3 0 0 0 -0.74,0.79 3.46,3.46 0 0 0 -0.44,1.09 7.55,7.55 0 0 0 -0.13,1.49 5.7,5.7 0 0 0 0,0.8 4.34,4.34 0 0 0 0.14,0.6 1,1 0 0 1 0.07,0.29 0.56,0.56 0 0 1 -0.3,0.44 1.18,1.18 0 0 1 -0.65,0.2 0.75,0.75 0 0 1 -0.6,-0.23 1.57,1.57 0 0 1 -0.31,-0.8 10.93,10.93 0 0 1 -0.09,-1.58 v -1.18 l 0.06,-1.25 0.06,-1.8 a 4.91,4.91 0 0 0 0,-0.67 1,1 0 0 1 0,-0.24 0.53,0.53 0 0 1 0.29,-0.45 1.23,1.23 0 0 1 0.67,-0.19 c 0.52,0 0.78,0.22 0.78,0.64 v 0.06 a 0.25,0.25 0 0 0 0,0.1 v 0.47 a 1.5,1.5 0 0 0 0,0.27 l -0.07,0.1 z m 5.4,4.34 a 1.17,1.17 0 0 0 0.36,0.66 1,1 0 0 0 0.69,0.23 2,2 0 0 0 0.92,-0.24 3,3 0 0 0 0.86,-0.64 1.42,1.42 0 0 0 0.44,-0.88 0.43,0.43 0 0 1 0.45,-0.4 0.88,0.88 0 0 1 0.65,0.25 0.87,0.87 0 0 1 0.26,0.64 2.6,2.6 0 0 1 -1.05,1.78 3.64,3.64 0 0 1 -2.45,1 3.18,3.18 0 0 1 -1.44,-0.34 2.52,2.52 0 0 1 -1,-1 2.64,2.64 0 0 1 -0.36,-1.37 5.55,5.55 0 0 1 0.36,-1.86 7.86,7.86 0 0 1 1,-1.86 5.2,5.2 0 0 1 1.23,-1.24 2.26,2.26 0 0 1 1.27,-0.45 1.49,1.49 0 0 1 1.17,0.52 1.9,1.9 0 0 1 0.46,1.3 3,3 0 0 1 -0.29,1.23 4.46,4.46 0 0 1 -0.8,1.14 6,6 0 0 1 -1.23,0.92 5.64,5.64 0 0 1 -1.5,0.61 z m 0.28,-1.65 a 5.23,5.23 0 0 0 1.46,-1.17 2.08,2.08 0 0 0 0.64,-1.19 0.26,0.26 0 0 0 0,-0.18 0.22,0.22 0 0 0 -0.17,-0.07 c -0.28,0 -0.6,0.28 -1,0.8 a 6.52,6.52 0 0 0 -0.93,1.81 z m 6.7,1.65 a 1.17,1.17 0 0 0 0.36,0.66 1,1 0 0 0 0.69,0.23 2,2 0 0 0 0.92,-0.24 2.8,2.8 0 0 0 0.85,-0.64 1.39,1.39 0 0 0 0.45,-0.88 0.43,0.43 0 0 1 0.46,-0.4 0.89,0.89 0 0 1 0.66,0.25 0.87,0.87 0 0 1 0.26,0.64 2.6,2.6 0 0 1 -1.05,1.78 3.66,3.66 0 0 1 -2.46,1 3.14,3.14 0 0 1 -1.43,-0.34 2.52,2.52 0 0 1 -1,-1 2.64,2.64 0 0 1 -0.36,-1.37 5.55,5.55 0 0 1 0.36,-1.86 7.86,7.86 0 0 1 1,-1.86 5.2,5.2 0 0 1 1.22,-1.25 2.26,2.26 0 0 1 1.27,-0.45 1.49,1.49 0 0 1 1.17,0.52 1.9,1.9 0 0 1 0.46,1.3 3,3 0 0 1 -0.29,1.23 4.46,4.46 0 0 1 -0.8,1.14 6,6 0 0 1 -1.23,0.92 5.64,5.64 0 0 1 -1.51,0.62 z m 0.28,-1.65 a 5.23,5.23 0 0 0 1.46,-1.17 2.08,2.08 0 0 0 0.64,-1.19 0.26,0.26 0 0 0 0,-0.18 0.22,0.22 0 0 0 -0.17,-0.07 c -0.28,0 -0.6,0.28 -1,0.8 a 6.52,6.52 0 0 0 -0.93,1.81 z"
         inkscape:connector-curvature="0"
         style="fill:#0d83dd" />
      <a
         id="a3805"
         href="tel:+18003006290"
         class="toll-free">
        <path
           id="path3803"
           d="m -138.90572,-110.94286 c -0.64,-0.12 -1,-0.4 -1,-0.83 a 0.28,0.28 0 0 1 0,-0.13 l 0.24,-0.16 a 2.1,2.1 0 0 0 0.49,-0.4 3.76,3.76 0 0 1 0.55,-0.5 0.83,0.83 0 0 1 0.44,-0.12 0.69,0.69 0 0 1 0.51,0.18 l 0.24,0.22 0.22,0.2 a 0.47,0.47 0 0 1 0.19,0.37 7.83,7.83 0 0 1 -0.08,0.84 l -0.1,0.9 a 1.14,1.14 0 0 1 0,0.15 v 0.2 c 0,0.05 0,0.3 -0.05,0.5 l -0.2,2.07 -0.12,1.93 v 1.7 a 6.25,6.25 0 0 0 0,0.74 1.71,1.71 0 0 0 0.12,0.47 0.72,0.72 0 0 1 0.08,0.24 0.47,0.47 0 0 1 -0.27,0.39 1.13,1.13 0 0 1 -0.62,0.17 1,1 0 0 1 -0.56,-0.16 0.82,0.82 0 0 1 -0.39,-0.39 4.51,4.51 0 0 1 -0.18,-1.57 l 0.1,-2.66 0.23,-2.9 0.13,-1.18 c 0,0 0.03,-0.1 0.04,-0.24 z m 3.42,5 q 0.1,-0.78 1.7,-0.78 a 4.59,4.59 0 0 1 1.66,0.24 0.72,0.72 0 0 1 0.52,0.73 0.73,0.73 0 0 1 -0.13,0.45 0.4,0.4 0 0 1 -0.34,0.19 h -0.2 l -0.23,-0.06 a 4.24,4.24 0 0 0 -1.14,-0.14 4.16,4.16 0 0 0 -1.09,0.11 l -0.26,0.06 a 0.4,0.4 0 0 1 -0.34,-0.23 0.94,0.94 0 0 1 -0.15,-0.57 z m 9.3,-1 0.2,0.2 0.9,1 a 6.42,6.42 0 0 1 0.88,1.22 1.88,1.88 0 0 1 0.26,0.93 1.34,1.34 0 0 1 -0.76,1.21 4.65,4.65 0 0 1 -1.16,0.43 6.7,6.7 0 0 1 -1.37,0.14 5.15,5.15 0 0 1 -1.7,-0.26 2.58,2.58 0 0 1 -1.13,-0.75 1.77,1.77 0 0 1 -0.4,-1.12 2.7,2.7 0 0 1 0.53,-1.54 5,5 0 0 1 0.5,-0.62 l 0.64,-0.65 0.18,-0.18 a 4.2,4.2 0 0 1 -1.6,-2.85 2.07,2.07 0 0 1 1.24,-1.89 l 0.6,-0.3 a 6.93,6.93 0 0 1 0.73,-0.27 8.7,8.7 0 0 1 1.62,-0.39 9.46,9.46 0 0 1 1.61,-0.15 4,4 0 0 1 1.89,0.36 1.13,1.13 0 0 1 0.65,1 0.94,0.94 0 0 1 -0.49,0.76 2.63,2.63 0 0 1 -0.5,0.93 6.56,6.56 0 0 1 -0.59,0.59 l -1.13,0.86 a 19.56,19.56 0 0 0 -1.62,1.32 z m -1.3,1.15 a 4,4 0 0 0 -0.85,0.92 1.64,1.64 0 0 0 -0.32,0.86 0.59,0.59 0 0 0 0.4,0.54 2.43,2.43 0 0 0 1.09,0.2 1.7,1.7 0 0 0 0.85,-0.18 0.56,0.56 0 0 0 0.31,-0.49 c 0,-0.34 -0.5,-0.96 -1.48,-1.85 z m 0.17,-2.32 0.12,-0.1 0.4,-0.26 0.48,-0.38 c 0.07,-0.05 0.28,-0.22 0.62,-0.5 l 1,-0.8 0.58,-0.53 -0.07,-0.05 a 0.52,0.52 0 0 1 -0.18,-0.15 l -0.06,-0.1 a 0.37,0.37 0 0 0 -0.34,-0.17 6,6 0 0 0 -1.18,0.15 9.34,9.34 0 0 0 -1.3,0.38 3.25,3.25 0 0 0 -0.88,0.48 0.73,0.73 0 0 0 -0.27,0.55 1.46,1.46 0 0 0 0.41,0.78 8.32,8.32 0 0 0 0.67,0.72 z m 5.73,1.13 a 10.25,10.25 0 0 1 0.12,-1.59 8.77,8.77 0 0 1 0.36,-1.49 8.61,8.61 0 0 1 0.58,-1.29 4.83,4.83 0 0 1 0.72,-0.95 2.54,2.54 0 0 1 1.8,-0.82 1.28,1.28 0 0 1 1,0.32 l 0.2,0.2 a 2.12,2.12 0 0 0 0.41,0.31 4.15,4.15 0 0 1 1,1.1 5.87,5.87 0 0 1 0.64,1.57 8.61,8.61 0 0 1 0.21,1.94 10.16,10.16 0 0 1 -0.26,2.34 6.82,6.82 0 0 1 -0.75,1.86 4,4 0 0 1 -1.16,1.25 2.43,2.43 0 0 1 -1.42,0.44 2.65,2.65 0 0 1 -1.75,-0.66 3.55,3.55 0 0 1 -0.71,-0.8 4.8,4.8 0 0 1 -0.52,-1 7.57,7.57 0 0 1 -0.46,-2.72 z m 3.42,3.25 a 1.22,1.22 0 0 0 1,-0.51 3.9,3.9 0 0 0 0.65,-1.46 9.06,9.06 0 0 0 0.22,-2.11 5.53,5.53 0 0 0 -0.45,-2.47 1.38,1.38 0 0 0 -1.23,-0.89 1.12,1.12 0 0 0 -0.88,0.57 4.41,4.41 0 0 0 -0.64,1.55 8.9,8.9 0 0 0 -0.24,2.08 6.86,6.86 0 0 0 0.19,1.72 2.41,2.41 0 0 0 0.56,1.12 1.13,1.13 0 0 0 0.82,0.4 z m 5.08,-3.25 a 10.25,10.25 0 0 1 0.12,-1.59 8.77,8.77 0 0 1 0.36,-1.49 7.71,7.71 0 0 1 0.59,-1.29 4.47,4.47 0 0 1 0.72,-0.95 2.51,2.51 0 0 1 1.8,-0.82 1.27,1.27 0 0 1 1,0.32 l 0.2,0.2 a 2.52,2.52 0 0 0 0.41,0.31 3.85,3.85 0 0 1 1,1.1 5.56,5.56 0 0 1 0.64,1.57 8.61,8.61 0 0 1 0.21,1.94 9.64,9.64 0 0 1 -0.26,2.34 6.82,6.82 0 0 1 -0.75,1.86 4,4 0 0 1 -1.15,1.25 2.49,2.49 0 0 1 -1.43,0.44 2.65,2.65 0 0 1 -1.75,-0.66 3.81,3.81 0 0 1 -0.71,-0.8 5.31,5.31 0 0 1 -0.52,-1 7.81,7.81 0 0 1 -0.47,-2.72 z m 3.42,3.25 a 1.26,1.26 0 0 0 1,-0.51 3.9,3.9 0 0 0 0.64,-1.46 9,9 0 0 0 0.23,-2.11 5.53,5.53 0 0 0 -0.45,-2.47 1.4,1.4 0 0 0 -1.24,-0.89 1.14,1.14 0 0 0 -0.88,0.57 4.61,4.61 0 0 0 -0.64,1.55 8.9,8.9 0 0 0 -0.24,2.08 7.35,7.35 0 0 0 0.19,1.72 2.33,2.33 0 0 0 0.57,1.12 1.11,1.11 0 0 0 0.82,0.4 z m 5.15,-2.2 q 0.1,-0.78 1.7,-0.78 a 4.59,4.59 0 0 1 1.66,0.24 0.73,0.73 0 0 1 0.52,0.73 0.8,0.8 0 0 1 -0.13,0.45 0.4,0.4 0 0 1 -0.34,0.19 h -0.2 l -0.24,-0.06 a 5,5 0 0 0 -2.22,0 1.11,1.11 0 0 1 -0.27,0.06 0.39,0.39 0 0 1 -0.33,-0.23 0.94,0.94 0 0 1 -0.15,-0.6 z m 10.730001,-1.7 a 2.39,2.39 0 0 1 1.41,0.87 2.55,2.55 0 0 1 0.51,1.62 3.15,3.15 0 0 1 -0.29,1.33 3.38,3.38 0 0 1 -0.89,1.1 4.61,4.61 0 0 1 -3,0.93 6,6 0 0 1 -1.92,-0.3 3.68,3.68 0 0 1 -1.44,-0.8 1.47,1.47 0 0 1 -0.53,-1.06 0.59,0.59 0 0 1 0.28,-0.52 1.13,1.13 0 0 1 0.71,-0.2 1.48,1.48 0 0 1 0.51,0.09 0.42,0.42 0 0 1 0.29,0.24 l 0.13,0.27 a 1,1 0 0 0 0.64,0.49 3.35,3.35 0 0 0 1.17,0.18 3,3 0 0 0 1.68,-0.43 2.13,2.13 0 0 0 0.66,-0.64 1.41,1.41 0 0 0 0.22,-0.74 0.91,0.91 0 0 0 -0.43,-0.81 2.23,2.23 0 0 0 -1.22,-0.28 4.66,4.66 0 0 0 -1.56,0.27 1.76,1.76 0 0 1 -0.42,0.12 c -0.17,0 -0.33,-0.12 -0.47,-0.35 a 1.47,1.47 0 0 1 -0.21,-0.78 0.73,0.73 0 0 1 0.12,-0.48 0.68,0.68 0 0 1 0.45,-0.18 6.48,6.48 0 0 0 2.55,-1 6.17,6.17 0 0 0 1.19,-0.94 1.33,1.33 0 0 0 0.42,-0.79 0.52,0.52 0 0 0 -0.18,-0.43 0.84,0.84 0 0 0 -0.55,-0.15 3.18,3.18 0 0 0 -1.13,0.26 6.51,6.51 0 0 0 -1.28,0.67 4.46,4.46 0 0 0 -1,0.88 l -0.22,0.26 a 0.65,0.65 0 0 1 -0.49,0.28 0.88,0.88 0 0 1 -0.66,-0.3 0.93,0.93 0 0 1 -0.3,-0.68 c 0,-0.58 0.62,-1.22 1.86,-1.93 a 7.07,7.07 0 0 1 3.42,-1.15 2.78,2.78 0 0 1 1.27,0.29 2.21,2.21 0 0 1 0.9,0.78 2.12,2.12 0 0 1 0.32,1.13 2.75,2.75 0 0 1 -1.49,2.29 9.93,9.93 0 0 1 -1.03,0.59 z m 3.4,0.66 a 10.25,10.25 0 0 1 0.12,-1.59 8.77,8.77 0 0 1 0.36,-1.49 8.6,8.6 0 0 1 0.59,-1.29 4.83,4.83 0 0 1 0.72,-0.95 2.54,2.54 0 0 1 1.8,-0.82 1.25,1.25 0 0 1 1,0.32 l 0.2,0.2 a 3.11,3.11 0 0 0 0.41,0.31 3.85,3.85 0 0 1 1,1.1 5.56,5.56 0 0 1 0.64,1.57 8.06,8.06 0 0 1 0.22,1.94 9.63,9.63 0 0 1 -0.27,2.34 6.52,6.52 0 0 1 -0.75,1.86 4,4 0 0 1 -1.15,1.25 2.46,2.46 0 0 1 -1.43,0.44 2.67,2.67 0 0 1 -1.75,-0.66 3.81,3.81 0 0 1 -0.71,-0.8 5.92,5.92 0 0 1 -0.52,-1 7.81,7.81 0 0 1 -0.47,-2.72 z m 3.42,3.25 a 1.23,1.23 0 0 0 1,-0.51 3.9,3.9 0 0 0 0.64,-1.46 9,9 0 0 0 0.23,-2.11 5.53,5.53 0 0 0 -0.45,-2.47 1.4,1.4 0 0 0 -1.24,-0.89 1.14,1.14 0 0 0 -0.88,0.57 4.61,4.61 0 0 0 -0.63,1.55 8.4,8.4 0 0 0 -0.25,2.08 6.83,6.83 0 0 0 0.2,1.72 2.41,2.41 0 0 0 0.56,1.12 1.11,1.11 0 0 0 0.82,0.4 z m 5.06,-3.26 a 10.25,10.25 0 0 1 0.12,-1.59 8.77,8.77 0 0 1 0.36,-1.49 7.7,7.7 0 0 1 0.58,-1.29 4.83,4.83 0 0 1 0.72,-0.95 2.54,2.54 0 0 1 1.8,-0.82 1.28,1.28 0 0 1 1,0.32 l 0.2,0.2 a 2.3,2.3 0 0 0 0.4,0.31 4,4 0 0 1 1,1.1 5.55,5.55 0 0 1 0.63,1.57 8.06,8.06 0 0 1 0.22,1.94 9.63,9.63 0 0 1 -0.27,2.34 6.51,6.51 0 0 1 -0.74,1.86 4,4 0 0 1 -1.16,1.25 2.43,2.43 0 0 1 -1.42,0.44 2.68,2.68 0 0 1 -1.76,-0.66 3.76,3.76 0 0 1 -0.7,-0.8 4.8,4.8 0 0 1 -0.52,-1 7.57,7.57 0 0 1 -0.45,-2.72 z m 3.42,3.25 a 1.22,1.22 0 0 0 1,-0.51 3.9,3.9 0 0 0 0.65,-1.46 9.06,9.06 0 0 0 0.22,-2.11 5.53,5.53 0 0 0 -0.45,-2.47 1.39,1.39 0 0 0 -1.23,-0.89 1.12,1.12 0 0 0 -0.88,0.57 4.41,4.41 0 0 0 -0.64,1.55 8.9,8.9 0 0 0 -0.24,2.08 6.86,6.86 0 0 0 0.19,1.72 2.41,2.41 0 0 0 0.56,1.12 1.13,1.13 0 0 0 0.82,0.4 z m 5.16,-2.2 q 0.1,-0.78 1.7,-0.78 a 4.57,4.57 0 0 1 1.65,0.24 0.72,0.72 0 0 1 0.52,0.73 0.73,0.73 0 0 1 -0.13,0.45 0.39,0.39 0 0 1 -0.34,0.19 h -0.2 l -0.23,-0.06 a 4.24,4.24 0 0 0 -1.14,-0.14 4.07,4.07 0 0 0 -1.08,0.11 1.22,1.22 0 0 1 -0.27,0.06 0.39,0.39 0 0 1 -0.33,-0.23 0.94,0.94 0 0 1 -0.15,-0.57 z m 8.67,-3.6 a 4.4,4.4 0 0 1 1.17,-0.2 3.59,3.59 0 0 1 1.78,0.45 3.38,3.38 0 0 1 1.25,1.24 3.51,3.51 0 0 1 0.45,1.75 4.25,4.25 0 0 1 -0.6,2.19 4.69,4.69 0 0 1 -0.71,0.92 5,5 0 0 1 -0.92,0.72 4,4 0 0 1 -2.16,0.62 3.53,3.53 0 0 1 -1.84,-0.48 3.39,3.39 0 0 1 -1.3,-1.33 4,4 0 0 1 -0.47,-1.92 4.9,4.9 0 0 1 0.08,-0.78 1.13,1.13 0 0 1 -0.38,-0.75 c 0,-0.32 0.32,-0.7 1,-1.18 l 0.62,-1.27 c 0.22,-0.42 0.46,-0.78 0.73,-1.18 a 11.52,11.52 0 0 1 0.79,-1 c 0.7,-0.87 1.28,-1.3 1.7,-1.3 a 1,1 0 0 1 0.69,0.27 0.81,0.81 0 0 1 0.31,0.59 0.52,0.52 0 0 1 -0.26,0.42 3.79,3.79 0 0 0 -0.39,0.31 5.25,5.25 0 0 0 -0.46,0.47 9.71,9.71 0 0 0 -1.08,1.45 z m 2.7,3.46 a 2.44,2.44 0 0 0 -0.24,-1.1 2,2 0 0 0 -0.69,-0.72 2.31,2.31 0 0 0 -2.2,0.06 2,2 0 0 0 -0.76,0.87 2.91,2.91 0 0 0 -0.28,1.34 2.16,2.16 0 0 0 0.48,1.48 1.63,1.63 0 0 0 1.29,0.55 2.28,2.28 0 0 0 1.2,-0.34 2.45,2.45 0 0 0 0.88,-0.9 2.49,2.49 0 0 0 0.32,-1.24 z m 5.77,2.04 a 14.66,14.66 0 0 1 2.22,-0.19 8.73,8.73 0 0 1 1.54,0.1 1.69,1.69 0 0 1 0.83,0.37 0.91,0.91 0 0 1 0.26,0.68 1,1 0 0 1 -0.16,0.61 0.54,0.54 0 0 1 -0.46,0.22 h -0.35 a 7.49,7.49 0 0 0 -1,-0.08 h -2.6 a 12.64,12.64 0 0 0 -1.32,0.15 9.35,9.35 0 0 0 -1.06,0.23 2.4,2.4 0 0 1 -0.59,0.12 0.61,0.61 0 0 1 -0.45,-0.19 0.67,0.67 0 0 1 -0.19,-0.47 1.61,1.61 0 0 1 0.54,-0.9 l 0.65,-0.66 c 0.14,-0.14 0.4,-0.44 0.8,-0.9 l 1.1,-1.3 1.37,-1.77 1.07,-1.55 a 2.93,2.93 0 0 0 0.54,-1.09 c 0,-0.2 -0.14,-0.3 -0.42,-0.3 a 2,2 0 0 0 -0.69,0.16 4.78,4.78 0 0 0 -0.88,0.49 5.56,5.56 0 0 0 -0.84,0.66 3.43,3.43 0 0 0 -0.59,0.68 1,1 0 0 1 -0.28,0.32 0.8,0.8 0 0 1 -0.38,0.08 1.11,1.11 0 0 1 -0.74,-0.27 0.8,0.8 0 0 1 -0.32,-0.64 0.91,0.91 0 0 1 0.19,-0.53 4,4 0 0 1 0.61,-0.66 9.17,9.17 0 0 1 2.21,-1.53 4.93,4.93 0 0 1 2.1,-0.53 2.17,2.17 0 0 1 1,0.22 1.6,1.6 0 0 1 0.69,0.62 1.78,1.78 0 0 1 0.24,0.92 2.89,2.89 0 0 1 -0.2,1 6.64,6.64 0 0 1 -0.61,1.24 c -0.27,0.43 -0.64,0.95 -1.1,1.54 l -1.34,1.64 c -0.5,0.64 -1.02,1.1 -1.4,1.53 z m 11.2,-2.1 a 5,5 0 0 1 -2.89,1.05 2.92,2.92 0 0 1 -1.35,-0.32 2.43,2.43 0 0 1 -1,-0.88 2.4,2.4 0 0 1 -0.35,-1.27 4.22,4.22 0 0 1 0.61,-2.1 6.72,6.72 0 0 1 1.67,-1.92 9.51,9.51 0 0 1 1.15,-0.8 7.53,7.53 0 0 1 1.12,-0.54 2.82,2.82 0 0 1 0.86,-0.17 1.06,1.06 0 0 1 0.87,0.34 c 0.13,0.16 0.22,0.24 0.28,0.24 a 0.45,0.45 0 0 0 0.17,0 2.69,2.69 0 0 1 0.38,-0.19 0.48,0.48 0 0 1 0.18,0 1,1 0 0 1 0.49,0.15 1.78,1.78 0 0 1 0.48,0.36 0.89,0.89 0 0 1 0.26,0.59 1.9,1.9 0 0 1 -0.07,0.47 l -0.06,0.2 c 0,0 0,0.16 -0.13,0.4 a 18,18 0 0 0 -0.68,3 l -0.23,2 -0.1,1.63 a 7.4,7.4 0 0 0 0.06,1.15 2.24,2.24 0 0 1 0,0.34 0.59,0.59 0 0 1 -0.26,0.48 1.23,1.23 0 0 1 -0.7,0.18 c -0.42,0 -0.7,-0.12 -0.8,-0.35 a 3,3 0 0 1 -0.12,-1.09 l 0.17,-2.95 z m 0.5,-4 a 1.13,1.13 0 0 0 -0.25,-0.78 0.91,0.91 0 0 0 -0.71,-0.28 3,3 0 0 0 -2.07,1.17 5.23,5.23 0 0 0 -0.85,1.23 2.54,2.54 0 0 0 -0.33,1.15 0.94,0.94 0 0 0 0.28,0.68 1,1 0 0 0 0.71,0.26 2.64,2.64 0 0 0 1.5,-0.52 4,4 0 0 0 1.24,-1.32 3.11,3.11 0 0 0 0.48,-1.6 z m 3.14,3.16 a 10.25,10.25 0 0 1 0.12,-1.59 8.77,8.77 0 0 1 0.36,-1.49 8.6,8.6 0 0 1 0.59,-1.29 4.83,4.83 0 0 1 0.72,-0.95 2.54,2.54 0 0 1 1.8,-0.82 1.25,1.25 0 0 1 1,0.32 l 0.2,0.2 a 3.11,3.11 0 0 0 0.41,0.31 3.85,3.85 0 0 1 1,1.1 5.56,5.56 0 0 1 0.64,1.57 8.6,8.6 0 0 1 0.22,1.94 9.63,9.63 0 0 1 -0.27,2.34 6.82,6.82 0 0 1 -0.75,1.86 4,4 0 0 1 -1.15,1.25 2.46,2.46 0 0 1 -1.43,0.44 2.67,2.67 0 0 1 -1.75,-0.66 3.81,3.81 0 0 1 -0.71,-0.8 5.92,5.92 0 0 1 -0.52,-1 7.81,7.81 0 0 1 -0.47,-2.72 z m 3.42,3.25 a 1.24,1.24 0 0 0 1,-0.51 3.9,3.9 0 0 0 0.64,-1.46 9,9 0 0 0 0.23,-2.11 5.53,5.53 0 0 0 -0.45,-2.47 1.4,1.4 0 0 0 -1.24,-0.89 1.14,1.14 0 0 0 -0.88,0.57 4.82,4.82 0 0 0 -0.64,1.55 8.9,8.9 0 0 0 -0.24,2.08 7.35,7.35 0 0 0 0.19,1.72 2.41,2.41 0 0 0 0.57,1.12 1.11,1.11 0 0 0 0.82,0.4 z"
           inkscape:connector-curvature="0"
           style="fill:#0d83dd" />
      </a>
      <path
         id="path3807"
         d="m -146.78572,-95.34286 c 3,0.4 2.57,2.34 2.25,2.75 a 2.39,2.39 0 0 1 -0.32,0.32 2.28,2.28 0 0 1 -2.48,0.24 c -5.2,-2.5 -33.66,-1.35 -45.5,4.8 1.76,-1.58 6.1,-3.4 7.25,-3.86 6.48,-2.52 12.12,-3.7 20.76,-4.54 a 82.87,82.87 0 0 1 18.05,0.29 z"
         inkscape:connector-curvature="0"
         style="fill:#0d83dd" />
    </g>
  </g>
  <style
     id="style3713"
     type="text/css">
	.st0{fill:#131016;}
	.st1{fill:#238EE0;}
	.st2{fill:none;stroke:#8AC3EE;stroke-width:0.17;stroke-miterlimit:10;}
	.st3{fill:#0166FF;}
	.st4{fill:#FFFFFF;}
</style>
</svg>
