<svg xmlns="http://www.w3.org/2000/svg" xmlns:xlink="http://www.w3.org/1999/xlink" viewBox="0 0 381.31 114.57"><g fill="#131016"><path d="M143.12 38.88q-.55 2.73-1 5.43l-.54 4.46-.16 2.3a3.23 3.23 0 0 0 .08 1 2.69 2.69 0 0 1 .12.61.82.82 0 0 1-.5.6 2.31 2.31 0 0 1-1.09.26 1.23 1.23 0 0 1-.84-.29 1.37 1.37 0 0 1-.45-.78 11.27 11.27 0 0 1 0-2.7l.58-5.18.85-5.46h-.4l-.9.1a11 11 0 0 1-1.49.09 1.4 1.4 0 0 1-.61-.1 1.13 1.13 0 0 1-.38-.38 2 2 0 0 1-.25-1.18 1.48 1.48 0 0 1 .33-.87.87.87 0 0 1 .71-.32h1.15c.3 0 .93 0 1.86-.1l1.08-.1.72-.07 4-.2a3 3 0 0 1 1.65.34 1.21 1.21 0 0 1 .4 1.13 1.83 1.83 0 0 1-.36 1 .9.9 0 0 1-.73.39h-.33l-.73-.1h-1.73l-1.06.17m7.67 5.9l.28-.44a16.67 16.67 0 0 1 1.84-2.6 2 2 0 0 1 1.36-.78c.66 0 1.1.72 1.3 2.16a10.69 10.69 0 0 1 .13 1.27q0 1.08 0 1.47v1.43c0 .55-.05 1-.1 1.55l-.2 1.88a13.85 13.85 0 0 1-.32 1.63 1.76 1.76 0 0 1-.46.92 1.3 1.3 0 0 1-.89.3 1.56 1.56 0 0 1-1-.31.77.77 0 0 1-.39-.68 2.37 2.37 0 0 1 .2-.56 8 8 0 0 0 .51-2.52 23.2 23.2 0 0 0 .11-3.64c0-.5-.12-.73-.25-.73s-.6.63-1.3 1.88a20.37 20.37 0 0 0-1.27 2.63 8 8 0 0 0-.58 2.1v.98a.91.91 0 0 1-.43.68 1.52 1.52 0 0 1-.93.3q-1.38 0-1.23-1.8c0-.4.1-.9.2-1.52l.35-1.95.43-2.36.43-2.45.45-2.64q.3-1.7.36-2.6a9.71 9.71 0 0 0 0-1v-.36a.88.88 0 0 1 .42-.67 1.63 1.63 0 0 1 .94-.25 1.15 1.15 0 0 1 1.06.47 2.37 2.37 0 0 1 .22 1.5 20.51 20.51 0 0 1-.49 2.91l-.38 1.76-.25 1.2-.14.84m9.47 2.47a9.19 9.19 0 0 0 2.34-1.78 3.54 3.54 0 0 0 1.11-1.83.45.45 0 0 0 0-.28.33.33 0 0 0-.24-.1c-.42 0-.95.44-1.57 1.23a11.41 11.41 0 0 0-1.59 2.76m-.63 2.5a1.57 1.57 0 0 0 .45 1 1.41 1.41 0 0 0 1 .34 3.33 3.33 0 0 0 1.41-.35 5.22 5.22 0 0 0 1.37-1 2.53 2.53 0 0 0 .78-1.35.71.71 0 0 1 .78-.63 1.21 1.21 0 0 1 1 .38 1.25 1.25 0 0 1 .3 1 4.37 4.37 0 0 1-1.8 2.71 5.84 5.84 0 0 1-3.81 1.54 4.36 4.36 0 0 1-2.11-.51 3.42 3.42 0 0 1-1.38-1.46 3.84 3.84 0 0 1-.36-2.09 8.73 8.73 0 0 1 .79-2.84 13.25 13.25 0 0 1 1.69-2.83 8.69 8.69 0 0 1 2-1.91 3.51 3.51 0 0 1 2-.69 2 2 0 0 1 1.68.79 2.77 2.77 0 0 1 .53 2 5 5 0 0 1-.6 1.87 7.13 7.13 0 0 1-1.35 1.73 9.69 9.69 0 0 1-4.28 2.31m16.4-3.14l-.38 2.93-.1 1.25a3.84 3.84 0 0 0 .09 1.43 2 2 0 0 1 .1.45.76.76 0 0 1-.45.55 1.81 1.81 0 0 1-.95.24 1.62 1.62 0 0 1-1-.28 1.34 1.34 0 0 1-.52-.79 8.07 8.07 0 0 1 0-2.29l.37-3.1v-.36a2.22 2.22 0 0 1-.42-1.34 1 1 0 0 1 .78-.92l.37-2.17c0-.25.14-.77.3-1.54l.16-.76.16-.75.06-.26a3.42 3.42 0 0 1-.23-1.08 1.07 1.07 0 0 1 .43-.77 3.21 3.21 0 0 1 1.21-.52 17.12 17.12 0 0 1 4.15-.36 6.57 6.57 0 0 1 2.63.36 1.14 1.14 0 0 1 .65 1.24 1.66 1.66 0 0 1-.36.87.91.91 0 0 1-.64.41 1.17 1.17 0 0 1-.26 0L182 39a3.59 3.59 0 0 0-1-.09 20.45 20.45 0 0 0-2.92.15 1.24 1.24 0 0 0-.63.21 1.42 1.42 0 0 0-.26.67L177 41l-.1.45c-.03.1-.05.28-.1.53l-.14.77-.14 1-.05.32a9.34 9.34 0 0 1 1.22-.09h1.4a5.64 5.64 0 0 1 2.38.35 1.19 1.19 0 0 1 .57 1.26 1.54 1.54 0 0 1-.34.83.89.89 0 0 1-.63.41.77.77 0 0 1-.23-.08 4.26 4.26 0 0 0-1.43-.16 26.47 26.47 0 0 0-3.33.19m11.86 1.44v-.44a4.89 4.89 0 0 0-1.66.42 4 4 0 0 0-1.36.92 2 2 0 0 0-.59 1.14.55.55 0 0 0 .18.46.74.74 0 0 0 .53.17 3.18 3.18 0 0 0 1.22-.3 3.65 3.65 0 0 0 1.14-.75 1.47 1.47 0 0 0 .35-.54 6.92 6.92 0 0 0 .15-1.08m-.4 4a4.59 4.59 0 0 1-2.8 1 3 3 0 0 1-2.13-.75 2.13 2.13 0 0 1-.71-1.87 4.23 4.23 0 0 1 .67-1.84 6.24 6.24 0 0 1 1.51-1.66 9.5 9.5 0 0 1 4.08-1.66c0-.26.06-.48.08-.63a2.82 2.82 0 0 0-.07-1.14.51.51 0 0 0-.54-.34 1.61 1.61 0 0 0-1 .43 3.73 3.73 0 0 0-.88 1.05 1.18 1.18 0 0 1-1 .71 1 1 0 0 1-.73-.31.89.89 0 0 1-.28-.73 2.25 2.25 0 0 1 .47-1 5.9 5.9 0 0 1 1-1.18 4.41 4.41 0 0 1 2.8-1.22 2.44 2.44 0 0 1 2.08 1 3.8 3.8 0 0 1 .6 2.66c0 .27-.06.6-.1 1l-.13 1.3-.1 1.08c0 .06 0 .45-.1 1.18v.7a3.49 3.49 0 0 0 .09 1.72l.16.23a.27.27 0 0 1 0 .17 1.35 1.35 0 0 1-.63.9 1.85 1.85 0 0 1-1.13.46c-.6 0-1-.42-1.18-1.24m4.42-.76a1.52 1.52 0 0 1 .42-.8 1 1 0 0 1 .71-.39.61.61 0 0 1 .46.22l.3.3a3 3 0 0 0 2.25.66q1.63 0 1.68-.54c0-.1-.1-.24-.3-.37l-.16-.1-.42-.22q-.23-.13-1.3-.66a16.84 16.84 0 0 1-2-1.14 2.57 2.57 0 0 1-.9-1 2.35 2.35 0 0 1-.19-1.18 3.34 3.34 0 0 1 .64-1.62 6 6 0 0 1 1.51-1.52 11.57 11.57 0 0 1 2.61-1.43 6.84 6.84 0 0 1 2.42-.55 1.56 1.56 0 0 1 1.36.64 2.63 2.63 0 0 1 .36 1.79 4.51 4.51 0 0 1-.6 1.92c-.35.56-.7.84-1.07.84a1 1 0 0 1-.74-.35.9.9 0 0 1-.31-.72 2.17 2.17 0 0 1 .32-.7 1.79 1.79 0 0 0 .28-.66c0-.27-.12-.4-.42-.4a3.54 3.54 0 0 0-1.15.32 6.18 6.18 0 0 0-1.34.78c-.73.55-1.1 1-1.15 1.4a.68.68 0 0 0 .32.62 7.31 7.31 0 0 0 1.55.84 9.63 9.63 0 0 1 2.59 1.52 2 2 0 0 1 .64 1.62 2.63 2.63 0 0 1-1.35 2.1 6.66 6.66 0 0 1-6 .19q-1.12-.62-1-1.44m12.33-7.35c-.58 0-.95-.05-1.1-.08a1.24 1.24 0 0 1-.5-.15 1.17 1.17 0 0 1-.54-1.24 2.2 2.2 0 0 1 .23-.8c.13-.23.26-.35.4-.35a.19.19 0 0 1 .11 0 5.27 5.27 0 0 0 1.37.14h.5c0-.16 0-.45.1-.86a10.14 10.14 0 0 0 0-1.75 1.62 1.62 0 0 1 0-.38.81.81 0 0 1 .41-.57 1.73 1.73 0 0 1 .89-.23 1.49 1.49 0 0 1 1 .33 1 1 0 0 1 .31.9c0 .2-.08.66-.2 1.37l-.15 1a12.61 12.61 0 0 1 1.69-.17q.82 0 .75.84a6.37 6.37 0 0 1-.35 1.29 1.19 1.19 0 0 1-.18.39.39.39 0 0 1-.28.09H208c-.2 0-.53 0-1 .07h-.2l-.3 2.06v.4a1.91 1.91 0 0 1 0 .2v.2a4.16 4.16 0 0 0 0 .49l-.16 1.58a11.79 11.79 0 0 0 0 3.43.68.68 0 0 1 .06.33.79.79 0 0 1-.41.57 1.34 1.34 0 0 1-.83.26 1.26 1.26 0 0 1-1.28-1 8.29 8.29 0 0 1-.15-3.2l.45-3.62c0-.25.1-.78.23-1.57m7.94 3.23a9.19 9.19 0 0 0 2.34-1.78 3.54 3.54 0 0 0 1.11-1.83.39.39 0 0 0-.05-.28.33.33 0 0 0-.24-.1c-.42 0-.95.44-1.57 1.23a11.41 11.41 0 0 0-1.59 2.76m-.63 2.5a1.57 1.57 0 0 0 .45 1 1.41 1.41 0 0 0 1 .34 3.33 3.33 0 0 0 1.41-.35 5.22 5.22 0 0 0 1.37-1 2.53 2.53 0 0 0 .78-1.35.71.71 0 0 1 .78-.63 1.21 1.21 0 0 1 1 .38 1.25 1.25 0 0 1 .3 1 4.37 4.37 0 0 1-1.8 2.71 5.84 5.84 0 0 1-3.81 1.54 4.36 4.36 0 0 1-2.11-.51 3.42 3.42 0 0 1-1.38-1.46 3.84 3.84 0 0 1-.36-2.09 8.73 8.73 0 0 1 .79-2.84 13.29 13.29 0 0 1 1.7-2.83 8.47 8.47 0 0 1 2-1.91 3.51 3.51 0 0 1 2-.69 2 2 0 0 1 1.68.79 2.77 2.77 0 0 1 .53 2 4.8 4.8 0 0 1-.6 1.87 7.13 7.13 0 0 1-1.35 1.73 9.69 9.69 0 0 1-4.28 2.31m7.84 1.67a1.5 1.5 0 0 1 .41-.8 1 1 0 0 1 .72-.39.58.58 0 0 1 .45.22l.3.3a3 3 0 0 0 2.24.66c1.1 0 1.66-.18 1.7-.54 0-.1-.1-.24-.3-.37l-.16-.1-.42-.22-1.3-.66a17.13 17.13 0 0 1-2-1.14 2.74 2.74 0 0 1-.9-1 2.25 2.25 0 0 1-.18-1.18 3.32 3.32 0 0 1 .63-1.62 6.21 6.21 0 0 1 1.51-1.52 11.79 11.79 0 0 1 2.61-1.43 6.93 6.93 0 0 1 2.42-.55 1.59 1.59 0 0 1 1.37.64 2.63 2.63 0 0 1 .35 1.79 4.51 4.51 0 0 1-.6 1.92c-.34.56-.7.84-1.06.84a1 1 0 0 1-.75-.35.94.94 0 0 1-.31-.72 2.43 2.43 0 0 1 .32-.7 1.86 1.86 0 0 0 .29-.66c0-.27-.12-.4-.43-.4a3.54 3.54 0 0 0-1.15.32 6.11 6.11 0 0 0-1.33.78c-.74.55-1.12 1-1.15 1.4a.66.66 0 0 0 .32.62 7.14 7.14 0 0 0 1.54.84 9.46 9.46 0 0 1 2.59 1.52 2 2 0 0 1 .65 1.62 2.68 2.68 0 0 1-1.35 2.1 6.68 6.68 0 0 1-6 .19c-.74-.4-1.1-.9-1-1.44M232 44.1c-.58 0-1-.05-1.1-.08a1.2 1.2 0 0 1-.5-.15 1.17 1.17 0 0 1-.54-1.24 1.87 1.87 0 0 1 .23-.8c.13-.23.26-.35.4-.35a.24.24 0 0 1 .11 0 5.21 5.21 0 0 0 1.37.14h.5c0-.16 0-.45.08-.86a10.14 10.14 0 0 0 .05-1.75 1.61 1.61 0 0 1 0-.38.79.79 0 0 1 .41-.57 1.71 1.71 0 0 1 .89-.23 1.53 1.53 0 0 1 1 .33 1 1 0 0 1 .31.9c0 .2-.1.66-.2 1.37l-.15 1a12.77 12.77 0 0 1 1.69-.17q.82 0 .75.84a6.15 6.15 0 0 1-.34 1.29 1.15 1.15 0 0 1-.19.39.38.38 0 0 1-.28.09h-.76c-.2 0-.54 0-1 .07h-.22l-.3 2.06v.6a1 1 0 0 1 0 .21v.5l-.16 1.58a11.68 11.68 0 0 0 0 3.43.68.68 0 0 1 .06.33.81.81 0 0 1-.41.57 1.39 1.39 0 0 1-.83.26 1.27 1.27 0 0 1-1.29-1 8.55 8.55 0 0 1-.14-3.2c0-.63.2-1.84.44-3.62 0-.25.1-.78.24-1.57m18.72-1.56l-.23.5-1.24 2.68-.66 1.54a24.74 24.74 0 0 0-1.74 4.76 1.41 1.41 0 0 0 0 .3v.38a.35.35 0 0 1 0 .15.62.62 0 0 1-.32.51 1.44 1.44 0 0 1-.77.19 1.6 1.6 0 0 1-1.08-.32 2.45 2.45 0 0 1-.6-1.27 27.91 27.91 0 0 1-.47-2.79l-.37-3.93-.2-4a28.66 28.66 0 0 1 0-3 2.57 2.57 0 0 1 .35-1.26 1 1 0 0 1 .84-.36 1.85 1.85 0 0 1 .94.24 1.78 1.78 0 0 1 .64.64 1.48 1.48 0 0 1 .17.85c0-.08 0 .2-.1.9 0 .25-.07.55-.1.9a30.9 30.9 0 0 0-.07 3.45 23.7 23.7 0 0 0 .24 3.09l.17-.4.8-1.84 1.45-3.25 1.26-2.6a6.37 6.37 0 0 0 .31-.64 3.18 3.18 0 0 1 .45-.9 1.11 1.11 0 0 1 .9-.38 2.18 2.18 0 0 1 .9.21 1.76 1.76 0 0 1 .7.53 1.44 1.44 0 0 1 .32.61 4.82 4.82 0 0 1 0 1.08 20.71 20.71 0 0 0 .14 3.3l.43 3.67.26 1.2.13-.37.34-.94q1.37-3.84 2.73-6.86l.3-.7.24-.64c.25-.7.64-1 1.18-1a1.64 1.64 0 0 1 1.19.43 1.22 1.22 0 0 1 .42 1.06 3.9 3.9 0 0 1-.46 1.16c-.48.92-1.18 2.5-2.1 4.68l-.9 2.23q-.42 1.07-.66 1.77l-.76 2.32a13.6 13.6 0 0 0-.54 2v.4a.61.61 0 0 1-.37.5 1.86 1.86 0 0 1-.87.2 1.74 1.74 0 0 1-1-.24 1.7 1.7 0 0 1-.62-.84 8 8 0 0 1-.48-1.72l-.6-3.35-.42-2.7-.06-.46c0-.15 0-.38-.08-.7s-.06-.63-.1-.95m14.03 5.67v-.44a4.89 4.89 0 0 0-1.66.42 4 4 0 0 0-1.36.92 1.9 1.9 0 0 0-.58 1.14.52.52 0 0 0 .17.46.75.75 0 0 0 .53.17 3.18 3.18 0 0 0 1.22-.3 3.65 3.65 0 0 0 1.14-.75 1.47 1.47 0 0 0 .35-.54 6.92 6.92 0 0 0 .15-1.08m-.4 4a4.59 4.59 0 0 1-2.8 1 3 3 0 0 1-2.13-.75 2.13 2.13 0 0 1-.71-1.87 4.23 4.23 0 0 1 .67-1.84 6.24 6.24 0 0 1 1.51-1.66 9.5 9.5 0 0 1 4.08-1.66c0-.26.07-.48.08-.63a2.65 2.65 0 0 0-.07-1.14.51.51 0 0 0-.54-.34 1.61 1.61 0 0 0-1 .43 3.73 3.73 0 0 0-.88 1.05 1.18 1.18 0 0 1-1 .71 1 1 0 0 1-.73-.31.89.89 0 0 1-.28-.73 2.25 2.25 0 0 1 .47-1 5.9 5.9 0 0 1 1-1.18 4.41 4.41 0 0 1 2.81-1.22 2.44 2.44 0 0 1 2.07 1 3.8 3.8 0 0 1 .6 2.66c0 .27-.06.6-.1 1l-.13 1.3-.1 1.08c0 .06 0 .45-.1 1.18v.7a3.49 3.49 0 0 0 .09 1.72l.16.23a.27.27 0 0 1 0 .17 1.33 1.33 0 0 1-.62.9 1.88 1.88 0 0 1-1.14.46c-.6 0-1-.42-1.18-1.24m6.65-.92l.2-.43-.86-2.3-.9-3a15.81 15.81 0 0 1-.62-3.49 1.1 1.1 0 0 1 .44-.8 1.66 1.66 0 0 1 1-.3 1.28 1.28 0 0 1 1.29.68 1.79 1.79 0 0 1 .07.78 9.13 9.13 0 0 0 .35 2.45 19.57 19.57 0 0 0 .74 2.5l.2-.42.63-1.35a23.42 23.42 0 0 1 2-3.66 1.54 1.54 0 0 1 1.23-.72 1.66 1.66 0 0 1 1 .37.87.87 0 0 1 .46.77 1 1 0 0 1-.24.48l-.4.48a23.18 23.18 0 0 0-1.68 3.08l-.3.62q-.12.26-.3.6l-.7 1.5-.65 1.44-.5 1.2a15.59 15.59 0 0 0-1.18 3.71v.7a.55.55 0 0 1-.25.41.94.94 0 0 1-.57.17 1.65 1.65 0 0 1-1.22-.52 1.47 1.47 0 0 1-.45-1.2 14.77 14.77 0 0 1 1.2-3.68M135.5 66.5a9.47 9.47 0 0 1-1.11-.08 1.24 1.24 0 0 1-.5-.15 1.17 1.17 0 0 1-.54-1.24 2.2 2.2 0 0 1 .23-.8c.13-.23.26-.35.4-.35a.19.19 0 0 1 .11 0 5.27 5.27 0 0 0 1.37.14h.5c0-.16.05-.45.1-.86a10.14 10.14 0 0 0 .05-1.75 1.59 1.59 0 0 1 0-.38.81.81 0 0 1 .41-.57 1.73 1.73 0 0 1 .89-.22 1.49 1.49 0 0 1 1 .33 1 1 0 0 1 .31.89c0 .2-.08.66-.2 1.37l-.15 1a12.25 12.25 0 0 1 1.69-.16c.55 0 .8.28.75.83a6 6 0 0 1-.35 1.29 1.4 1.4 0 0 1-.18.4.39.39 0 0 1-.28.08h-.77c-.2 0-.53 0-1 .07h-.2l-.28 2.06v.4a1.91 1.91 0 0 1 0 .2v.22a4.2 4.2 0 0 0-.05.48l-.16 1.58a11.79 11.79 0 0 0 0 3.43.68.68 0 0 1 .06.33.79.79 0 0 1-.41.57 1.35 1.35 0 0 1-.83.27 1.26 1.26 0 0 1-1.28-1 8.29 8.29 0 0 1-.15-3.2l.45-3.62c0-.25.1-.78.23-1.57m8.63.68a20.63 20.63 0 0 0-.85 2.34 12.72 12.72 0 0 0-.39 2.08 2.78 2.78 0 0 0 .19 1.49.85.85 0 0 0 .83.54 1.53 1.53 0 0 0 1-.47 4.73 4.73 0 0 0 1-1.28 10.13 10.13 0 0 0 .73-1.86 11.66 11.66 0 0 0 .4-2.14 3.47 3.47 0 0 0-.15-1.61.8.8 0 0 0-.79-.54 1.16 1.16 0 0 0-.69.24 1.94 1.94 0 0 0-.54.6l-.2.36q-.15.3-.36.3a.26.26 0 0 1-.17-.05m1.26-3.34a2.07 2.07 0 0 1 1.29-.43 2.48 2.48 0 0 1 1.29.33 2.87 2.87 0 0 1 .9.93 5 5 0 0 1 .52 1.5 7.86 7.86 0 0 1 0 2 12.37 12.37 0 0 1-.67 3.15 9.84 9.84 0 0 1-1.39 2.66 5.23 5.23 0 0 1-1.59 1.43 3.79 3.79 0 0 1-1.91.52 3.24 3.24 0 0 1-1.94-.56 3 3 0 0 1-1.14-1.58 6.29 6.29 0 0 1-.23-2.48 14.43 14.43 0 0 1 .31-1.86 18 18 0 0 1 1.43-3.75c.8-1.48 1.55-2.23 2.27-2.23a1 1 0 0 1 .81.41m9.64 9.4a2.19 2.19 0 0 1 .47-1.2 1.12 1.12 0 0 1 .89-.49.83.83 0 0 1 .61.41 3.27 3.27 0 0 0 3 1.52 5.33 5.33 0 0 0 2-.32c.5-.22.77-.5.8-.87a.72.72 0 0 0-.25-.59 4.51 4.51 0 0 0-1-.6l-.15-.07-.3-.15a1.87 1.87 0 0 0-.32-.16l-.46-.2-1.37-.7a6.76 6.76 0 0 1-.73-.43 4 4 0 0 1-.62-.48 3.64 3.64 0 0 1-1.29-3.16 3.69 3.69 0 0 1 .69-1.84 8.65 8.65 0 0 1 1.9-1.87 27.58 27.58 0 0 1 3.46-2.27 6.92 6.92 0 0 1 3-1 1.61 1.61 0 0 1 1.53.84 4.47 4.47 0 0 1 .32 2.5 6.75 6.75 0 0 1-.69 2.67 1.66 1.66 0 0 1-1.53 1 1 1 0 0 1-.74-.28.69.69 0 0 1-.29-.62.89.89 0 0 1 .24-.4 2.84 2.84 0 0 0 .48-1.47c.07-.8-.1-1.22-.46-1.22a5.88 5.88 0 0 0-2.79 1.26c-1.6 1.12-2.43 2.06-2.5 2.8a1.26 1.26 0 0 0 .55 1.08 17 17 0 0 0 2.63 1.53 19.31 19.31 0 0 1 1.95 1.09 3.1 3.1 0 0 1 1.62 2.74 2.86 2.86 0 0 1-1.12 2 6.23 6.23 0 0 1-2.07 1.07 8.35 8.35 0 0 1-2.53.43h-.72a8.43 8.43 0 0 1-2.33-.37 3.27 3.27 0 0 1-1.48-.9 1.75 1.75 0 0 1-.43-1.32m15.43-3.56a9 9 0 0 0 2.34-1.78 3.52 3.52 0 0 0 1.11-1.82.44.44 0 0 0-.05-.28.3.3 0 0 0-.24-.1c-.42 0-.95.43-1.57 1.22a11.41 11.41 0 0 0-1.59 2.76m-.63 2.5a1.57 1.57 0 0 0 .45 1 1.41 1.41 0 0 0 1 .34 3.18 3.18 0 0 0 1.41-.35 5.18 5.18 0 0 0 1.37-1 2.55 2.55 0 0 0 .78-1.36.71.71 0 0 1 .78-.63 1.21 1.21 0 0 1 1 .38 1.25 1.25 0 0 1 .3 1 4.35 4.35 0 0 1-1.8 2.71 5.88 5.88 0 0 1-3.81 1.55 4.37 4.37 0 0 1-2.11-.52 3.42 3.42 0 0 1-1.38-1.46 3.82 3.82 0 0 1-.36-2.09 8.61 8.61 0 0 1 .79-2.83 13.75 13.75 0 0 1 1.69-2.84 8.69 8.69 0 0 1 2-1.91 3.51 3.51 0 0 1 1.95-.69 2.06 2.06 0 0 1 1.68.79 2.77 2.77 0 0 1 .53 2 5 5 0 0 1-.6 1.87 7.18 7.18 0 0 1-1.35 1.74 9.65 9.65 0 0 1-2 1.4 9.2 9.2 0 0 1-2.32.9m11.15 2.66a1 1 0 0 1-.43.7 1.56 1.56 0 0 1-.93.3 1.28 1.28 0 0 1-1.12-.63 3 3 0 0 1-.26-1.86c0-.06 0-.35.1-.85q0-.18 0-.27v-.3l.2-1.65.7-4.85.4-2.46.24-1.85a2.59 2.59 0 0 0 0-.69 3 3 0 0 1-.07-.44c0-.24.22-.47.6-.68a2.09 2.09 0 0 1 1.09-.32 1.2 1.2 0 0 1 .88.32 1 1 0 0 1 .28.85c0 .1-.05.3-.12.67l-.47 2.4-.72 4.75-.23 1.84-.13 1.1-.1 1.05-.1 1.5a3.88 3.88 0 0 0 .06.79l.08.3a.59.59 0 0 1 0 .27m4.9.01a1 1 0 0 1-.44.7 1.52 1.52 0 0 1-.93.3 1.28 1.28 0 0 1-1.11-.63 3.07 3.07 0 0 1-.27-1.86c0-.06 0-.35.1-.85a1.3 1.3 0 0 1 0-.27v-.3l.2-1.65.7-4.85.38-2.46.25-1.85a2.54 2.54 0 0 0 0-.69 4.21 4.21 0 0 1-.06-.44c0-.24.22-.47.58-.68a2.12 2.12 0 0 1 1.1-.32 1.22 1.22 0 0 1 .88.32 1 1 0 0 1 .27.85c0 .1 0 .3-.12.67l-.47 2.4-.7 4.75-.24 1.84-.13 1.1c-.04.27-.06.54-.1 1.05l-.1 1.5a3.37 3.37 0 0 0 0 .79l.1.3a.77.77 0 0 1 0 .27m10.65-9.22l-.1.5a11.54 11.54 0 0 0 3.6-1.29c1-.56 1.47-1.1 1.52-1.67s-.35-.84-1.17-1.16a8.46 8.46 0 0 0-3-.51l-.08.33-.76 3.8m-1.9-4.1a1.78 1.78 0 0 1-.68-.5.93.93 0 0 1-.16-.68 1.27 1.27 0 0 1 .49-.95 1.89 1.89 0 0 1 1.14-.38 2 2 0 0 1 .54-.43 1.12 1.12 0 0 1 .53-.11 1.61 1.61 0 0 1 1.13.51 12.8 12.8 0 0 1 3.53.76 5 5 0 0 1 2.11 1.47 3 3 0 0 1 .59 2.11 4.11 4.11 0 0 1-1.51 2.69 10.93 10.93 0 0 1-3.86 2.05l.2.33.82 1.33a24.71 24.71 0 0 0 2.5 3.58 2.65 2.65 0 0 0 .41.35 2.75 2.75 0 0 0 .45.18.92.92 0 0 1 .41.23.53.53 0 0 1 .1.4 1.33 1.33 0 0 1-.3.69 2.19 2.19 0 0 1-.66.56 1.75 1.75 0 0 1-.81.21c-.7 0-1.5-.52-2.4-1.58a26.33 26.33 0 0 1-1.58-2.18c-.48-.72-1-1.68-1.68-2.87l-.05.48-.17 1.58a24.76 24.76 0 0 0-.12 2.48 3.48 3.48 0 0 0 .09.81 1.49 1.49 0 0 1 .11.5.8.8 0 0 1-.46.56 1.78 1.78 0 0 1-.92.26 1.44 1.44 0 0 1-1-.4 1.66 1.66 0 0 1-.49-1.08v-1.2c0-.56.05-1.14.13-2l.37-3.2.6-3.54.66-3m12.92 8.15a9 9 0 0 0 2.34-1.78 3.52 3.52 0 0 0 1.11-1.82.38.38 0 0 0 0-.28.3.3 0 0 0-.24-.1c-.42 0-1 .43-1.57 1.22a11.41 11.41 0 0 0-1.64 2.76m-.63 2.5a1.57 1.57 0 0 0 .45 1 1.41 1.41 0 0 0 1 .34 3.18 3.18 0 0 0 1.41-.35 5.18 5.18 0 0 0 1.37-1 2.55 2.55 0 0 0 .78-1.36.71.71 0 0 1 .78-.63 1.21 1.21 0 0 1 .95.38 1.25 1.25 0 0 1 .3 1 4.35 4.35 0 0 1-1.8 2.71 5.86 5.86 0 0 1-3.81 1.55 4.37 4.37 0 0 1-2.11-.52 3.34 3.34 0 0 1-1.37-1.46 3.74 3.74 0 0 1-.37-2.09 8.86 8.86 0 0 1 .79-2.83 13.36 13.36 0 0 1 1.7-2.84 8.47 8.47 0 0 1 2-1.91 3.53 3.53 0 0 1 2-.69 2.06 2.06 0 0 1 1.68.79 2.72 2.72 0 0 1 .53 2 4.64 4.64 0 0 1-.6 1.87 7.18 7.18 0 0 1-1.35 1.74 9.65 9.65 0 0 1-2 1.4 9.2 9.2 0 0 1-2.32.9m13.62-1.57v-.44a4.89 4.89 0 0 0-1.66.42 4.13 4.13 0 0 0-1.36.92 2 2 0 0 0-.59 1.14.52.52 0 0 0 .18.46.74.74 0 0 0 .53.18 3.08 3.08 0 0 0 1.22-.31 4.08 4.08 0 0 0 1.14-.74 1.43 1.43 0 0 0 .35-.55 6.92 6.92 0 0 0 .15-1.08m-.4 4a4.58 4.58 0 0 1-2.79 1 3 3 0 0 1-2.13-.75 2.13 2.13 0 0 1-.71-1.87 4.38 4.38 0 0 1 .66-1.84 6.39 6.39 0 0 1 1.51-1.65 9.35 9.35 0 0 1 4.09-1.66c0-.27.06-.48.08-.64a2.82 2.82 0 0 0-.07-1.14.53.53 0 0 0-.54-.34 1.67 1.67 0 0 0-1 .43 3.73 3.73 0 0 0-.88 1.05 1.17 1.17 0 0 1-1 .71 1 1 0 0 1-.73-.31.89.89 0 0 1-.28-.72 2.35 2.35 0 0 1 .46-1 6.31 6.31 0 0 1 1.08-1.21 4.39 4.39 0 0 1 2.8-1.21 2.43 2.43 0 0 1 2.08 1 3.91 3.91 0 0 1 .6 2.66c0 .27-.06.6-.1 1l-.14 1.3-.1 1.08c0 .06 0 .45-.12 1.18v.43a2.6 2.6 0 0 0 0 .28 3.49 3.49 0 0 0 .09 1.72l.15.23v.17a1.35 1.35 0 0 1-.63.9 1.79 1.79 0 0 1-1.13.46c-.6 0-1-.4-1.2-1.24m7.6.2a1 1 0 0 1-.44.7 1.52 1.52 0 0 1-.93.3 1.27 1.27 0 0 1-1.11-.63 3.07 3.07 0 0 1-.27-1.86c0-.06 0-.35.1-.85a1.3 1.3 0 0 1 0-.27v-.3l.2-1.65.7-4.85.38-2.46.25-1.85a3 3 0 0 0 0-.69 4.21 4.21 0 0 1-.06-.44c0-.24.2-.47.58-.68a2.12 2.12 0 0 1 1.1-.32 1.22 1.22 0 0 1 .88.32 1 1 0 0 1 .27.85c0 .1 0 .3-.12.67l-.47 2.4-.72 4.75-.23 1.84-.13 1.1c-.04.27-.06.54-.1 1.05l-.1 1.5a3.37 3.37 0 0 0 .05.79l.1.3a.77.77 0 0 1 0 .27m10.57-5.15h-.33l-.06.43-.2 1.62a2.61 2.61 0 0 0 0 1c.08.17.26.25.55.25a6 6 0 0 0 .66 0h2.72a5 5 0 0 1 2.15.32 1.4 1.4 0 0 1 .54.54 1.37 1.37 0 0 1 .15.73 1.75 1.75 0 0 1-.18.63 1.67 1.67 0 0 1-.38.52.64.64 0 0 1-.43.21h-.17l-.3-.1a8.26 8.26 0 0 0-2.11-.21l-1.8.05c-1 0-1.68.1-2 .14a10.05 10.05 0 0 1-1.27.12.83.83 0 0 1-.9-.69 7.48 7.48 0 0 1 0-2.18c0-.4.08-.88.14-1.42 0-.16 0-.3.05-.42s0-.12 0-.2a1.76 1.76 0 0 0 0-.19s0-.2.07-.56v-.33a2.73 2.73 0 0 1-.47-1.44.88.88 0 0 1 .22-.53 1.92 1.92 0 0 1 .58-.41q.12-.82.27-1.68l.6-3 .28-1.25.06-.3a2.48 2.48 0 0 1-.26-1c0-.6.52-1 1.42-1.28a16.17 16.17 0 0 1 4.21-.39 7.72 7.72 0 0 1 2.58.28 1.2 1.2 0 0 1 .86 1.29 1.72 1.72 0 0 1-.38.91.88.88 0 0 1-.67.43h-.07l-.28-.12a5.46 5.46 0 0 0-1.52-.12l-2 .05a5 5 0 0 0-.91.12.58.58 0 0 0-.39.27 2.37 2.37 0 0 0-.21.69 4.47 4.47 0 0 1-.12.58q-.16.78-.48 2.67c-.06.28-.13.77-.2 1.46l2.4-.12a6.4 6.4 0 0 1 2.52.35 1.09 1.09 0 0 1 .64 1.18 1.69 1.69 0 0 1-.35.9.87.87 0 0 1-.64.41.46.46 0 0 1-.2-.05 2.74 2.74 0 0 0-.63-.14 10.18 10.18 0 0 0-1.12-.05h-2.72m7.47 4.24a1.5 1.5 0 0 1 .41-.8 1 1 0 0 1 .72-.39.56.56 0 0 1 .45.23l.3.3a3 3 0 0 0 2.24.66c1.1 0 1.66-.18 1.7-.53 0-.12-.1-.25-.3-.38l-.16-.1-.45-.2q-.22-.13-1.3-.66a17.13 17.13 0 0 1-2-1.14 2.66 2.66 0 0 1-.9-1 2.25 2.25 0 0 1-.18-1.18 3.25 3.25 0 0 1 .64-1.62 6 6 0 0 1 1.51-1.52 11.5 11.5 0 0 1 2.6-1.43 6.89 6.89 0 0 1 2.42-.54 1.61 1.61 0 0 1 1.37.63 2.64 2.64 0 0 1 .35 1.8 4.46 4.46 0 0 1-.6 1.91c-.34.56-.7.85-1.06.85a1 1 0 0 1-.74-.36.91.91 0 0 1-.32-.72 2.28 2.28 0 0 1 .33-.7 2.05 2.05 0 0 0 .28-.65c0-.28-.12-.42-.43-.42a3.27 3.27 0 0 0-1.14.33 5.91 5.91 0 0 0-1.34.77c-.74.56-1.12 1-1.15 1.4a.66.66 0 0 0 .32.61 7.14 7.14 0 0 0 1.54.84 9.46 9.46 0 0 1 2.59 1.52 2 2 0 0 1 .65 1.62 2.66 2.66 0 0 1-1.35 2.1 5.82 5.82 0 0 1-3.19.8 5.73 5.73 0 0 1-2.77-.61c-.74-.4-1.1-.88-1-1.44m12.3-7.35a9.47 9.47 0 0 1-1.11-.08 1.2 1.2 0 0 1-.5-.15 1.17 1.17 0 0 1-.54-1.24 2 2 0 0 1 .23-.8c.13-.23.26-.35.4-.35a.21.21 0 0 1 .11 0 5.21 5.21 0 0 0 1.37.14h.5c0-.16.05-.45.1-.86a11.31 11.31 0 0 0 0-1.75 1.2 1.2 0 0 1 0-.38.79.79 0 0 1 .41-.57 1.7 1.7 0 0 1 .89-.22 1.51 1.51 0 0 1 1 .33 1 1 0 0 1 .31.89c0 .2-.1.66-.2 1.37l-.15 1a12.37 12.37 0 0 1 1.76-.16c.54 0 .8.28.74.83a5.86 5.86 0 0 1-.34 1.29 1.35 1.35 0 0 1-.19.4.38.38 0 0 1-.28.08h-.76c-.2 0-.54 0-1 .07h-.2l-.3 2.06v.83c0 .06 0 .28-.06.48l-.16 1.58a12.05 12.05 0 0 0 0 3.43.68.68 0 0 1 .06.33.81.81 0 0 1-.41.57 1.4 1.4 0 0 1-.83.27 1.27 1.27 0 0 1-1.29-1 8.55 8.55 0 0 1-.14-3.2c0-.63.2-1.84.44-3.62 0-.25.1-.78.24-1.57m10.5 4.1v-.44a5 5 0 0 0-1.67.42 4.35 4.35 0 0 0-1.36.92 2 2 0 0 0-.58 1.14.54.54 0 0 0 .17.46.77.77 0 0 0 .54.18 3 3 0 0 0 1.21-.31 4 4 0 0 0 1.15-.74 1.4 1.4 0 0 0 .34-.55 5.7 5.7 0 0 0 .16-1.08m-.4 4a4.58 4.58 0 0 1-2.79 1 3.05 3.05 0 0 1-2.14-.75 2.15 2.15 0 0 1-.7-1.87 4.38 4.38 0 0 1 .66-1.84 6.39 6.39 0 0 1 1.51-1.65 9.35 9.35 0 0 1 4.09-1.66c0-.27.06-.48.07-.64a2.69 2.69 0 0 0-.06-1.14.53.53 0 0 0-.54-.34 1.67 1.67 0 0 0-1 .43 3.73 3.73 0 0 0-.88 1.05 1.17 1.17 0 0 1-1 .71 1 1 0 0 1-.74-.31.91.91 0 0 1-.27-.72 2.24 2.24 0 0 1 .46-1 6.31 6.31 0 0 1 1.06-1.18 4.39 4.39 0 0 1 2.8-1.21 2.43 2.43 0 0 1 2.08 1 3.91 3.91 0 0 1 .6 2.66c0 .27-.06.6-.1 1l-.14 1.3-.1 1.08c0 .06 0 .45-.1 1.18v.43a1.31 1.31 0 0 0 0 .28 3.49 3.49 0 0 0 .09 1.72l.15.23v.17a1.35 1.35 0 0 1-.63.9 1.79 1.79 0 0 1-1.13.46c-.6 0-1-.4-1.2-1.24m6.98-8.15a9.47 9.47 0 0 1-1.11-.08 1.24 1.24 0 0 1-.5-.15 1.17 1.17 0 0 1-.54-1.24 2.2 2.2 0 0 1 .23-.8c.13-.23.26-.35.4-.35a.19.19 0 0 1 .11 0 5.27 5.27 0 0 0 1.37.14h.5c0-.16 0-.45.1-.86a10.14 10.14 0 0 0 0-1.75 1.59 1.59 0 0 1 0-.38.81.81 0 0 1 .41-.57 1.73 1.73 0 0 1 .89-.22 1.49 1.49 0 0 1 1 .33 1 1 0 0 1 .31.89c0 .2-.08.66-.2 1.37l-.15 1a12.25 12.25 0 0 1 1.69-.16c.55 0 .8.28.75.83a6 6 0 0 1-.35 1.29 1.4 1.4 0 0 1-.18.4.39.39 0 0 1-.28.08h-.77c-.2 0-.53 0-1 .07h-.2l-.28 2.06v.4a1.91 1.91 0 0 1 0 .2v.22a4.2 4.2 0 0 0 0 .48l-.16 1.58a11.79 11.79 0 0 0 0 3.43.68.68 0 0 1 .06.33.79.79 0 0 1-.41.57 1.35 1.35 0 0 1-.83.27 1.26 1.26 0 0 1-1.28-1 8.29 8.29 0 0 1-.22-3.22c0-.63.2-1.84.45-3.62 0-.25.1-.78.23-1.57m8.03 3.2a9 9 0 0 0 2.34-1.78 3.52 3.52 0 0 0 1.11-1.82.38.38 0 0 0 0-.28.3.3 0 0 0-.24-.1c-.42 0-1 .43-1.57 1.22a11.41 11.41 0 0 0-1.59 2.76m-.63 2.5a1.57 1.57 0 0 0 .45 1 1.41 1.41 0 0 0 1 .34 3.18 3.18 0 0 0 1.41-.35 5.18 5.18 0 0 0 1.37-1 2.55 2.55 0 0 0 .78-1.36.71.71 0 0 1 .78-.63 1.21 1.21 0 0 1 1 .38 1.25 1.25 0 0 1 .3 1 4.35 4.35 0 0 1-1.8 2.71 5.86 5.86 0 0 1-3.81 1.55 4.37 4.37 0 0 1-2.11-.52 3.34 3.34 0 0 1-1.37-1.46 3.74 3.74 0 0 1-.37-2.09 8.61 8.61 0 0 1 .79-2.83 13.36 13.36 0 0 1 1.7-2.84 8.47 8.47 0 0 1 2-1.91 3.51 3.51 0 0 1 2-.69 2.06 2.06 0 0 1 1.68.79 2.77 2.77 0 0 1 .53 2 4.8 4.8 0 0 1-.6 1.87 7.18 7.18 0 0 1-1.35 1.74 9.65 9.65 0 0 1-2 1.4 9.2 9.2 0 0 1-2.32.9m8.22 2.23a1.68 1.68 0 0 1 .77-1.24 2.68 2.68 0 0 1 1.64-.5 2.14 2.14 0 0 1 .84.17 1.21 1.21 0 0 1 .56.48 1.24 1.24 0 0 1 .15.7 1.8 1.8 0 0 1-.78 1.27 2.71 2.71 0 0 1-1.64.54 1.65 1.65 0 0 1-1.17-.39 1.14 1.14 0 0 1-.37-1"/><use xlink:href="#B"/></g><path d="M114.56 57.3A57.28 57.28 0 1 1 57.28 0a57.28 57.28 0 0 1 57.28 57.29z" fill="#0166ff"/><path d="M81.74 79.13a.53.53 0 0 1 .54.65.82.82 0 0 1-.77.66.54.54 0 0 1-.54-.66.81.81 0 0 1 .77-.65zm3.66-3.03c1 0 1.6.55 1.5 1.1a.61.61 0 0 1-.63.51c-.55 0-.23-.7-1.07-.7-.46 0-1.05.3-1.24 1.36-.12.73.14 1.2.78 1.2.8 0 .77-.75 1.38-.75a.38.38 0 0 1 .41.45 1.91 1.91 0 0 1-2 1.21 1.6 1.6 0 0 1-1.74-2.11 2.54 2.54 0 0 1 2.6-2.27zm3.96 0a1.68 1.68 0 0 1 1.77 2.19 2.43 2.43 0 0 1-2.54 2.19c-1.6 0-2-1-1.77-2.2a2.51 2.51 0 0 1 2.54-2.19zm-.62 3.52c.7 0 1.1-.62 1.23-1.33s-.08-1.33-.76-1.33-1.1.57-1.23 1.33.06 1.38.76 1.38zm3.06-2.95a.65.65 0 0 1 .65-.58c.35 0 .5.23.45.58v.15a2 2 0 0 1 1.54-.73.94.94 0 0 1 1 .73 1.93 1.93 0 0 1 1.5-.73c.8 0 1.4.36 1.2 1.4l-.42 2.4a.63.63 0 0 1-.68.58c-.46 0-.54-.27-.48-.58l.37-2.1c.07-.42 0-.75-.5-.75a1.08 1.08 0 0 0-1 .9l-.34 1.94a.63.63 0 0 1-.69.58c-.45 0-.53-.27-.48-.58l.37-2.1c.08-.42 0-.75-.5-.75a1.08 1.08 0 0 0-1 .9l-.34 1.94a.64.64 0 0 1-.69.58c-.45 0-.53-.27-.48-.58zm-43.47-34.6c-4.56 0-8.64 2.36-9.75 7.6s1.95 7.64 6.5 7.64h.5a5.16 5.16 0 0 1 4.63-3.29 3.44 3.44 0 0 1 2.56 1.05 2.29 2.29 0 0 0 .47-1 1.5 1.5 0 0 0-1.39-1.89c-1.74 0-3.33 1.78-5.4 1.78-1.86 0-2.67-1.2-2.42-3h8.1c1.83 0 2.78-.6 3.14-2.33.44-2.18-.55-6.56-6.94-6.56zM50 48.1h-5.36a3.28 3.28 0 0 1 3.25-2.72c1.42 0 2.53.72 2.1 2.72zm49.24-6.04c-1.63 0-3 1.4-4.58 4.05l.22-1.1c.47-2.17-.5-2.94-1.92-2.94a3.26 3.26 0 0 0-3.19 2.83l-2 9.58c-.4 1.94.6 2.83 2.25 2.83a3.33 3.33 0 0 0 3.47-2.83l.84-4c.4-1.9 1.4-2.47 3-2.86l1.64-.4a3 3 0 0 0 2.11-2.56c.2-1.22-.1-2.6-1.84-2.6zM30.5 40.8c3.16 0 2.7 2.44 4.83 2.44a3.26 3.26 0 0 0 3.3-2.53c.72-3.36-3.86-4.25-7.55-4.25-5.55 0-8.44 3.14-9.16 6.47-.6 2.8.75 4.7 3.74 5.6l4 1.23c1.1.33 1.6.66 1.45 1.47-.28 1.22-1.53 1.66-2.84 1.66-3.13 0-2.8-2.9-5.08-2.9a3.3 3.3 0 0 0-3.25 2.61c-.38 1.8 1 4.8 7.75 4.8 4.22 0 8.75-2.05 9.75-6.8.75-3.47-1.22-5-4.4-5.94l-3.1-.9c-1.28-.36-2-.75-1.8-1.64s1.27-1.33 2.36-1.33zm31.4-4.2a3.33 3.33 0 0 0-3.47 2.83L55.57 52.9a4.62 4.62 0 0 1 2.81-.86 3.39 3.39 0 0 1 2.8 1.14v.05l2.93-13.8c.45-1.95-.55-2.83-2.2-2.83zm7.76 0a3.34 3.34 0 0 0-3.48 2.83L63 54.47c-.42 1.94.58 2.83 2.25 2.83a3.33 3.33 0 0 0 3.47-2.83l3.2-15.05c.42-1.95-.58-2.83-2.24-2.83zm14.97 14.34c1.83 0 2.78-.6 3.14-2.33.44-2.17-.56-6.55-6.94-6.55-4.56 0-8.64 2.36-9.75 7.6s1.94 7.64 6.5 7.64c5.52 0 7.83-1.64 8.16-3.22a1.5 1.5 0 0 0-1.39-1.89c-1.75 0-3.33 1.78-5.4 1.78-1.86 0-2.67-1.2-2.42-3zm-4.25-5.55c1.42 0 2.53.72 2.1 2.72h-5.36a3.26 3.26 0 0 1 3.25-2.72z" fill="#fff"/><path d="M52.42 58.14a3.66 3.66 0 0 1-3.46 2.94 2.4 2.4 0 0 1-2.42-2.94A3.65 3.65 0 0 1 50 55.21a2.4 2.4 0 0 1 2.42 2.93zM12.8 56a3.2 3.2 0 0 1 3.39-2.86c1.77 0 2.58.9 2.16 2.86l-1 4.83a5.74 5.74 0 0 1 4.5-2.22c4.78 0 5.3 4.78 4.72 7.58-1 4.7-4.14 7.67-8.14 7.67-1.64 0-3.72-.78-3.8-2.6h-.06a3.07 3.07 0 0 1-3.05 2.61c-1.72 0-2.36-.95-2-2.78zm4.86 13.67c1.94 0 2.86-1.75 3.16-3.3s.1-3.28-1.88-3.28c-1.25 0-2.42 1.1-2.86 3.14s-.06 3.44 1.58 3.44zm24.84-.42c-.22 1-.25 1.9-.4 2.58a2.93 2.93 0 0 1-3.11 2c-2 0-2.47-1-2.38-2.3a7.41 7.41 0 0 1-5.61 2.3c-3.17 0-5.14-1.3-4.45-4.5.5-2.42 2.56-4.22 8.33-4.58 2.17-.14 3.1-.45 3.3-1.42s-.5-1.4-2-1.4c-2.47 0-3.47 2-5.4 2-1.14 0-1.67-.64-1.42-1.78.44-2.14 3.75-3.53 7.72-3.53 3 0 7.55.7 6.78 4.28zm-5.08-2.28c-1 .86-2.8.7-3.94 1.1a1.64 1.64 0 0 0-1 1.2c-.17.86.53 1.4 1.44 1.4a3.15 3.15 0 0 0 3.17-2.08zm7.8-2.05a3.33 3.33 0 0 1 3.47-2.84c1.66 0 2.66.9 2.25 2.84l-1.26 6.1a3.34 3.34 0 0 1-3.47 2.83c-1.67 0-2.67-.9-2.25-2.83z" fill="#fbdb00"/><use xlink:href="#C" fill="#fecc00"/><g fill="#fbdb00"><use xlink:href="#C"/><path d="M69.55 58.6c4.55 0 7.63 2.36 6.52 7.6s-5.22 7.64-9.77 7.64-7.64-2.36-6.5-7.64 5.2-7.6 9.75-7.6zm-.8 3.84c-1.53 0-2.7 1.22-3.28 3.94-.5 2.4.14 3.64 1.67 3.64s2.67-1.23 3.17-3.64c.58-2.72-.03-3.94-1.56-3.94zm19.48-1a3.35 3.35 0 0 1 3.47-2.84c1.67 0 2.67.9 2.25 2.84l-2.05 9.7a3.1 3.1 0 0 1-3.33 2.72c-1.7 0-2.14-1-2-2.7h-.06a6.44 6.44 0 0 1-5.3 2.7c-4 0-5.06-2.45-4.4-5.6l1.44-6.8a3.35 3.35 0 0 1 3.47-2.84c1.67 0 2.67.9 2.25 2.84l-1.16 5.47c-.34 1.58.2 2.44 1.6 2.44s2.33-1.1 2.7-2.83zm9.72-4.3a3.2 3.2 0 0 1 3.39-2.86c1.78 0 2.58.9 2.17 2.86l-.4 1.83h1.66c1.14 0 1.67.53 1.42 1.67a1.92 1.92 0 0 1-2.11 1.67h-1.67l-1.36 6.3-.08.42c-.08.44.14.66.5.66 2.17 0 2.67.67 2.4 2-.25 1.17-1.2 2.17-4.47 2.17s-4.64-1.6-4-4.86l1.44-6.7h-1c-1.14 0-1.67-.53-1.45-1.67a2 2 0 0 1 2.1-1.67h1.06zm-85.78-9.2a2.77 2.77 0 0 1-1.95-4.72L29.43 24a2.76 2.76 0 0 1 3.91 0l13.28 13.28a2.77 2.77 0 1 1-3.92 3.91L31.38 29.87 14.13 47.12a2.76 2.76 0 0 1-1.96.81z"/></g><path d="M296.94 44.74a2.68 2.68 0 0 1-1.56.84 2.09 2.09 0 0 1-1.41-.23 1.4 1.4 0 0 1-.7-1 2.24 2.24 0 0 1 .14-1.14 3.22 3.22 0 0 1 .67-1.12 5.49 5.49 0 0 1 2.24-1.37v-.37a1.58 1.58 0 0 0-.21-.67.35.35 0 0 0-.38-.14.9.9 0 0 0-.52.34 2 2 0 0 0-.38.7.66.66 0 0 1-.53.52.68.68 0 0 1-.49-.12.59.59 0 0 1-.27-.4 1.32 1.32 0 0 1 .13-.64 3.49 3.49 0 0 1 .47-.79 2.49 2.49 0 0 1 1.53-1 1.61 1.61 0 0 1 1.41.4 2.36 2.36 0 0 1 .76 1.5c0 .16.05.35.08.6l.2 1.42s0 .27.1.7v.42a2 2 0 0 0 .31 1l.13.12a.34.34 0 0 1 0 .1.76.76 0 0 1-.25.59 1.06 1.06 0 0 1-.63.38c-.3.05-.6-.16-.84-.63zm-.34-2.4v-.26a2.77 2.77 0 0 0-1 .41 2.21 2.21 0 0 0-.69.67 1 1 0 0 0-.19.72.32.32 0 0 0 .17.25.51.51 0 0 0 .35.06 2.13 2.13 0 0 0 .7-.3 2 2 0 0 0 .58-.55.68.68 0 0 0 .13-.35 3 3 0 0 0-.05-.65zm5-2.67v.24a.73.73 0 0 0 .07-.24 8.77 8.77 0 0 1 .81-2 1.31 1.31 0 0 1 .86-.71.81.81 0 0 1 .71.27 3 3 0 0 1 .57 1.05 10.45 10.45 0 0 1 .42 1.8q.18 1.17.24 2a9.16 9.16 0 0 1 0 1.36.73.73 0 0 1-.62.78.92.92 0 0 1-.6-.12.62.62 0 0 1-.33-.41 1.6 1.6 0 0 1 0-.31 5.25 5.25 0 0 0 0-1c0-.44-.07-.85-.13-1.2q-.25-1.63-.5-1.6c-.1 0-.26.23-.44.63a9 9 0 0 0-.64 1.89 5.11 5.11 0 0 0-.14 1.61l.06.42a.49.49 0 0 1-.18.43.9.9 0 0 1-.51.26c-.46.08-.75-.27-.87-1 0-.27-.08-.64-.12-1.1l-.08-1c0-.22 0-.57-.08-1l-.15-1.7a2.76 2.76 0 0 0-.27-.81.8.8 0 0 1-.08-.21.5.5 0 0 1 .21-.44 1.14 1.14 0 0 1 .62-.27.72.72 0 0 1 .64.16 1.32 1.32 0 0 1 .32.76c0 .22.06.4.07.58l.07.6a2 2 0 0 0 .08.28zm8.82-3.34a12.14 12.14 0 0 0-.1-2 .3.3 0 0 0 0-.11v-.2a.47.47 0 0 1 .14-.41.86.86 0 0 1 .5-.22.94.94 0 0 1 .67.11.68.68 0 0 1 .34.53 5 5 0 0 1 0 .68 2.76 2.76 0 0 0 0 .41v1.1c0 .75.08 1.4.13 1.94l.17 1.36a9.11 9.11 0 0 0 .67 2.42 1.34 1.34 0 0 1 .09.26.51.51 0 0 1-.19.43.86.86 0 0 1-.5.27.77.77 0 0 1-.42-.06 1 1 0 0 1-.36-.32 3.65 3.65 0 0 1-.33-.89 3.25 3.25 0 0 1-.31.75 3.76 3.76 0 0 1-.42.58 2.21 2.21 0 0 1-.49.4 1.74 1.74 0 0 1-.57.19 1.63 1.63 0 0 1-1.05-.16 2.08 2.08 0 0 1-.83-.81 3.69 3.69 0 0 1-.45-1.31 6 6 0 0 1 0-1.7 7.68 7.68 0 0 1 .37-1.73 4 4 0 0 1 .73-1.33 1.71 1.71 0 0 1 1-.56 1.54 1.54 0 0 1 1.21.38zm-.08 2.15a2.22 2.22 0 0 0-.29-.87.48.48 0 0 0-.49-.25c-.36.05-.64.6-.83 1.6a7 7 0 0 0-.08 2.31c.1.64.3.94.6.9a.81.81 0 0 0 .45-.39 3.19 3.19 0 0 0 .41-.85 5.62 5.62 0 0 0 .25-1.26 4.69 4.69 0 0 0-.03-1.2zm10.7-15.13l.18.3.13-.32L322.9 20l.88-1.63a2.46 2.46 0 0 1 .46-.59 1 1 0 0 1 .47-.21 1.25 1.25 0 0 1 .57 0 1.09 1.09 0 0 1 .49.25.67.67 0 0 1 .23.39 1.36 1.36 0 0 1 0 .34 9.68 9.68 0 0 0 0 1.69c0 .4.07 1.1.18 2.17q.08 1 .24 2.3l.3 2.15.16 1 .1.5a2.11 2.11 0 0 0 .1.3l.1.18a.9.9 0 0 1 .08.23.6.6 0 0 1-.23.53 1.15 1.15 0 0 1-.64.32 1 1 0 0 1-.58 0 1.37 1.37 0 0 1-.45-.35 6.89 6.89 0 0 1-.51-2.09l-.36-2.56-.3-2.7v-.37c-.33.64-.75 1.6-1.27 2.85a9.38 9.38 0 0 0-.37 1 3 3 0 0 0-.09.75.78.78 0 0 1-.12.5.59.59 0 0 1-.41.2 1.28 1.28 0 0 1-.66 0 1.18 1.18 0 0 1-.51-.38 8.18 8.18 0 0 1-.63-1l-.34-.62-.4-.74-.46-.87-.25-.48v-.1l-.06-.12.2 2.4.28 2.08.33 1.7a4.06 4.06 0 0 0 .26.91l.15.27a.48.48 0 0 1 .07.2.61.61 0 0 1-.23.53 1.38 1.38 0 0 1-.69.32q-.84.13-1.2-1a12.17 12.17 0 0 1-.29-1.21l-.38-2.2-.26-2-.14-1.36-.08-1a15.54 15.54 0 0 1-.06-2.83 1.14 1.14 0 0 1 .35-.61 1 1 0 0 1 .61-.3 1.66 1.66 0 0 1 1.26.33.81.81 0 0 1 .23.22 3.24 3.24 0 0 1 .21.48l.66 1.46.55 1c.1.16.3.63.6 1.12zm10.32-2.97a1.36 1.36 0 0 1 .82-.44 1.68 1.68 0 0 1 .95.09 2.14 2.14 0 0 1 .78.56 3.58 3.58 0 0 1 .62 1 6.33 6.33 0 0 1 .38 1.37 9.72 9.72 0 0 1 .08 2.28 6.8 6.8 0 0 1-.51 2 3.37 3.37 0 0 1-.86 1.18 2.58 2.58 0 0 1-2.67.4 2.52 2.52 0 0 1-1.06-1 4.84 4.84 0 0 1-.58-1.72 9.44 9.44 0 0 1-.11-1.34 9.78 9.78 0 0 1 .1-1.42 8.39 8.39 0 0 1 .25-1.36c.3-1.13.68-1.74 1.18-1.8a.75.75 0 0 1 .63.21zm-.3 2.48a13 13 0 0 0-.19 1.74 8.9 8.9 0 0 0 .09 1.5 2.11 2.11 0 0 0 .39 1 .66.66 0 0 0 .67.28 1 1 0 0 0 .61-.44 2.72 2.72 0 0 0 .45-1 7 7 0 0 0 .19-1.39 8.73 8.73 0 0 0-.1-1.54 2.65 2.65 0 0 0-.38-1.12.61.61 0 0 0-.63-.29.74.74 0 0 0-.44.24 1.24 1.24 0 0 0-.27.49l-.07.27c0 .15-.1.24-.2.25a.17.17 0 0 1-.12.01zm7.58-2.33v.1a3.79 3.79 0 0 1 2.4-1.68 1.19 1.19 0 0 1 .81.12.83.83 0 0 1 .39.6 1.26 1.26 0 0 1-.17.86.85.85 0 0 1-.62.48h-.56a1.47 1.47 0 0 0-.78.46 3.06 3.06 0 0 0-.63 1 3.9 3.9 0 0 0-.27 1.25 8.57 8.57 0 0 0 .12 1.64 8.25 8.25 0 0 0 .18.86 4.73 4.73 0 0 0 .25.62 1.49 1.49 0 0 1 .12.31.6.6 0 0 1-.23.52 1.1 1.1 0 0 1-.65.33.74.74 0 0 1-.66-.15 1.8 1.8 0 0 1-.45-.81 13.73 13.73 0 0 1-.37-1.71l-.17-1.28-.15-1.37-.25-2a4.75 4.75 0 0 0-.17-.72 1.45 1.45 0 0 1-.07-.26.58.58 0 0 1 .22-.53 1.21 1.21 0 0 1 .66-.32c.54-.1.85.1.92.56v.1a.23.23 0 0 0 0 .11v.5a2.38 2.38 0 0 0 0 .3.46.46 0 0 1 .13.1zm6.54-.4c-.4 0-.67.07-.8.07a1 1 0 0 1-.37-.05.93.93 0 0 1-.58-.81 1.28 1.28 0 0 1 0-.59c0-.18.12-.28.2-.3h.08a3.42 3.42 0 0 0 1-.05l.35-.07c0-.12 0-.32-.1-.62a9 9 0 0 0-.26-1.23.79.79 0 0 1-.08-.26.52.52 0 0 1 .18-.45 1.06 1.06 0 0 1 .58-.25 1.16 1.16 0 0 1 .78.11.8.8 0 0 1 .36.6c0 .14.06.47.1 1 0 .26 0 .5.07.72a7.54 7.54 0 0 1 1.14-.3.52.52 0 0 1 .66.5 4.48 4.48 0 0 1 0 .95.75.75 0 0 1-.06.29.26.26 0 0 1-.18.1h-.53l-.7.15h-.14c0 .45.1.95.16 1.48v.3a.61.61 0 0 1 0 .15.86.86 0 0 1 0 .15v.34l.16 1.13a8.8 8.8 0 0 0 .61 2.41.54.54 0 0 1 .1.22.53.53 0 0 1-.19.45.85.85 0 0 1-.53.27 1 1 0 0 1-1-.53 6.29 6.29 0 0 1-.65-2.23l-.32-2.6c.02-.1-.02-.53-.06-1.06zm9.14-3.37a1.19 1.19 0 0 1 .26-.36.55.55 0 0 1 .31-.16 1.05 1.05 0 0 1 .71.18.82.82 0 0 1 .42.53.49.49 0 0 1 0 .17v.25a11.32 11.32 0 0 0 .1 2l.42 3.1c0 .24.07.44.1.57l.13.8a8.71 8.71 0 0 1 .13 1.84 3.26 3.26 0 0 1-.38 1.3 3.53 3.53 0 0 1-.63.82 4.36 4.36 0 0 1-1 .63 4.06 4.06 0 0 1-1.08.33 3.35 3.35 0 0 1-1.93-.2 1.38 1.38 0 0 1-1-1 1.17 1.17 0 0 1 .14-.73.69.69 0 0 1 .46-.42.47.47 0 0 1 .34.12 4 4 0 0 0 1 .51 1.81 1.81 0 0 0 .84.05 1.52 1.52 0 0 0 1.17-.88 2.76 2.76 0 0 0 .24-1.78c0-.28-.1-.55-.16-.8a4 4 0 0 1-.69 1.32 1.57 1.57 0 0 1-.94.51 1.79 1.79 0 0 1-1.66-.65 3.92 3.92 0 0 1-.94-2.14 8.53 8.53 0 0 1 0-2.21 7.21 7.21 0 0 1 .51-2.08c.5-1.15 1.1-1.78 1.85-1.9a1.82 1.82 0 0 1 1.28.3zm0 2.7c-.16-1-.44-1.42-.87-1.35a.7.7 0 0 0-.39.29 2.1 2.1 0 0 0-.33.63 8.58 8.58 0 0 0-.29 3.45c.1.75.37 1.1.76 1a1 1 0 0 0 .62-.53 3.45 3.45 0 0 0 .41-1.17c0-.37.1-.8.12-1.28a5.84 5.84 0 0 0-.02-1.04zm8.58 3.8a3 3 0 0 1-1.77 1 2.22 2.22 0 0 1-1.6-.29 1.71 1.71 0 0 1-.82-1.24 3 3 0 0 1 .15-1.36 3.93 3.93 0 0 1 .76-1.33 5.94 5.94 0 0 1 2.54-1.61q0-.28-.06-.45a2 2 0 0 0-.24-.79.4.4 0 0 0-.43-.18 1 1 0 0 0-.59.4 2.23 2.23 0 0 0-.43.84.74.74 0 0 1-.59.61.76.76 0 0 1-.56-.14.72.72 0 0 1-.32-.48 1.53 1.53 0 0 1 .15-.77 3.59 3.59 0 0 1 .53-.94 2.73 2.73 0 0 1 1.72-1.16 1.84 1.84 0 0 1 1.61.49 3 3 0 0 1 .88 1.8c0 .2.06.43.1.7l.14.94.1.77s0 .32.12.84l.05.3v.2a2.65 2.65 0 0 0 .36 1.2l.15.15a.24.24 0 0 1 0 .12.89.89 0 0 1-.27.7 1.2 1.2 0 0 1-.71.44c-.37.05-.7-.2-.97-.76zm-.4-2.86v-.32a3.28 3.28 0 0 0-1.08.48 2.48 2.48 0 0 0-.78.8 1.3 1.3 0 0 0-.21.86.42.42 0 0 0 .2.3.58.58 0 0 0 .4.07 2.13 2.13 0 0 0 .79-.35 2.41 2.41 0 0 0 .66-.65 1.06 1.06 0 0 0 .15-.42 6.22 6.22 0 0 0-.12-.77zm7.8-6.16a1.39 1.39 0 0 1 .25-.36.61.61 0 0 1 .32-.16 1 1 0 0 1 .71.18.82.82 0 0 1 .42.53.49.49 0 0 1 0 .17v.25a11.32 11.32 0 0 0 .1 2l.42 3.1c0 .24.07.44.1.57l.13.8a8.71 8.71 0 0 1 .13 1.84 3.26 3.26 0 0 1-.38 1.3 3.53 3.53 0 0 1-.63.82 4.36 4.36 0 0 1-1 .63 4.06 4.06 0 0 1-1.08.33 3.35 3.35 0 0 1-1.93-.2 1.38 1.38 0 0 1-1-1 1.16 1.16 0 0 1 .13-.73.7.7 0 0 1 .47-.42.47.47 0 0 1 .34.12 4 4 0 0 0 1 .51 1.81 1.81 0 0 0 .84.05 1.52 1.52 0 0 0 1.17-.88 2.76 2.76 0 0 0 .24-1.78l-.16-.8a4.45 4.45 0 0 1-.69 1.32 1.57 1.57 0 0 1-.94.51 1.79 1.79 0 0 1-1.66-.65 3.92 3.92 0 0 1-.94-2.14 8.17 8.17 0 0 1 0-2.22 7.22 7.22 0 0 1 .51-2.07c.5-1.15 1.1-1.78 1.85-1.9a1.82 1.82 0 0 1 1.28.3zm0 2.7c-.16-1-.44-1.42-.87-1.35a.65.65 0 0 0-.39.29 2.12 2.12 0 0 0-.34.63 9.08 9.08 0 0 0-.29 3.45c.12.75.38 1.1.77 1a1 1 0 0 0 .62-.53 3.24 3.24 0 0 0 .4-1.17 13.42 13.42 0 0 0 .13-1.28 5.84 5.84 0 0 0-.02-1.04zm6.2 2.4a1.24 1.24 0 0 0 .48.66 1.12 1.12 0 0 0 .76.13 2.17 2.17 0 0 0 .91-.41 3.26 3.26 0 0 0 .78-.83 1.7 1.7 0 0 0 .31-1 .44.44 0 0 1 .42-.52.92.92 0 0 1 .73.16 1 1 0 0 1 .37.65 2.82 2.82 0 0 1-.78 2.1 3.75 3.75 0 0 1-2.37 1.5 3.2 3.2 0 0 1-1.54-.13 2.74 2.74 0 0 1-1.2-.88 2.91 2.91 0 0 1-.62-1.42 6.15 6.15 0 0 1 .06-2.08 8.86 8.86 0 0 1 .69-2.17 5.19 5.19 0 0 1 1.05-1.56 2.29 2.29 0 0 1 1.23-.7 1.58 1.58 0 0 1 1.3.37 2.17 2.17 0 0 1 .71 1.34 3.29 3.29 0 0 1-.09 1.38 4.79 4.79 0 0 1-.64 1.36 6.28 6.28 0 0 1-1.11 1.2 6 6 0 0 1-1.45.85zm0-1.83a5.64 5.64 0 0 0 1.3-1.51 2.34 2.34 0 0 0 .46-1.4.31.31 0 0 0-.08-.19.26.26 0 0 0-.19-.05c-.3.07-.58.4-.87 1a7.28 7.28 0 0 0-.63 2.15zM325 41.94v-.3l-.1-.68-.14-.93-.15-1.2-.15-1.23a14.23 14.23 0 0 1-.14-1.67 2.71 2.71 0 0 1 .09-.94 1.1 1.1 0 0 1 .32-.56 1 1 0 0 1 .54-.29.86.86 0 0 1 .61.11.7.7 0 0 1 .32.51 1.45 1.45 0 0 1 0 .35l.06 1.6.2 2 .36 2.53.55 3.07a7.58 7.58 0 0 0 .31 1.21 1.59 1.59 0 0 1 .16.41.45.45 0 0 1-.18.39 1.06 1.06 0 0 1-.56.23 1.28 1.28 0 0 1-.84-.1 3.63 3.63 0 0 1-.9-.85l-1.38-1.8-1.45-2-.8-1.18-.76-1.13a25.59 25.59 0 0 0 .29 2.58l.2 1.15c0 .25.14.7.27 1.3l.25 1a5.15 5.15 0 0 0 .32.89.6.6 0 0 1 .07.2.47.47 0 0 1-.2.43 1.22 1.22 0 0 1-.61.27 1.13 1.13 0 0 1-.8-.12 1.2 1.2 0 0 1-.48-.71l-.2-.73-.2-.78-.4-2.18-.33-2.4-.23-2.47v-1.4a2.66 2.66 0 0 1 .13-.82.93.93 0 0 1 .34-.46 1.59 1.59 0 0 1 .62-.22 1.44 1.44 0 0 1 .63 0 .4.4 0 0 1 .29.31l.07.27a3.21 3.21 0 0 0 .26.59l.57.93.56.88a1.12 1.12 0 0 1 .12.17l.12.16.17.27.27.4.68 1 .9 1.28zm6.84-5a1.3 1.3 0 0 1 .82-.44 1.7 1.7 0 0 1 1 .09 2.23 2.23 0 0 1 .78.55 4.09 4.09 0 0 1 .62 1 6.34 6.34 0 0 1 .37 1.37 9.21 9.21 0 0 1 .08 2.28 6.24 6.24 0 0 1-.51 2 3.23 3.23 0 0 1-.85 1.18 2.41 2.41 0 0 1-1.23.57 2.32 2.32 0 0 1-1.44-.18 2.38 2.38 0 0 1-1.06-1 4.71 4.71 0 0 1-.58-1.72 8.17 8.17 0 0 1-.11-1.34 11.85 11.85 0 0 1 .34-2.78c.3-1.13.7-1.74 1.2-1.82a.78.78 0 0 1 .58.24zm-.3 2.48a14.7 14.7 0 0 0-.18 1.74 8.9 8.9 0 0 0 .13 1.51 2.12 2.12 0 0 0 .38 1 .67.67 0 0 0 .67.28 1 1 0 0 0 .62-.44 3.19 3.19 0 0 0 .45-1 7 7 0 0 0 .18-1.39 7.83 7.83 0 0 0-.09-1.54 2.8 2.8 0 0 0-.38-1.12.63.63 0 0 0-.64-.29.72.72 0 0 0-.43.24 1.13 1.13 0 0 0-.27.49l-.07.27c0 .15-.1.23-.2.25a.21.21 0 0 1-.17 0zm7.02-1.6l-.78.07a1 1 0 0 1-.37-.05.93.93 0 0 1-.59-.81 1.44 1.44 0 0 1 0-.59.31.31 0 0 1 .2-.3.13.13 0 0 1 .08 0 3.48 3.48 0 0 0 1-.06l.35-.07c0-.12 0-.32-.08-.6a10.21 10.21 0 0 0-.27-1.24 1.12 1.12 0 0 1-.08-.26.5.5 0 0 1 .19-.44 1.08 1.08 0 0 1 .57-.26 1.16 1.16 0 0 1 .78.11.86.86 0 0 1 .37.6c0 .15 0 .47.1 1 0 .26 0 .5.07.72a7.54 7.54 0 0 1 1.14-.3q.57-.1.66.5a4.2 4.2 0 0 1 0 .94 1.92 1.92 0 0 1-.06.3.38.38 0 0 1-.18.09h-.54l-.7.15h-.13c0 .45.08.94.15 1.48l.05.28a1 1 0 0 0 0 .15v.15a3.12 3.12 0 0 0 0 .35l.16 1.12a9.2 9.2 0 0 0 .61 2.41.47.47 0 0 1 .1.22.55.55 0 0 1-.18.45 1 1 0 0 1-.53.28 1 1 0 0 1-1.06-.54 6.51 6.51 0 0 1-.65-2.23l-.3-2.6c.02-.1-.01-.47-.06-1.04zm7.27 3a1.31 1.31 0 0 0 .48.67 1.12 1.12 0 0 0 .76.13 2.17 2.17 0 0 0 .91-.41 3.21 3.21 0 0 0 .77-.83 1.67 1.67 0 0 0 .32-1 .45.45 0 0 1 .42-.53 1 1 0 0 1 .73.16 1 1 0 0 1 .37.66 2.79 2.79 0 0 1-.78 2.09 3.75 3.75 0 0 1-2.37 1.51 3.08 3.08 0 0 1-1.54-.14 2.67 2.67 0 0 1-1.21-.87 3 3 0 0 1-.61-1.42 6.15 6.15 0 0 1 .06-2.08 8.94 8.94 0 0 1 .69-2.18 5.46 5.46 0 0 1 1-1.56 2.34 2.34 0 0 1 1.23-.69 1.51 1.51 0 0 1 1.3.37 2.15 2.15 0 0 1 .71 1.33 3.27 3.27 0 0 1-.09 1.38 4.72 4.72 0 0 1-.64 1.37 6.28 6.28 0 0 1-1.11 1.2 5.92 5.92 0 0 1-1.4.84zm0-1.82a5.64 5.64 0 0 0 1.31-1.51 2.34 2.34 0 0 0 .46-1.4.34.34 0 0 0-.08-.19.22.22 0 0 0-.19-.05c-.3.06-.58.4-.87 1a7.44 7.44 0 0 0-.63 2.15zm6.9 1.94a1 1 0 0 1 .15-.61.62.62 0 0 1 .43-.35.46.46 0 0 1 .35.11l.26.18a2.21 2.21 0 0 0 1.66.22c.76-.12 1.12-.3 1.08-.56 0-.1-.1-.16-.28-.23l-.13-.06-.33-.1c-.12-.05-.45-.15-1-.32a13.72 13.72 0 0 1-1.6-.58 2 2 0 0 1-.78-.58 1.74 1.74 0 0 1-.33-.8 2.16 2.16 0 0 1 .16-1.21 3.75 3.75 0 0 1 .78-1.23 7 7 0 0 1 1.56-1.29 4.41 4.41 0 0 1 1.58-.65 1.2 1.2 0 0 1 1.05.3 2 2 0 0 1 .55 1.22 3.16 3.16 0 0 1-.08 1.41c-.14.43-.34.67-.6.7a.79.79 0 0 1-.58-.17.76.76 0 0 1-.34-.47 1.45 1.45 0 0 1 .11-.53 1.34 1.34 0 0 0 .08-.49c0-.2-.16-.28-.37-.25a2.28 2.28 0 0 0-.74.36 4 4 0 0 0-.78.69c-.42.47-.6.84-.56 1.1a.56.56 0 0 0 .33.4 5.42 5.42 0 0 0 1.21.42 7.5 7.5 0 0 1 2 .78 1.61 1.61 0 0 1 .73 1.07 1.73 1.73 0 0 1-.57 1.62 3.75 3.75 0 0 1-2.07.91 4.19 4.19 0 0 1-2-.12c-.56-.18-.88-.5-.94-.9zm-67.4 17.56c-.32-.66-.37-1.28-.16-1.46a3.17 3.17 0 0 0 .62-.71 11.25 11.25 0 0 0 1.18-2.63l.78-2.08a7.54 7.54 0 0 1 1.51-2.34 4.45 4.45 0 0 1 .61-.51l.16-.12-.18.23-.5.5a5.68 5.68 0 0 0-.53 1.08 2.18 2.18 0 0 0 .17 1.1s-.17-.1-.3-.35a1.38 1.38 0 0 1 0-1 3.76 3.76 0 0 1 1.46-1.57l1.25-.95.22 1.58a88 88 0 0 1 .91 10.83c0 3-.23 5-.4 5s-.3-2-.65-5-1-6.8-1.73-10.6l1.46.63a.8.8 0 0 0-.21.25c-.07.1.08.2.18.14s.27-.56-.33.12a10 10 0 0 0-1.57 3.63 13.38 13.38 0 0 1-1.32 3.28 5.66 5.66 0 0 1-1.08 1.29 1 1 0 0 1-1.56-.35z" fill="#238ee0"/><path d="M199.05 14.85" fill="none" stroke="#8ac3ee" stroke-miterlimit="10" stroke-width=".17"/><use xlink:href="#B" x="-187" y="28" fill="#131016"/><path d="M135.7 85.77l-.34 3.56-.1 2.92v1.5a2.25 2.25 0 0 0 .11.64 1.33 1.33 0 0 1 .11.4q0 .23-.3.4a1.46 1.46 0 0 1-.71.17.87.87 0 0 1-.57-.19 1 1 0 0 1-.35-.51 7.24 7.24 0 0 1-.15-1.77l.1-3.4c0-.75.1-1.84.23-3.27v-.3h-.28l-.6.06a7.31 7.31 0 0 1-1 .06 1 1 0 0 1-.42-.07.87.87 0 0 1-.27-.25 1.34 1.34 0 0 1-.23-.77.9.9 0 0 1 .16-.57.55.55 0 0 1 .46-.21h.77c.2 0 .62 0 1.24-.08l.7-.06h.48l1.06-.06 1.6-.07a2.07 2.07 0 0 1 1.12.22.85.85 0 0 1 .33.74 1 1 0 0 1-.18.64.56.56 0 0 1-.46.26h-.23l-.5-.07h-1.16c0-.01-.23-.01-.63.1zm5.36 1.67a1.27 1.27 0 0 1 .84-.28 1.77 1.77 0 0 1 .88.22 2.07 2.07 0 0 1 .65.61 3.29 3.29 0 0 1 .43 1 5.19 5.19 0 0 1 .15 1.29 8.25 8.25 0 0 1-.26 2.06 6.24 6.24 0 0 1-.78 1.75 3.09 3.09 0 0 1-1 .93 2.55 2.55 0 0 1-2.58 0 2.3 2.3 0 0 1-.85-1 4.09 4.09 0 0 1-.29-1.63 7.43 7.43 0 0 1 .1-1.22 10.27 10.27 0 0 1 .74-2.45c.44-1 .9-1.46 1.38-1.46a.73.73 0 0 1 .59.18zm-.65 2.2a11 11 0 0 0-.43 1.54 6.75 6.75 0 0 0-.14 1.36 2 2 0 0 0 .2 1 .65.65 0 0 0 .59.35.92.92 0 0 0 .65-.31 2.69 2.69 0 0 0 .57-.84 6 6 0 0 0 .39-1.22 7.47 7.47 0 0 0 .14-1.4 2.4 2.4 0 0 0-.19-1.05.6.6 0 0 0-.56-.36.71.71 0 0 0-.45.16 1 1 0 0 0-.32.4l-.1.23c-.06.13-.13.2-.22.2a.19.19 0 0 1-.12-.02zm6.66 5.03a.58.58 0 0 1-.25.45.93.93 0 0 1-.61.2 1 1 0 0 1-.78-.41 2.07 2.07 0 0 1-.28-1.22v-.93l.05-1.08q0-.94.18-3.18l.1-1.62c0-.55.06-.95.06-1.2a1.47 1.47 0 0 0-.05-.45 2 2 0 0 1-.06-.29c0-.16.1-.3.34-.45a1.34 1.34 0 0 1 .72-.21.84.84 0 0 1 .6.21.7.7 0 0 1 .24.56v.44l-.18 1.58q-.14 1.26-.2 3.12l-.05 1.2c-.05.3 0 .54 0 .72v1.7a1.8 1.8 0 0 0 .08.51l.07.2a.34.34 0 0 1 .02.16zm3.23 0a.58.58 0 0 1-.25.45.93.93 0 0 1-.61.2 1 1 0 0 1-.78-.41 2.07 2.07 0 0 1-.28-1.22v-2c0-.63.08-1.7.2-3.18l.1-1.62c0-.55.06-.95.06-1.2a1.87 1.87 0 0 0 0-.45 2 2 0 0 1-.06-.29c0-.16.1-.3.34-.45a1.34 1.34 0 0 1 .72-.21.84.84 0 0 1 .6.21.7.7 0 0 1 .24.56c0 .06 0 .2-.05.44 0 .45-.1 1-.17 1.58q-.14 1.26-.2 3.12v3.6a2.15 2.15 0 0 0 .09.51l.07.2a.48.48 0 0 1-.01.16zm6.5-3.82q-.07 1-.1 1.92v.82a2.52 2.52 0 0 0 .14.93 1.06 1.06 0 0 1 .1.3.43.43 0 0 1-.27.36 1.21 1.21 0 0 1-.62.16 1.06 1.06 0 0 1-.65-.19 1 1 0 0 1-.4-.51 5.46 5.46 0 0 1-.14-1.5l.07-2.05v-.23a1.5 1.5 0 0 1-.36-.88.6.6 0 0 1 .46-.6c0-.3.06-.77.13-1.42 0-.17.05-.5.1-1 0-.15.05-.3.07-.5 0-.36.07-.52.07-.5v-.18a2.21 2.21 0 0 1-.21-.7.63.63 0 0 1 .24-.51 2 2 0 0 1 .78-.34 11.73 11.73 0 0 1 2.74-.23 4.78 4.78 0 0 1 1.78.23.82.82 0 0 1 .51.81 1 1 0 0 1-.19.58.56.56 0 0 1-.41.26h-.17l-.2-.06a2.48 2.48 0 0 0-.69-.06 13 13 0 0 0-1.94.1.92.92 0 0 0-.41.13 1.08 1.08 0 0 0-.13.44c0 .24-.06.47-.08.7s0 .23 0 .3v1.7a8 8 0 0 1 .82-.05h.93a4 4 0 0 1 1.61.23.85.85 0 0 1 .45.83.92.92 0 0 1-.18.54.52.52 0 0 1-.4.27h-.15a3.07 3.07 0 0 0-1-.11 16.75 16.75 0 0 0-2.33.01zm6.56-2.25v.06a3.68 3.68 0 0 1 2.51-1.17 1.13 1.13 0 0 1 .74.23.73.73 0 0 1 .29.6 1.12 1.12 0 0 1-.29.74.85.85 0 0 1-.66.35.39.39 0 0 1-.14 0l-.2-.05h-.18a1.48 1.48 0 0 0-.8.3 3 3 0 0 0-.74.79 3.46 3.46 0 0 0-.44 1.09 7.55 7.55 0 0 0-.13 1.49 5.7 5.7 0 0 0 0 .8 4.34 4.34 0 0 0 .14.6 1 1 0 0 1 .07.29.56.56 0 0 1-.3.44 1.18 1.18 0 0 1-.65.2.75.75 0 0 1-.6-.23 1.57 1.57 0 0 1-.31-.8 10.93 10.93 0 0 1-.09-1.58v-1.18l.06-1.25.06-1.8a4.91 4.91 0 0 0 0-.67 1 1 0 0 1 0-.24.53.53 0 0 1 .29-.45 1.23 1.23 0 0 1 .67-.19c.52 0 .78.22.78.64v.06a.25.25 0 0 0 0 .1v.47a1.5 1.5 0 0 0 0 .27l-.07.1zm5.4 4.34a1.17 1.17 0 0 0 .36.66 1 1 0 0 0 .69.23 2 2 0 0 0 .92-.24 3 3 0 0 0 .86-.64 1.42 1.42 0 0 0 .44-.88.43.43 0 0 1 .45-.4.88.88 0 0 1 .65.25.87.87 0 0 1 .26.64 2.6 2.6 0 0 1-1.05 1.78 3.64 3.64 0 0 1-2.45 1 3.18 3.18 0 0 1-1.44-.34 2.52 2.52 0 0 1-1-1 2.64 2.64 0 0 1-.36-1.37 5.55 5.55 0 0 1 .36-1.86 7.86 7.86 0 0 1 1-1.86 5.2 5.2 0 0 1 1.23-1.24 2.26 2.26 0 0 1 1.27-.45 1.49 1.49 0 0 1 1.17.52 1.9 1.9 0 0 1 .46 1.3 3 3 0 0 1-.29 1.23 4.46 4.46 0 0 1-.8 1.14 6 6 0 0 1-1.23.92 5.64 5.64 0 0 1-1.5.61zm.28-1.65a5.23 5.23 0 0 0 1.46-1.17 2.08 2.08 0 0 0 .64-1.19.26.26 0 0 0 0-.18.22.22 0 0 0-.17-.07c-.28 0-.6.28-1 .8a6.52 6.52 0 0 0-.93 1.81zm6.7 1.65a1.17 1.17 0 0 0 .36.66 1 1 0 0 0 .69.23 2 2 0 0 0 .92-.24 2.8 2.8 0 0 0 .85-.64 1.39 1.39 0 0 0 .45-.88.43.43 0 0 1 .46-.4.89.89 0 0 1 .66.25.87.87 0 0 1 .26.64 2.6 2.6 0 0 1-1.05 1.78 3.66 3.66 0 0 1-2.46 1 3.14 3.14 0 0 1-1.43-.34 2.52 2.52 0 0 1-1-1 2.64 2.64 0 0 1-.36-1.37 5.55 5.55 0 0 1 .36-1.86 7.86 7.86 0 0 1 1-1.86 5.2 5.2 0 0 1 1.22-1.25 2.26 2.26 0 0 1 1.27-.45 1.49 1.49 0 0 1 1.17.52 1.9 1.9 0 0 1 .46 1.3 3 3 0 0 1-.29 1.23 4.46 4.46 0 0 1-.8 1.14 6 6 0 0 1-1.23.92 5.64 5.64 0 0 1-1.51.62zm.28-1.65a5.23 5.23 0 0 0 1.46-1.17 2.08 2.08 0 0 0 .64-1.19.26.26 0 0 0 0-.18.22.22 0 0 0-.17-.07c-.28 0-.6.28-1 .8a6.52 6.52 0 0 0-.93 1.81z" fill="#0d83dd"/><a class="toll-free" href="tel:+18003006290"><path d="M185.38 86.2c-.64-.12-1-.4-1-.83a.28.28 0 0 1 0-.13l.24-.16a2.1 2.1 0 0 0 .49-.4 3.76 3.76 0 0 1 .55-.5.83.83 0 0 1 .44-.12.69.69 0 0 1 .51.18l.24.22.22.2a.47.47 0 0 1 .19.37 7.83 7.83 0 0 1-.08.84l-.1.9a1.14 1.14 0 0 1 0 .15v.2c0 .05 0 .3-.05.5l-.2 2.07-.12 1.93v1.7a6.25 6.25 0 0 0 0 .74 1.71 1.71 0 0 0 .12.47.72.72 0 0 1 .08.24.47.47 0 0 1-.27.39 1.13 1.13 0 0 1-.62.17 1 1 0 0 1-.56-.16.82.82 0 0 1-.39-.39 4.51 4.51 0 0 1-.18-1.57l.1-2.66.23-2.9.13-1.18s.03-.1.04-.24zm3.42 5q.1-.78 1.7-.78a4.59 4.59 0 0 1 1.66.24.72.72 0 0 1 .52.73.73.73 0 0 1-.13.45.4.4 0 0 1-.34.19h-.2l-.23-.06a4.24 4.24 0 0 0-1.14-.14 4.16 4.16 0 0 0-1.09.11l-.26.06a.4.4 0 0 1-.34-.23.94.94 0 0 1-.15-.57zm9.3-1l.2.2.9 1a6.42 6.42 0 0 1 .88 1.22 1.88 1.88 0 0 1 .26.93 1.34 1.34 0 0 1-.76 1.21 4.65 4.65 0 0 1-1.16.43 6.7 6.7 0 0 1-1.37.14 5.15 5.15 0 0 1-1.7-.26 2.58 2.58 0 0 1-1.13-.75 1.77 1.77 0 0 1-.4-1.12 2.7 2.7 0 0 1 .53-1.54 5 5 0 0 1 .5-.62l.64-.65.18-.18a4.2 4.2 0 0 1-1.6-2.85 2.07 2.07 0 0 1 1.24-1.89l.6-.3a6.93 6.93 0 0 1 .73-.27 8.7 8.7 0 0 1 1.62-.39 9.46 9.46 0 0 1 1.61-.15 4 4 0 0 1 1.89.36 1.13 1.13 0 0 1 .65 1 .94.94 0 0 1-.49.76 2.63 2.63 0 0 1-.5.93 6.56 6.56 0 0 1-.59.59l-1.13.86a19.56 19.56 0 0 0-1.62 1.32zm-1.3 1.15a4 4 0 0 0-.85.92 1.64 1.64 0 0 0-.32.86.59.59 0 0 0 .4.54 2.43 2.43 0 0 0 1.09.2 1.7 1.7 0 0 0 .85-.18.56.56 0 0 0 .31-.49c0-.34-.5-.96-1.48-1.85zm.17-2.32l.12-.1.4-.26.48-.38c.07-.05.28-.22.62-.5l1-.8.58-.53-.07-.05a.52.52 0 0 1-.18-.15l-.06-.1a.37.37 0 0 0-.34-.17 6 6 0 0 0-1.18.15 9.34 9.34 0 0 0-1.3.38 3.25 3.25 0 0 0-.88.48.73.73 0 0 0-.27.55 1.46 1.46 0 0 0 .41.78 8.32 8.32 0 0 0 .67.72zm5.73 1.13a10.25 10.25 0 0 1 .12-1.59 8.77 8.77 0 0 1 .36-1.49 8.61 8.61 0 0 1 .58-1.29 4.83 4.83 0 0 1 .72-.95 2.54 2.54 0 0 1 1.8-.82 1.28 1.28 0 0 1 1 .32l.2.2a2.12 2.12 0 0 0 .41.31 4.15 4.15 0 0 1 1 1.1 5.87 5.87 0 0 1 .64 1.57 8.61 8.61 0 0 1 .21 1.94 10.16 10.16 0 0 1-.26 2.34 6.82 6.82 0 0 1-.75 1.86 4 4 0 0 1-1.16 1.25 2.43 2.43 0 0 1-1.42.44 2.65 2.65 0 0 1-1.75-.66 3.55 3.55 0 0 1-.71-.8 4.8 4.8 0 0 1-.52-1 7.57 7.57 0 0 1-.46-2.72zm3.42 3.25a1.22 1.22 0 0 0 1-.51 3.9 3.9 0 0 0 .65-1.46 9.06 9.06 0 0 0 .22-2.11 5.53 5.53 0 0 0-.45-2.47 1.38 1.38 0 0 0-1.23-.89 1.12 1.12 0 0 0-.88.57 4.41 4.41 0 0 0-.64 1.55 8.9 8.9 0 0 0-.24 2.08 6.86 6.86 0 0 0 .19 1.72 2.41 2.41 0 0 0 .56 1.12 1.13 1.13 0 0 0 .82.4zm5.08-3.25a10.25 10.25 0 0 1 .12-1.59 8.77 8.77 0 0 1 .36-1.49 7.71 7.71 0 0 1 .59-1.29 4.47 4.47 0 0 1 .72-.95 2.51 2.51 0 0 1 1.8-.82 1.27 1.27 0 0 1 1 .32l.2.2a2.52 2.52 0 0 0 .41.31 3.85 3.85 0 0 1 1 1.1 5.56 5.56 0 0 1 .64 1.57 8.61 8.61 0 0 1 .21 1.94 9.64 9.64 0 0 1-.26 2.34 6.82 6.82 0 0 1-.75 1.86 4 4 0 0 1-1.15 1.25 2.49 2.49 0 0 1-1.43.44 2.65 2.65 0 0 1-1.75-.66 3.81 3.81 0 0 1-.71-.8 5.31 5.31 0 0 1-.52-1 7.81 7.81 0 0 1-.47-2.72zm3.42 3.25a1.26 1.26 0 0 0 1-.51 3.9 3.9 0 0 0 .64-1.46 9 9 0 0 0 .23-2.11 5.53 5.53 0 0 0-.45-2.47 1.4 1.4 0 0 0-1.24-.89 1.14 1.14 0 0 0-.88.57 4.61 4.61 0 0 0-.64 1.55 8.9 8.9 0 0 0-.24 2.08 7.35 7.35 0 0 0 .19 1.72 2.33 2.33 0 0 0 .57 1.12 1.11 1.11 0 0 0 .82.4zm5.15-2.2q.1-.78 1.7-.78a4.59 4.59 0 0 1 1.66.24.73.73 0 0 1 .52.73.8.8 0 0 1-.13.45.4.4 0 0 1-.34.19h-.2l-.24-.06a5 5 0 0 0-2.22 0 1.11 1.11 0 0 1-.27.06.39.39 0 0 1-.33-.23.94.94 0 0 1-.15-.6zm10.73-1.7a2.39 2.39 0 0 1 1.41.87 2.55 2.55 0 0 1 .51 1.62 3.15 3.15 0 0 1-.29 1.33 3.38 3.38 0 0 1-.89 1.1 4.61 4.61 0 0 1-3 .93 6 6 0 0 1-1.92-.3 3.68 3.68 0 0 1-1.44-.8 1.47 1.47 0 0 1-.53-1.06.59.59 0 0 1 .28-.52 1.13 1.13 0 0 1 .71-.2 1.48 1.48 0 0 1 .51.09.42.42 0 0 1 .29.24l.13.27a1 1 0 0 0 .64.49 3.35 3.35 0 0 0 1.17.18 3 3 0 0 0 1.68-.43 2.13 2.13 0 0 0 .66-.64 1.41 1.41 0 0 0 .22-.74.91.91 0 0 0-.43-.81 2.23 2.23 0 0 0-1.22-.28 4.66 4.66 0 0 0-1.56.27 1.76 1.76 0 0 1-.42.12c-.17 0-.33-.12-.47-.35a1.47 1.47 0 0 1-.21-.78.73.73 0 0 1 .12-.48.68.68 0 0 1 .45-.18 6.48 6.48 0 0 0 2.55-1 6.17 6.17 0 0 0 1.19-.94 1.33 1.33 0 0 0 .42-.79.52.52 0 0 0-.18-.43.84.84 0 0 0-.55-.15 3.18 3.18 0 0 0-1.13.26 6.51 6.51 0 0 0-1.28.67 4.46 4.46 0 0 0-1 .88l-.22.26a.65.65 0 0 1-.49.28.88.88 0 0 1-.66-.3.93.93 0 0 1-.3-.68c0-.58.62-1.22 1.86-1.93a7.07 7.07 0 0 1 3.42-1.15 2.78 2.78 0 0 1 1.27.29 2.21 2.21 0 0 1 .9.78 2.12 2.12 0 0 1 .32 1.13 2.75 2.75 0 0 1-1.49 2.29 9.93 9.93 0 0 1-1.03.59zm3.4.66a10.25 10.25 0 0 1 .12-1.59 8.77 8.77 0 0 1 .36-1.49 8.6 8.6 0 0 1 .59-1.29 4.83 4.83 0 0 1 .72-.95 2.54 2.54 0 0 1 1.8-.82 1.25 1.25 0 0 1 1 .32l.2.2a3.11 3.11 0 0 0 .41.31 3.85 3.85 0 0 1 1 1.1 5.56 5.56 0 0 1 .64 1.57 8.06 8.06 0 0 1 .22 1.94 9.63 9.63 0 0 1-.27 2.34 6.52 6.52 0 0 1-.75 1.86 4 4 0 0 1-1.15 1.25 2.46 2.46 0 0 1-1.43.44 2.67 2.67 0 0 1-1.75-.66 3.81 3.81 0 0 1-.71-.8 5.92 5.92 0 0 1-.52-1 7.81 7.81 0 0 1-.47-2.72zm3.42 3.25a1.23 1.23 0 0 0 1-.51 3.9 3.9 0 0 0 .64-1.46 9 9 0 0 0 .23-2.11 5.53 5.53 0 0 0-.45-2.47 1.4 1.4 0 0 0-1.24-.89 1.14 1.14 0 0 0-.88.57 4.61 4.61 0 0 0-.63 1.55 8.4 8.4 0 0 0-.25 2.08 6.83 6.83 0 0 0 .2 1.72 2.41 2.41 0 0 0 .56 1.12 1.11 1.11 0 0 0 .82.4zm5.06-3.26a10.25 10.25 0 0 1 .12-1.59 8.77 8.77 0 0 1 .36-1.49 7.7 7.7 0 0 1 .58-1.29 4.83 4.83 0 0 1 .72-.95 2.54 2.54 0 0 1 1.8-.82 1.28 1.28 0 0 1 1 .32l.2.2a2.3 2.3 0 0 0 .4.31 4 4 0 0 1 1 1.1 5.55 5.55 0 0 1 .63 1.57 8.06 8.06 0 0 1 .22 1.94 9.63 9.63 0 0 1-.27 2.34 6.51 6.51 0 0 1-.74 1.86 4 4 0 0 1-1.16 1.25 2.43 2.43 0 0 1-1.42.44 2.68 2.68 0 0 1-1.76-.66 3.76 3.76 0 0 1-.7-.8 4.8 4.8 0 0 1-.52-1 7.57 7.57 0 0 1-.45-2.72zm3.42 3.25a1.22 1.22 0 0 0 1-.51 3.9 3.9 0 0 0 .65-1.46 9.06 9.06 0 0 0 .22-2.11 5.53 5.53 0 0 0-.45-2.47 1.39 1.39 0 0 0-1.23-.89 1.12 1.12 0 0 0-.88.57 4.41 4.41 0 0 0-.64 1.55 8.9 8.9 0 0 0-.24 2.08 6.86 6.86 0 0 0 .19 1.72 2.41 2.41 0 0 0 .56 1.12 1.13 1.13 0 0 0 .82.4zm5.16-2.2q.1-.78 1.7-.78a4.57 4.57 0 0 1 1.65.24.72.72 0 0 1 .52.73.73.73 0 0 1-.13.45.39.39 0 0 1-.34.19h-.2l-.23-.06a4.24 4.24 0 0 0-1.14-.14 4.07 4.07 0 0 0-1.08.11 1.22 1.22 0 0 1-.27.06.39.39 0 0 1-.33-.23.94.94 0 0 1-.15-.57zm8.67-3.6a4.4 4.4 0 0 1 1.17-.2 3.59 3.59 0 0 1 1.78.45 3.38 3.38 0 0 1 1.25 1.24 3.51 3.51 0 0 1 .45 1.75 4.25 4.25 0 0 1-.6 2.19 4.69 4.69 0 0 1-.71.92 5 5 0 0 1-.92.72 4 4 0 0 1-2.16.62 3.53 3.53 0 0 1-1.84-.48 3.39 3.39 0 0 1-1.3-1.33 4 4 0 0 1-.47-1.92 4.9 4.9 0 0 1 .08-.78 1.13 1.13 0 0 1-.38-.75c0-.32.32-.7 1-1.18l.62-1.27c.22-.42.46-.78.73-1.18a11.52 11.52 0 0 1 .79-1c.7-.87 1.28-1.3 1.7-1.3a1 1 0 0 1 .69.27.81.81 0 0 1 .31.59.52.52 0 0 1-.26.42 3.79 3.79 0 0 0-.39.31 5.25 5.25 0 0 0-.46.47 9.71 9.71 0 0 0-1.08 1.45zm2.7 3.46a2.44 2.44 0 0 0-.24-1.1 2 2 0 0 0-.69-.72 2.31 2.31 0 0 0-2.2.06 2 2 0 0 0-.76.87 2.91 2.91 0 0 0-.28 1.34 2.16 2.16 0 0 0 .48 1.48 1.63 1.63 0 0 0 1.29.55 2.28 2.28 0 0 0 1.2-.34 2.45 2.45 0 0 0 .88-.9 2.49 2.49 0 0 0 .32-1.24zm5.77 2.04a14.66 14.66 0 0 1 2.22-.19 8.73 8.73 0 0 1 1.54.1 1.69 1.69 0 0 1 .83.37.91.91 0 0 1 .26.68 1 1 0 0 1-.16.61.54.54 0 0 1-.46.22h-.35a7.49 7.49 0 0 0-1-.08h-2.6a12.64 12.64 0 0 0-1.32.15 9.35 9.35 0 0 0-1.06.23 2.4 2.4 0 0 1-.59.12.61.61 0 0 1-.45-.19.67.67 0 0 1-.19-.47 1.61 1.61 0 0 1 .54-.9l.65-.66c.14-.14.4-.44.8-.9l1.1-1.3 1.37-1.77 1.07-1.55a2.93 2.93 0 0 0 .54-1.09c0-.2-.14-.3-.42-.3a2 2 0 0 0-.69.16 4.78 4.78 0 0 0-.88.49 5.56 5.56 0 0 0-.84.66 3.43 3.43 0 0 0-.59.68 1 1 0 0 1-.28.32.8.8 0 0 1-.38.08 1.11 1.11 0 0 1-.74-.27.8.8 0 0 1-.32-.64.91.91 0 0 1 .19-.53 4 4 0 0 1 .61-.66 9.17 9.17 0 0 1 2.21-1.53 4.93 4.93 0 0 1 2.1-.53 2.17 2.17 0 0 1 1 .22 1.6 1.6 0 0 1 .69.62 1.78 1.78 0 0 1 .24.92 2.89 2.89 0 0 1-.2 1 6.64 6.64 0 0 1-.61 1.24c-.27.43-.64.95-1.1 1.54l-1.34 1.64c-.5.64-1.02 1.1-1.4 1.53zm11.2-2.1a5 5 0 0 1-2.89 1.05 2.92 2.92 0 0 1-1.35-.32 2.43 2.43 0 0 1-1-.88 2.4 2.4 0 0 1-.35-1.27 4.22 4.22 0 0 1 .61-2.1 6.72 6.72 0 0 1 1.67-1.92 9.51 9.51 0 0 1 1.15-.8 7.53 7.53 0 0 1 1.12-.54 2.82 2.82 0 0 1 .86-.17 1.06 1.06 0 0 1 .87.34c.13.16.22.24.28.24a.45.45 0 0 0 .17 0 2.69 2.69 0 0 1 .38-.19.48.48 0 0 1 .18 0 1 1 0 0 1 .49.15 1.78 1.78 0 0 1 .48.36.89.89 0 0 1 .26.59 1.9 1.9 0 0 1-.07.47l-.06.2s0 .16-.13.4a18 18 0 0 0-.68 3l-.23 2-.1 1.63a7.4 7.4 0 0 0 .06 1.15 2.24 2.24 0 0 1 0 .34.59.59 0 0 1-.26.48 1.23 1.23 0 0 1-.7.18c-.42 0-.7-.12-.8-.35a3 3 0 0 1-.12-1.09l.17-2.95zm.5-4a1.13 1.13 0 0 0-.25-.78.91.91 0 0 0-.71-.28 3 3 0 0 0-2.07 1.17 5.23 5.23 0 0 0-.85 1.23 2.54 2.54 0 0 0-.33 1.15.94.94 0 0 0 .28.68 1 1 0 0 0 .71.26 2.64 2.64 0 0 0 1.5-.52 4 4 0 0 0 1.24-1.32 3.11 3.11 0 0 0 .48-1.6zm3.14 3.16a10.25 10.25 0 0 1 .12-1.59 8.77 8.77 0 0 1 .36-1.49 8.6 8.6 0 0 1 .59-1.29 4.83 4.83 0 0 1 .72-.95 2.54 2.54 0 0 1 1.8-.82 1.25 1.25 0 0 1 1 .32l.2.2a3.11 3.11 0 0 0 .41.31 3.85 3.85 0 0 1 1 1.1 5.56 5.56 0 0 1 .64 1.57 8.6 8.6 0 0 1 .22 1.94 9.63 9.63 0 0 1-.27 2.34 6.82 6.82 0 0 1-.75 1.86 4 4 0 0 1-1.15 1.25 2.46 2.46 0 0 1-1.43.44 2.67 2.67 0 0 1-1.75-.66 3.81 3.81 0 0 1-.71-.8 5.92 5.92 0 0 1-.52-1 7.81 7.81 0 0 1-.47-2.72zm3.42 3.25a1.24 1.24 0 0 0 1-.51 3.9 3.9 0 0 0 .64-1.46 9 9 0 0 0 .23-2.11 5.53 5.53 0 0 0-.45-2.47 1.4 1.4 0 0 0-1.24-.89 1.14 1.14 0 0 0-.88.57 4.82 4.82 0 0 0-.64 1.55 8.9 8.9 0 0 0-.24 2.08 7.35 7.35 0 0 0 .19 1.72 2.41 2.41 0 0 0 .57 1.12 1.11 1.11 0 0 0 .82.4z" fill="#0d83dd"/></a><path d="M177.5 101.8c3 .4 2.57 2.34 2.25 2.75a2.39 2.39 0 0 1-.32.32 2.28 2.28 0 0 1-2.48.24c-5.2-2.5-33.66-1.35-45.5 4.8 1.76-1.58 6.1-3.4 7.25-3.86 6.48-2.52 12.12-3.7 20.76-4.54a82.87 82.87 0 0 1 18.05.29z" fill="#0d83dd"/><defs ><path id="B" d="M303.57 63.72a2.06 2.06 0 0 0 .85-.15c.23-.1.34-.33.34-.7a.62.62 0 0 0-.12-.4.69.69 0 0 0-.3-.23 1.56 1.56 0 0 0-.4-.11h-1.43v1.62zm0-2.58a3.18 3.18 0 0 1 1.76.41 1.59 1.59 0 0 1 .62 1.42 2 2 0 0 1-.12.73 1.28 1.28 0 0 1-.35.49 1.48 1.48 0 0 1-.5.3 2.44 2.44 0 0 1-.62.13l1.62 2.7h-1.26l-1.47-2.65h-.76v2.64h-1.2v-6.18zm-3.9 4.84a4.26 4.26 0 0 0 .87 1.38 3.85 3.85 0 0 0 1.29.9 4 4 0 0 0 3.19 0 3.66 3.66 0 0 0 1.29-.9 4.51 4.51 0 0 0 1.21-3.12 4.46 4.46 0 0 0-1.21-3.1 3.94 3.94 0 0 0-1.29-.9 4.14 4.14 0 0 0-3.19 0 4.16 4.16 0 0 0-1.29.9 4.22 4.22 0 0 0-.87 1.37 4.59 4.59 0 0 0-.32 1.73 4.68 4.68 0 0 0 .32 1.74m-1.34-4a5.16 5.16 0 0 1 1.22-1.73 5.56 5.56 0 0 1 1.78-1.11 5.88 5.88 0 0 1 4.21 0 5.41 5.41 0 0 1 1.77 1.11 5.33 5.33 0 0 1 1.23 1.73 6 6 0 0 1 0 4.55 5.48 5.48 0 0 1-1.23 1.74 5.25 5.25 0 0 1-1.77 1.11 6 6 0 0 1-4.21 0 5.39 5.39 0 0 1-1.78-1.11 5.3 5.3 0 0 1-1.22-1.74 5.86 5.86 0 0 1 0-4.55"/><path id="C" d="M54.9 55.98a3.35 3.35 0 0 1 3.48-2.84c1.66 0 2.66.9 2.24 2.84l-3.2 15.05a3.33 3.33 0 0 1-3.47 2.83c-1.67 0-2.67-.9-2.25-2.83z"/></defs></svg>