<svg xmlns="http://www.w3.org/2000/svg" viewBox="0 0 192.18 177.25"><defs><style>.cls-1{fill:#dae8f5;opacity:0.82;}.cls-2{fill:#cbdff7;}.cls-3,.cls-8,.cls-9{fill:none;stroke-miterlimit:10;stroke-width:1.5px;}.cls-3,.cls-9{stroke:#1373ff;}.cls-3,.cls-8{stroke-linecap:round;}.cls-4,.cls-6{fill:#fff;}.cls-10,.cls-5{fill:#1373ff;}.cls-5{opacity:0.54;}.cls-6{opacity:0.83;}.cls-7{fill:#fccb00;}.cls-8{stroke:#fccb00;}.cls-10{opacity:0.3;}</style></defs><title>prefeered-plan</title><g id="Layer_1" data-name="Layer 1"><path class="cls-1" d="M122.78,39.75A95.3,95.3,0,0,0,71.38,215.3c1.67,0,3.32.24,5,.38h0a9.37,9.37,0,0,1,3.08-.2.24.24,0,0,1,.19-.1c1.71,0,3.36.22,5.09.13s3.23-.11,4.85-.13,3.3-.14,5-.11a38.69,38.69,0,0,0,4.57-.05h0l0,0c2.51,0,5,.44,7.5.42,2.25,0,4.47-.57,6.72-.34,4.84.51,9.73,0,14.59.13a.22.22,0,0,1,.22-.18c4.55,0,9.08.09,13.63,0s9,.09,13.57.1a.24.24,0,0,1,.21-.18,44.88,44.88,0,0,1,8.11.22c2.61.15,5.22.18,7.83.18h2.16A95.3,95.3,0,0,0,122.78,39.75Z" transform="translate(-27.48 -39.75)"/><polygon class="cls-2" points="100.97 37.3 79.23 69.85 79.6 70.69 122.65 70.48 100.97 37.3"/><rect class="cls-2" x="70.35" y="70.48" width="61" height="105.25"/><line class="cls-3" x1="19.31" y1="175.73" x2="147.31" y2="175.73"/><rect class="cls-4" x="77.25" y="110.31" width="12.13" height="22.67"/><rect class="cls-4" x="94.79" y="110.31" width="12.13" height="22.67"/><rect class="cls-4" x="112.33" y="110.31" width="12.12" height="22.67"/><path class="cls-4" d="M104.5,141.48V125.06a6.17,6.17,0,0,1,6.17-6.16h0a6.16,6.16,0,0,1,6.17,6.16v16.42" transform="translate(-27.48 -39.75)"/><path class="cls-4" d="M122.16,141.48V125.06a6.16,6.16,0,0,1,6.17-6.16h0a6.16,6.16,0,0,1,6.16,6.16v16.42" transform="translate(-27.48 -39.75)"/><path class="cls-4" d="M139.82,141.48V125.06A6.16,6.16,0,0,1,146,118.9h0a6.16,6.16,0,0,1,6.17,6.16v16.42" transform="translate(-27.48 -39.75)"/><path class="cls-4" d="M83.19,140.31h0a6.17,6.17,0,0,1,6.17,6.17V172a0,0,0,0,1,0,0H77a0,0,0,0,1,0,0v-25.5A6.17,6.17,0,0,1,83.19,140.31Z"/><rect class="cls-4" x="94.85" y="140.31" width="12.13" height="22.67"/><rect class="cls-4" x="112.67" y="140.31" width="12.13" height="22.67"/><polygon class="cls-4" points="87.06 49.23 75.54 49.73 70.62 69.85 74.93 69.85 87.06 49.23"/><polygon class="cls-4" points="114.81 49.73 124.69 50.06 131.16 69.85 128.47 69.85 127.28 69.85 114.81 49.73"/><path class="cls-4" d="M118.67,106.56V99.31a3.42,3.42,0,0,1,3.42-3.41h0a3.41,3.41,0,0,1,3.41,3.41v7.25Z" transform="translate(-27.48 -39.75)"/><path class="cls-4" d="M129.92,106.56V99.31a3.42,3.42,0,0,1,3.42-3.41h0a3.41,3.41,0,0,1,3.41,3.41v7.25Z" transform="translate(-27.48 -39.75)"/><path class="cls-5" d="M213,116.36a5.85,5.85,0,0,0-5.85-5.85,5.76,5.76,0,0,0-2.94.8c0-.1,0-.21,0-.31a6.9,6.9,0,0,0-13.79,0,3.39,3.39,0,0,0,0,.45,4.91,4.91,0,0,0-4.56,4.91" transform="translate(-27.48 -39.75)"/><path class="cls-6" d="M63.1,94.69a5.46,5.46,0,0,1,5.46-5.45A5.34,5.34,0,0,1,71.3,90a2.81,2.81,0,0,1,0-.29,6.43,6.43,0,0,1,12.86,0,3,3,0,0,1,0,.42,4.59,4.59,0,0,1,4.26,4.57" transform="translate(-27.48 -39.75)"/><path class="cls-6" d="M172.93,143.36h14.5a5.46,5.46,0,0,1,5.46-5.46,5.34,5.34,0,0,1,2.74.75,2.81,2.81,0,0,1,0-.29,6.43,6.43,0,1,1,12.86,0,3,3,0,0,1,0,.42,4.58,4.58,0,0,1,4.26,4.58h6.95" transform="translate(-27.48 -39.75)"/><path class="cls-5" d="M68.84,130.48A5.84,5.84,0,0,0,63,124.64a5.66,5.66,0,0,0-2.94.8c0-.11,0-.21,0-.31a6.9,6.9,0,1,0-13.79,0,3.24,3.24,0,0,0,0,.44,4.92,4.92,0,0,0-4.56,4.91" transform="translate(-27.48 -39.75)"/><path class="cls-7" d="M128,56.78a7,7,0,0,1-3.06,5.74,28.9,28.9,0,0,1-5.28,0c-1.78-.28-1.18-2.06-1.18-2.06a1.51,1.51,0,0,1,.29-.45,2.19,2.19,0,0,0,.39-.29,1.35,1.35,0,0,1,.66-.17h.91a2.2,2.2,0,0,0,1.56-.65,2.16,2.16,0,0,0,.65-1.56,2.22,2.22,0,0,0-2.21-2.23h-7.51a7.42,7.42,0,0,1,7.28-5.5A7.32,7.32,0,0,1,128,56.78Z" transform="translate(-27.48 -39.75)"/><path class="cls-6" d="M128.91,64.34A1.88,1.88,0,0,1,127,66.23H114a2.1,2.1,0,0,1-2.1-2.1A2.08,2.08,0,0,1,114,62h.18a1.35,1.35,0,0,0,.93-.36,1.4,1.4,0,0,0,.48-1v0a1.42,1.42,0,0,0-1.41-1.43h-5.69A2,2,0,0,1,107,55.75a2,2,0,0,1,1.43-.6H120.7a2.22,2.22,0,0,1,2.21,2.23,2.16,2.16,0,0,1-.65,1.56,2.2,2.2,0,0,1-1.56.65h-.91a1.35,1.35,0,0,0-.66.17,1.24,1.24,0,0,0-.39.29,1.51,1.51,0,0,0-.29.45s-.6,1.78,1.18,2.06a28.9,28.9,0,0,0,5.28,0l.51,0H127A1.87,1.87,0,0,1,128.91,64.34Z" transform="translate(-27.48 -39.75)"/><line class="cls-8" x1="83.21" y1="2.94" x2="85.97" y2="7.62"/><line class="cls-8" x1="92.27" y1="7.35" x2="92.57" y2="1.64"/><line class="cls-8" x1="97.86" y1="8.64" x2="101.43" y2="2.94"/><line class="cls-8" x1="101.43" y1="12.69" x2="108.4" y2="11.44"/><line class="cls-8" x1="102.61" y1="18.27" x2="110.23" y2="19.48"/><rect class="cls-4" x="70.35" y="70.48" width="61" height="3.75"/><rect class="cls-4" x="70.35" y="101.73" width="61" height="3.75"/><rect class="cls-4" x="70.35" y="132.98" width="61" height="3.75"/><rect class="cls-9" x="70.35" y="101.73" width="61" height="3.75"/><rect class="cls-9" x="70.35" y="132.98" width="61" height="3.75"/><rect class="cls-9" x="70.35" y="70.48" width="61" height="105.25"/><path class="cls-9" d="M83.19,140.31h0a6.17,6.17,0,0,1,6.17,6.17V172a0,0,0,0,1,0,0H77a0,0,0,0,1,0,0v-25.5A6.17,6.17,0,0,1,83.19,140.31Z"/><circle class="cls-9" cx="83.19" cy="146.73" r="2.33"/><line class="cls-9" x1="89.35" y1="146.48" x2="85.51" y2="146.48"/><line class="cls-9" x1="80.86" y1="146.48" x2="77.02" y2="146.48"/><line class="cls-9" x1="83.18" y1="151.94" x2="83.18" y2="149.06"/><line class="cls-9" x1="83.18" y1="144.4" x2="83.18" y2="140.31"/><line class="cls-9" x1="77.02" y1="151.94" x2="89.35" y2="151.94"/><rect class="cls-9" x="80.35" y="154.81" width="5.92" height="13.92"/><rect class="cls-9" x="94.85" y="140.31" width="12.13" height="22.67"/><line class="cls-9" x1="95.29" y1="148.1" x2="106.67" y2="148.1"/><line class="cls-9" x1="95.29" y1="155.48" x2="106.67" y2="155.48"/><line class="cls-9" x1="100.98" y1="148.1" x2="100.98" y2="162.98"/><rect class="cls-9" x="77.25" y="110.31" width="12.13" height="22.67"/><line class="cls-9" x1="77.69" y1="118.1" x2="89.06" y2="118.1"/><line class="cls-9" x1="77.69" y1="125.48" x2="89.06" y2="125.48"/><line class="cls-9" x1="83.37" y1="118.1" x2="83.37" y2="132.98"/><rect class="cls-9" x="94.79" y="110.31" width="12.13" height="22.67"/><line class="cls-9" x1="95.23" y1="118.1" x2="106.6" y2="118.1"/><line class="cls-9" x1="95.23" y1="125.48" x2="106.6" y2="125.48"/><line class="cls-9" x1="100.92" y1="118.1" x2="100.92" y2="132.98"/><rect class="cls-9" x="112.33" y="110.31" width="12.12" height="22.67"/><line class="cls-9" x1="112.77" y1="118.1" x2="124.15" y2="118.1"/><line class="cls-9" x1="112.77" y1="125.48" x2="124.15" y2="125.48"/><line class="cls-9" x1="118.46" y1="118.1" x2="118.46" y2="132.98"/><rect class="cls-9" x="112.67" y="140.31" width="12.13" height="22.67"/><line class="cls-9" x1="113.1" y1="148.1" x2="124.48" y2="148.1"/><line class="cls-9" x1="113.1" y1="155.48" x2="124.48" y2="155.48"/><line class="cls-9" x1="118.79" y1="148.1" x2="118.79" y2="162.98"/><path class="cls-9" d="M104.5,141.48V125.06a6.17,6.17,0,0,1,6.17-6.16h0a6.16,6.16,0,0,1,6.17,6.16v16.42" transform="translate(-27.48 -39.75)"/><circle class="cls-9" cx="83.19" cy="86.73" r="2.13"/><line class="cls-9" x1="83.19" y1="79.15" x2="83.19" y2="84.6"/><line class="cls-9" x1="85.31" y1="86.73" x2="89.35" y2="86.73"/><line class="cls-9" x1="81.06" y1="86.73" x2="77.02" y2="86.73"/><line class="cls-9" x1="83.19" y1="88.85" x2="83.19" y2="101.73"/><line class="cls-9" x1="89.37" y1="94.29" x2="77.25" y2="94.29"/><path class="cls-9" d="M122.16,141.48V125.06a6.16,6.16,0,0,1,6.17-6.16h0a6.16,6.16,0,0,1,6.16,6.16v16.42" transform="translate(-27.48 -39.75)"/><circle class="cls-9" cx="100.84" cy="86.73" r="2.13"/><line class="cls-9" x1="100.84" y1="79.15" x2="100.84" y2="84.6"/><line class="cls-9" x1="102.97" y1="86.73" x2="107.01" y2="86.73"/><line class="cls-9" x1="98.72" y1="86.73" x2="94.68" y2="86.73"/><line class="cls-9" x1="100.84" y1="88.85" x2="100.84" y2="101.73"/><line class="cls-9" x1="107.03" y1="94.29" x2="94.91" y2="94.29"/><path class="cls-9" d="M139.82,141.48V125.06A6.16,6.16,0,0,1,146,118.9h0a6.16,6.16,0,0,1,6.17,6.16v16.42" transform="translate(-27.48 -39.75)"/><circle class="cls-9" cx="118.5" cy="86.73" r="2.13"/><line class="cls-9" x1="118.5" y1="79.15" x2="118.5" y2="84.6"/><line class="cls-9" x1="120.62" y1="86.73" x2="124.67" y2="86.73"/><line class="cls-9" x1="116.37" y1="86.73" x2="112.33" y2="86.73"/><line class="cls-9" x1="118.5" y1="88.85" x2="118.5" y2="101.73"/><line class="cls-9" x1="124.69" y1="94.29" x2="112.56" y2="94.29"/><path class="cls-4" d="M100.67,195.9a12.33,12.33,0,0,1-24.6,1.3,11.2,11.2,0,0,1-.07-1.3,12.34,12.34,0,1,1,24.67,0Z" transform="translate(-27.48 -39.75)"/><path class="cls-10" d="M100.67,195.9a12.33,12.33,0,0,1-24.6,1.3,11.2,11.2,0,0,1-.07-1.3,12.34,12.34,0,1,1,24.67,0Z" transform="translate(-27.48 -39.75)"/><path class="cls-10" d="M80.84,169v17.13A12.31,12.31,0,0,0,76,195.9a11.2,11.2,0,0,0,.07,1.3,14.25,14.25,0,0,1-23.73-10.64V169a14.25,14.25,0,1,1,28.5,0Z" transform="translate(-27.48 -39.75)"/><path class="cls-9" d="M100.67,195.9a12.33,12.33,0,0,1-24.6,1.3,11.2,11.2,0,0,1-.07-1.3,12.34,12.34,0,1,1,24.67,0Z" transform="translate(-27.48 -39.75)"/><path class="cls-9" d="M80.84,169v17.13A12.31,12.31,0,0,0,76,195.9a11.2,11.2,0,0,0,.07,1.3,14.25,14.25,0,0,1-23.73-10.64V169a14.25,14.25,0,1,1,28.5,0Z" transform="translate(-27.48 -39.75)"/><line class="cls-3" x1="60.85" y1="151.65" x2="60.85" y2="175.73"/><line class="cls-3" x1="56.6" y1="154.81" x2="60.85" y2="159.4"/><line class="cls-3" x1="65.85" y1="158.73" x2="60.85" y2="163.4"/><line class="cls-3" x1="39.1" y1="126.98" x2="39.1" y2="175.73"/><line class="cls-3" x1="44.48" y1="130.98" x2="39.1" y2="136.1"/><line class="cls-3" x1="44.48" y1="149.06" x2="39.1" y2="153.98"/><line class="cls-3" x1="33.35" y1="144.4" x2="39.1" y2="150.5"/><polyline class="cls-3" points="70.35 70.48 75.6 49.48 87.68 49.48"/><path class="cls-4" d="M101.67,110.23l26.67-41.5,26.83,41.5m-5,0L128.35,76.9l-21.64,33.33" transform="translate(-27.48 -39.75)"/><path class="cls-3" d="M101.67,110.23l26.67-41.5,26.83,41.5m-5,0L128.35,76.9l-21.64,33.33" transform="translate(-27.48 -39.75)"/><path class="cls-3" d="M118.67,106.56V99.31a3.42,3.42,0,0,1,3.42-3.41h0a3.41,3.41,0,0,1,3.41,3.41v7.25Z" transform="translate(-27.48 -39.75)"/><line class="cls-3" x1="91.19" y1="60.48" x2="98.02" y2="60.48"/><path class="cls-3" d="M129.92,106.56V99.31a3.42,3.42,0,0,1,3.42-3.41h0a3.41,3.41,0,0,1,3.41,3.41v7.25Z" transform="translate(-27.48 -39.75)"/><line class="cls-3" x1="102.44" y1="60.48" x2="109.27" y2="60.48"/><polyline class="cls-4" points="120.63 49.48 120.63 38.48 114.1 38.48 114.1 49.48"/><rect class="cls-4" x="68.07" y="171.98" width="65.56" height="3.75"/><rect class="cls-9" x="68.07" y="171.98" width="65.56" height="3.75"/><path class="cls-4" d="M187.22,215.5a6.78,6.78,0,0,0,.52-2.63,6.88,6.88,0,0,0-13.41-2.17,8.15,8.15,0,0,0-4.1-1.09c-3.83,0-6.06,2.35-7,5.86Z" transform="translate(-27.48 -39.75)"/><path class="cls-10" d="M187.22,215.5a6.78,6.78,0,0,0,.52-2.63,6.88,6.88,0,0,0-13.41-2.17,8.15,8.15,0,0,0-4.1-1.09c-3.83,0-6.06,2.35-7,5.86Z" transform="translate(-27.48 -39.75)"/><path class="cls-9" d="M187.22,215.5a6.78,6.78,0,0,0,.52-2.63,6.88,6.88,0,0,0-13.41-2.17,8.15,8.15,0,0,0-4.1-1.09c-3.83,0-6.06,2.35-7,5.86Z" transform="translate(-27.48 -39.75)"/><line class="cls-3" x1="154.87" y1="175.72" x2="175.97" y2="176.5"/><polyline class="cls-3" points="114.1 49.48 124.79 49.48 131.35 70.48"/><polyline class="cls-3" points="120.63 49.48 120.63 38.48 114.1 38.48 114.1 49.48"/><rect class="cls-9" x="70.35" y="70.48" width="61" height="3.75"/><rect class="cls-4" x="131.38" y="97.43" width="15.67" height="3.66"/><rect class="cls-3" x="131.38" y="97.43" width="15.67" height="3.66"/><polyline class="cls-3" points="131.35 87.02 145.47 87.02 145.47 97.42"/><line class="cls-3" x1="142.09" y1="97.43" x2="142.09" y2="87.35"/><line class="cls-3" x1="136.55" y1="97.43" x2="136.55" y2="87.35"/><line class="cls-3" x1="135.65" y1="101.09" x2="135.65" y2="118.77"/><line class="cls-3" x1="141.05" y1="101.09" x2="141.05" y2="118.77"/><line class="cls-3" x1="135.87" y1="103.97" x2="140.71" y2="103.97"/><line class="cls-3" x1="135.93" y1="107.63" x2="140.76" y2="107.63"/><line class="cls-3" x1="135.99" y1="111.29" x2="140.82" y2="111.29"/><line class="cls-3" x1="136.04" y1="114.94" x2="140.88" y2="114.94"/><rect class="cls-4" x="131.39" y="129.01" width="15.67" height="3.66"/><rect class="cls-3" x="131.39" y="129.01" width="15.67" height="3.66"/><polyline class="cls-3" points="131.37 118.6 145.48 118.6 145.48 129.01"/><line class="cls-3" x1="142.11" y1="129.01" x2="142.11" y2="118.93"/><line class="cls-3" x1="136.56" y1="129.01" x2="136.56" y2="118.93"/><polyline class="cls-3" points="135.66 132.67 135.66 150.35 141.06 150.35 141.06 132.67"/><line class="cls-3" x1="135.88" y1="135.56" x2="140.72" y2="135.56"/><line class="cls-3" x1="135.94" y1="139.21" x2="140.77" y2="139.21"/><line class="cls-3" x1="136" y1="142.87" x2="140.83" y2="142.87"/><line class="cls-3" x1="136.05" y1="146.53" x2="140.89" y2="146.53"/></g></svg>