<svg version="1.1" xmlns="http://www.w3.org/2000/svg">
  <defs>
      <!-- <symbol id="aircraft" viewBox="0 0 62 51">
      <path fill="#000000" d="M38.9872..."></path>
      </symbol>
      <symbol id="attachment" viewBox="0 0 60 64">
      <path fill="#000000" d="M15.9264..."></path>
      </symbol>
      <symbol id="brush" viewBox="0 0 62 62">
      <path fill="#000000" d="M7.8416..."></path>
      </symbol>
      <symbol id="camera" viewBox="0 0 64 52">
      <path fill="#000000" d="M32,19.2 ..."</path>
      </symbol> -->
      <symbol id="logo-circular" viewBox="0 0 207 207">
         <title>Seller Bailout</title>
         <path style="fill:#0166ff" d="M536.13,366.72a103.5,103.5,0,1,1-103.5-103.5A103.5,103.5,0,0,1,536.13,366.72Z" transform="translate(-329.13 -263.22)"/><path style="fill:#fff" d="M476.82,406.17a1,1,0,0,1,1,1.19,1.48,1.48,0,0,1-1.39,1.18,1,1,0,0,1-1-1.18A1.48,1.48,0,0,1,476.82,406.17Z" transform="translate(-329.13 -263.22)"/><path style="fill:#fff" d="M483.46,400.7c1.76,0,2.89,1,2.72,2a1.08,1.08,0,0,1-1.14.91c-1,0-.42-1.24-1.93-1.24-.83,0-1.89.56-2.23,2.47-.23,1.31.24,2.16,1.4,2.16,1.47,0,1.39-1.35,2.5-1.35a.68.68,0,0,1,.74.81c-.16.92-1.43,2.19-3.59,2.19-2.6,0-3.55-1.6-3.16-3.81A4.61,4.61,0,0,1,483.46,400.7Z" transform="translate(-329.13 -263.22)"/><path style="fill:#fff" d="M490.59,400.7c2.55,0,3.6,1.73,3.21,4a4.41,4.41,0,0,1-4.6,4c-2.88,0-3.57-1.86-3.2-4A4.54,4.54,0,0,1,490.59,400.7Zm-1.12,6.37c1.26,0,2-1.13,2.22-2.41s-.14-2.4-1.37-2.4-2,1-2.22,2.4S488.22,407.07,489.47,407.07Z" transform="translate(-329.13 -263.22)"/><path style="fill:#fff" d="M495,401.76a1.18,1.18,0,0,1,1.18-1.06c.62,0,.92.42.81,1.06l-.05.27h0a3.62,3.62,0,0,1,2.78-1.33,1.71,1.71,0,0,1,1.79,1.33,3.49,3.49,0,0,1,2.71-1.33c1.46,0,2.51.67,2.18,2.56l-.76,4.32a1.15,1.15,0,0,1-1.24,1.05c-.82,0-1-.49-.87-1.05l.67-3.79c.13-.75-.09-1.36-.92-1.36a1.94,1.94,0,0,0-1.82,1.64l-.61,3.51a1.15,1.15,0,0,1-1.25,1.05c-.82,0-1-.49-.86-1.05l.66-3.79c.14-.75-.09-1.36-.91-1.36a1.93,1.93,0,0,0-1.82,1.64l-.62,3.51a1.15,1.15,0,0,1-1.24,1.05c-.82,0-1-.49-.87-1.05Z" transform="translate(-329.13 -263.22)"/><path style="fill:#fff" d="M416.46,339.2c-8.23,0-15.61,4.26-17.61,13.74s3.51,13.8,11.74,13.8l.89,0a9.35,9.35,0,0,1,8.38-5.94,6.26,6.26,0,0,1,4.63,1.89,4.43,4.43,0,0,0,.85-1.75,2.71,2.71,0,0,0-2.51-3.41c-3.16,0-6,3.21-9.79,3.21-3.36,0-4.81-2.16-4.36-5.47h14.65c3.31,0,5-1.1,5.67-4.21C429.8,347.12,428,339.2,416.46,339.2Zm3,10.93h-9.69a5.9,5.9,0,0,1,5.87-4.91C418.21,345.22,420.22,346.52,419.47,350.13Z" transform="translate(-329.13 -263.22)"/><path style="fill:#fff" d="M508.45,339.2c-3,0-5.52,2.55-8.28,7.32h-.1l.4-2c.86-3.91-.9-5.31-3.46-5.31s-5,1.6-5.77,5.11l-3.66,17.31c-.75,3.51,1.05,5.12,4.06,5.12a6,6,0,0,0,6.27-5.12l1.51-7.17c.75-3.41,2.56-4.47,5.47-5.17l3-.7c1.85-.45,3.26-2.06,3.81-4.62C512.11,341.7,511.61,339.2,508.45,339.2Z" transform="translate(-329.13 -263.22)"/><path style="fill:#fff" d="M384.22,336.94c5.72,0,4.87,4.41,8.73,4.41a5.89,5.89,0,0,0,6-4.56c1.3-6.07-7-7.68-13.65-7.68-10,0-15.25,5.67-16.56,11.69-1,5.07,1.36,8.48,6.78,10.14l7.22,2.2c2,.61,2.91,1.21,2.61,2.66-.5,2.21-2.76,3-5.12,3-5.67,0-5.06-5.27-9.18-5.27a6,6,0,0,0-5.87,4.72c-.7,3.26,1.86,8.68,14,8.68,7.63,0,15.8-3.71,17.61-12.29,1.35-6.27-2.21-9.08-7.93-10.74l-5.62-1.6c-2.3-.66-3.61-1.36-3.26-3S382.26,336.94,384.22,336.94Z" transform="translate(-329.13 -263.22)"/><path style="fill:#fff" d="M441,329.31a6,6,0,0,0-6.27,5.12l-5.17,24.36a8.43,8.43,0,0,1,5.08-1.56,6.11,6.11,0,0,1,5.07,2.07l.06.08,5.3-24.95C445.79,330.92,444,329.31,441,329.31Z" transform="translate(-329.13 -263.22)"/><path style="fill:#fff" d="M455,329.31a6,6,0,0,0-6.27,5.12L443,361.62c-.75,3.51,1.05,5.12,4.06,5.12a6,6,0,0,0,6.27-5.12l5.77-27.19C459.81,330.92,458,329.31,455,329.31Z" transform="translate(-329.13 -263.22)"/><path style="fill:#fff" d="M482.05,355.25c3.31,0,5-1.1,5.67-4.21.8-3.92-1-11.84-12.55-11.84-8.23,0-15.6,4.26-17.61,13.74s3.52,13.8,11.74,13.8c10,0,14.15-3,14.75-5.82a2.7,2.7,0,0,0-2.51-3.41c-3.16,0-6,3.21-9.78,3.21-3.36,0-4.82-2.16-4.36-5.47Zm-7.68-10c2.56,0,4.56,1.3,3.81,4.91H468.5A5.89,5.89,0,0,1,474.37,345.22Z" transform="translate(-329.13 -263.22)"/><path style="fill:#fbdb00" d="M423.84,368.26a6.59,6.59,0,0,1-6.24,5.31,4.33,4.33,0,0,1-4.37-5.31,6.59,6.59,0,0,1,6.24-5.3A4.32,4.32,0,0,1,423.84,368.26Z" transform="translate(-329.13 -263.22)"/><path style="fill:#fbdb00" d="M352.24,364.4c.76-3.57,2.91-5.17,6.12-5.17s4.67,1.6,3.92,5.17l-1.86,8.73h.1a10.38,10.38,0,0,1,8.13-4c8.63,0,9.58,8.63,8.53,13.7-1.81,8.48-7.48,13.85-14.7,13.85-3,0-6.73-1.41-6.88-4.72h-.1a5.57,5.57,0,0,1-5.51,4.72c-3.12,0-4.27-1.71-3.57-5ZM361,389.13c3.51,0,5.17-3.16,5.72-6,.65-3,.15-5.92-3.41-5.92-2.26,0-4.36,2-5.17,5.67S358.06,389.13,361,389.13Z" transform="translate(-329.13 -263.22)"/><path style="fill:#fbdb00" d="M405.89,388.33c-.4,1.8-.45,3.41-.7,4.66-.55,2.56-3.16,3.67-5.62,3.67-3.56,0-4.46-1.81-4.31-4.17a13.4,13.4,0,0,1-10.14,4.17c-5.72,0-9.28-2.36-8-8.13.91-4.37,4.62-7.63,15.06-8.28,3.91-.25,5.57-.8,6-2.56s-.91-2.56-3.67-2.56c-4.46,0-6.27,3.56-9.78,3.56-2.06,0-3-1.15-2.56-3.21.8-3.86,6.78-6.37,13.95-6.37,5.47,0,13.65,1.26,12.24,7.73Zm-9.18-4.12c-1.8,1.56-5.06,1.26-7.12,2a2.9,2.9,0,0,0-1.86,2.16c-.3,1.55.95,2.56,2.61,2.56,2.91,0,5.32-1.81,5.72-3.77Z" transform="translate(-329.13 -263.22)"/><path style="fill:#fbdb00" d="M410.85,380.5a6,6,0,0,1,6.27-5.12c3,0,4.82,1.61,4.07,5.12l-2.27,11a6,6,0,0,1-6.27,5.12c-3,0-4.82-1.61-4.07-5.12Z" transform="translate(-329.13 -263.22)"/><path style="fill:#fecc00" d="M428.34,364.35a6,6,0,0,1,6.27-5.12c3,0,4.81,1.6,4.06,5.12l-5.77,27.19a6,6,0,0,1-6.27,5.12c-3,0-4.81-1.61-4.06-5.12Z" transform="translate(-329.13 -263.22)"/><path style="fill:#fbdb00" d="M428.34,364.35a6,6,0,0,1,6.27-5.12c3,0,4.81,1.6,4.06,5.12l-5.77,27.19a6,6,0,0,1-6.27,5.12c-3,0-4.81-1.61-4.06-5.12Z" transform="translate(-329.13 -263.22)"/><path style="fill:#fbdb00" d="M454.79,369.11c8.23,0,13.8,4.27,11.79,13.75s-9.43,13.8-17.66,13.8-13.79-4.27-11.74-13.8S446.56,369.11,454.79,369.11ZM453.34,376c-2.76,0-4.87,2.2-5.92,7.12-.91,4.36.25,6.57,3,6.57s4.81-2.21,5.72-6.57C457.2,378.24,456.1,376,453.34,376Z" transform="translate(-329.13 -263.22)"/><path style="fill:#fbdb00" d="M488.56,374.23a6,6,0,0,1,6.27-5.12c3,0,4.81,1.61,4.06,5.12l-3.71,17.51c-.7,3.21-2.61,4.92-6,4.92-3.06,0-3.87-1.76-3.56-4.87h-.1a11.67,11.67,0,0,1-9.59,4.87c-7.17,0-9.13-4.42-7.92-10.14l2.6-12.29a6.05,6.05,0,0,1,6.28-5.12c3,0,4.81,1.61,4.06,5.12l-2.11,9.88c-.6,2.86.35,4.42,2.91,4.42s4.22-2,4.87-5.12Z" transform="translate(-329.13 -263.22)"/><path style="fill:#fbdb00" d="M506.12,366.45c.75-3.56,2.91-5.16,6.12-5.16s4.67,1.6,3.91,5.16l-.7,3.31h3c2.06,0,3,1,2.56,3a3.48,3.48,0,0,1-3.81,3h-3l-2.46,11.38-.15.76c-.15.8.25,1.2.9,1.2,3.91,0,4.82,1.2,4.32,3.61-.46,2.11-2.16,3.92-8.08,3.92s-8.38-2.91-7.18-8.78l2.61-12.09h-1.9c-2.06,0-3-1-2.61-3a3.55,3.55,0,0,1,3.86-3h1.91Z" transform="translate(-329.13 -263.22)"/><path style="fill:#fbdb00" d="M351.13,349.82a5,5,0,0,1-3.54-8.54l34.71-34.71a5,5,0,0,1,7.07,0l24,24a5,5,0,1,1-7.07,7.07l-20.45-20.45-31.18,31.17A5,5,0,0,1,351.13,349.82Z" transform="translate(-329.13 -263.22)"/>
      </symbol>
   </defs>
</svg>
