<svg xmlns="http://www.w3.org/2000/svg" viewBox="0 0 1920 1920" width="1920" height="1920">
	<defs>
		<clipPath clipPathUnits="userSpaceOnUse" id="cp1">
			<path d="M-240 -240L2160 -240L2160 2160L-240 2160Z" />
		</clipPath>
	</defs>
	<style>
		tspan { white-space:pre }
		.shp0 { fill: #0166ff } 
		.shp1 { fill: #ffffff } 
	</style>
	<g id="Page 1" clip-path="url(#cp1)">
		<path id="Path 1" class="shp0" d="M1920 960C1920 1490.19 1490.19 1920 960 1920C429.81 1920 0 1490.19 0 960C0 429.81 429.81 0 960 0C1490.19 0 1920 429.81 1920 960Z" />
		<path id="Path 2" fill-rule="evenodd" class="shp1" d="M262.33 1159.11C176.4 1159.11 137.27 1122.58 144.94 1049.5L231.67 1049.5C230.42 1061.14 233.42 1070.88 240.67 1078.7C247.92 1086.53 259.98 1090.45 276.85 1090.45C292.9 1090.45 305.61 1087.84 314.96 1082.62C324.32 1077.41 329.77 1070.37 331.33 1061.54C333.03 1051.9 328.26 1044.78 317.03 1040.16C305.8 1035.55 291.9 1031.83 275.33 1029.02C258.76 1026.21 242.27 1022.4 225.85 1017.57C209.44 1012.76 196.45 1003.32 186.88 989.27C177.31 975.22 174.58 956.55 178.69 933.26C183.86 903.95 199.85 879.26 226.68 859.18C253.5 839.11 285.79 829.07 323.54 829.07C366.5 829.07 396.51 839.91 413.56 861.59C430.61 883.27 437.5 907.96 434.23 935.67L351.72 935.67C352.82 924.82 349.9 915.79 342.95 908.57C335.98 901.34 325.28 897.72 310.83 897.72C297.17 897.72 286.02 900.64 277.37 906.46C268.71 912.28 263.61 919.61 262.05 928.44C260.35 938.07 265.13 945.1 276.4 949.52C287.67 953.94 301.59 957.45 318.21 960.06C334.81 962.67 351.22 966.38 367.43 971.2C383.65 976.02 396.51 985.66 406 1000.11C415.5 1014.56 418.12 1033.84 413.87 1057.92C408.71 1087.24 392.49 1111.44 365.24 1130.5C337.99 1149.58 303.68 1159.11 262.33 1159.11ZM755.63 1018.78L526.77 1018.78C525.75 1040.46 530.87 1057.02 542.1 1068.47C553.33 1079.91 569.79 1085.63 591.47 1085.63C605.12 1085.63 617.98 1082.72 630.05 1076.9C642.12 1071.08 651.55 1062.55 658.35 1051.3L744.48 1051.3C729.57 1083.43 706.83 1109.42 676.22 1129.3C645.61 1149.17 612.24 1159.11 576.11 1159.11C529.53 1159.11 494.11 1143.66 469.85 1112.73C445.59 1081.82 437.75 1042.07 446.31 993.49C454.6 946.51 476.35 907.36 511.59 876.04C546.82 844.72 587.52 829.06 633.7 829.06C679.87 829.06 714.76 844.63 738.4 875.74C762.01 906.86 769.65 946.11 761.3 993.49L755.63 1018.78ZM620.99 897.72C601.72 897.72 584.91 903.05 570.6 913.68C556.27 924.33 545.68 938.89 538.81 957.35L682.15 957.35C682.11 939.28 676.83 924.82 666.31 913.99C655.77 903.14 640.66 897.72 620.99 897.72ZM861.65 1151.88L776.13 1151.88L855.78 700.18L941.3 700.18L861.65 1151.88ZM1010.4 1151.88L924.88 1151.88L1004.53 700.18L1090.05 700.18L1010.4 1151.88ZM1295.78 1015.77L1327.43 836.29L1412.95 836.29L1357.3 1151.88L1278.4 1151.88L1285.2 1113.33C1263.35 1143.85 1229.75 1159.11 1184.38 1159.11C1147.43 1159.11 1121.03 1147.77 1105.16 1125.08C1089.28 1102.4 1084.75 1071.78 1091.54 1033.23L1126.27 836.29L1211.79 836.29L1178.76 1023.6C1171.47 1064.96 1185.29 1085.63 1220.22 1085.63C1241.09 1085.63 1257.92 1079.61 1270.68 1067.56C1283.44 1055.52 1291.81 1038.26 1295.78 1015.77Z" />
		<path id="Path 3" fill-rule="evenodd" class="shp1" d="M1512.01 1118.15L1483.97 1277.15L1398.45 1277.15L1476.19 836.29L1555.08 836.29L1548.28 874.84C1574.54 844.33 1610.56 829.06 1656.33 829.06C1700.9 829.06 1733.47 844.72 1754.05 876.04C1774.62 907.36 1780.73 946.71 1772.38 994.09C1764.03 1041.47 1744.04 1080.82 1712.42 1112.13C1680.79 1143.45 1642.7 1159.11 1598.14 1159.11C1577.25 1159.11 1559.38 1155.19 1544.5 1147.36C1529.62 1139.53 1518.78 1129.8 1512.01 1118.15ZM1564.22 929.65C1546.99 946.51 1536.07 967.99 1531.47 994.09C1526.87 1020.19 1530.21 1041.67 1541.49 1058.53C1552.76 1075.39 1570.05 1083.82 1593.34 1083.82C1616.62 1083.82 1636.89 1075.39 1654.12 1058.53C1671.34 1041.67 1682.25 1020.19 1686.86 994.09C1691.46 967.99 1688.11 946.51 1676.84 929.65C1665.56 912.78 1648.27 904.35 1624.99 904.35C1601.7 904.35 1581.44 912.78 1564.22 929.65ZM462.21 832.86L322.55 752.23L182.89 832.86L182.89 750.76L322.55 670.13L462.21 750.76L462.21 832.86Z" />
	</g>
</svg>